<?xml version="1.0" encoding="utf-8"?>
<!-- Generator: Adobe Illustrator 27.5.0, SVG Export Plug-In . SVG Version: 6.00 Build 0)  -->
<svg version="1.1" xmlns="http://www.w3.org/2000/svg" xmlns:xlink="http://www.w3.org/1999/xlink" x="0px" y="0px"
	 viewBox="0 0 750 500" style="enable-background:new 0 0 750 500;" xml:space="preserve">
<g id="Background_Complete">
	<g>
		<g>
			<path style="fill:#F5F5F5;" d="M76.691,139.245c0,0-11.641,4.412,1.113,29.201C90.558,193.236,99.377,205.5,99.377,205.5
				s2.267,5.757-2.583,6.669c-4.849,0.912-15.541-0.756-17.683,5.19c-2.222,6.166,2.272,11.961,11.359,17.027
				c9.087,5.066,28.59,16.895,30.349,17.972c1.727,1.057,3.465,3.733,0.261,4.884c-3.204,1.151-27.23,3.741-25.319,15.068
				c1.911,11.327,29.547,21.28,32.547,22.426c3,1.146,3.721,2.414,3.482,4.059c-0.239,1.646-8.396,1.755-15.2,2.771
				c-6.803,1.017-14.514,3.388-12.863,9.831c1.65,6.443,18.045,19.935,57.758,23.691l18.516,0.536l10.022-15.675
				c19.404-34.853,17.575-56.007,13.201-61.017c-4.374-5.01-10.696,0-15.388,5.03c-4.692,5.03-9.404,11.691-10.895,10.955
				c-1.491-0.735-2.128-2.048-1.372-5.169c0.755-3.122,8.21-31.533-0.041-39.525c-8.251-7.992-23.997,10.339-26.76,12.327
				c-2.764,1.988-3.985-0.96-3.877-2.982c0.11-2.06,1.411-24.832,2.385-35.191c0.974-10.358-1.255-17.344-7.595-19.007
				c-6.113-1.604-10.796,8.151-14.295,11.631c-3.499,3.479-6.959-1.65-6.959-1.65s-5.11-14.215-18.312-38.769
				c-13.202-24.554-23.654-17.231-23.654-17.231"/>
		</g>
		<g>
			<g>
				<path style="fill:#E0E0E0;" d="M180.975,339.975c-9.625-18.071-26.191-50.475-40.559-78.223
					c-14.363-27.738-27.39-52.839-36.922-70.957c-4.767-9.038-8.629-16.36-11.311-21.444c-1.325-2.516-2.358-4.478-3.071-5.833
					c-0.337-0.654-0.598-1.16-0.786-1.524c-0.174-0.345-0.25-0.529-0.25-0.529s0.111,0.165,0.302,0.501
					c0.2,0.357,0.478,0.855,0.836,1.497c0.736,1.343,1.801,3.288,3.167,5.782c2.745,5.025,6.664,12.323,11.473,21.36
					c9.625,18.071,22.71,43.145,37.073,70.882c14.368,27.747,30.876,60.18,40.408,78.297"/>
			</g>
		</g>
		<g>
			<g>
				<path style="fill:#E0E0E0;" d="M93.973,220.294c0.014-0.037,0.473,0.091,1.292,0.355c0.821,0.26,1.996,0.673,3.444,1.195
					c2.893,1.05,6.852,2.603,11.19,4.395c4.271,1.783,8.133,3.395,11.088,4.628c1.335,0.547,2.461,1.009,3.367,1.381
					c0.797,0.323,1.232,0.519,1.219,0.556c-0.013,0.038-0.473-0.087-1.295-0.346c-0.82-0.263-1.997-0.675-3.439-1.213
					c-2.883-1.079-6.821-2.683-11.158-4.475c-4.282-1.751-8.154-3.335-11.117-4.547c-1.339-0.541-2.468-0.997-3.376-1.364
					C94.393,220.531,93.96,220.332,93.973,220.294z"/>
			</g>
		</g>
		<g>
			<g>
				<path style="fill:#E0E0E0;" d="M126.835,231.617c-0.149-0.054,2.692-8.357,6.345-18.543c3.655-10.19,6.738-18.405,6.887-18.351
					c0.149,0.054-2.691,8.355-6.346,18.545C130.068,223.454,126.984,231.671,126.835,231.617z"/>
			</g>
		</g>
		<g>
			<g>
				<path style="fill:#E0E0E0;" d="M146.974,275.215c-0.031-0.025,0.237-0.431,0.748-1.146c0.585-0.806,1.316-1.813,2.183-3.008
					c1.839-2.542,4.365-6.064,7.008-10.051c2.654-3.983,4.93-7.671,6.556-10.354c0.767-1.262,1.412-2.326,1.93-3.177
					c0.46-0.748,0.731-1.153,0.765-1.134c0.035,0.02-0.17,0.461-0.57,1.244c-0.401,0.782-1.001,1.904-1.774,3.272
					c-1.539,2.74-3.767,6.473-6.428,10.467c-2.651,3.999-5.236,7.493-7.162,9.977c-0.968,1.238-1.763,2.231-2.332,2.901
					C147.333,274.88,147.005,275.24,146.974,275.215z"/>
			</g>
		</g>
		<g>
			<g>
				<path style="fill:#E0E0E0;" d="M114.996,271.516c0.004-0.04,0.454-0.031,1.265,0.017c0.932,0.071,2.077,0.158,3.427,0.26
					c2.891,0.245,6.882,0.622,11.285,1.075c4.405,0.453,8.389,0.894,11.27,1.242c1.343,0.174,2.481,0.322,3.408,0.442
					c0.803,0.117,1.246,0.201,1.242,0.24c-0.004,0.039-0.454,0.031-1.265-0.017c-0.932-0.071-2.077-0.158-3.427-0.26
					c-2.891-0.245-6.882-0.622-11.287-1.075c-4.404-0.453-8.387-0.894-11.268-1.242c-1.343-0.174-2.482-0.322-3.409-0.442
					C115.435,271.639,114.992,271.556,114.996,271.516z"/>
			</g>
		</g>
		<g>
			<g>
				<path style="fill:#E0E0E0;" d="M127.886,312.264c0.004-0.04,0.58-0.024,1.618,0.038c1.145,0.083,2.621,0.189,4.393,0.317
					c3.707,0.293,8.825,0.737,14.475,1.263c5.651,0.526,10.763,1.034,14.461,1.431c1.766,0.202,3.236,0.369,4.376,0.499
					c1.032,0.131,1.601,0.221,1.597,0.261c-0.004,0.039-0.58,0.024-1.618-0.038c-1.145-0.083-2.621-0.189-4.393-0.317
					c-3.707-0.293-8.826-0.737-14.477-1.263c-5.649-0.526-10.761-1.034-14.459-1.43c-1.765-0.201-3.236-0.369-4.376-0.499
					C128.451,312.395,127.882,312.303,127.886,312.264z"/>
			</g>
		</g>
		<g>
			<g>
				<path style="fill:#E0E0E0;" d="M167.853,315.707c-0.032-0.023,0.294-0.547,0.911-1.475c0.678-1.01,1.564-2.327,2.631-3.914
					c2.217-3.307,5.262-7.886,8.48-13.036c3.227-5.147,6.025-9.882,8.027-13.323c0.963-1.652,1.762-3.024,2.374-4.075
					c0.565-0.96,0.893-1.482,0.928-1.463c0.035,0.019-0.227,0.577-0.732,1.571c-0.504,0.994-1.257,2.421-2.216,4.167
					c-1.913,3.497-4.66,8.273-7.893,13.428c-3.224,5.159-6.327,9.711-8.633,12.962c-1.157,1.623-2.106,2.926-2.783,3.813
					C168.273,315.25,167.885,315.73,167.853,315.707z"/>
			</g>
		</g>
	</g>
	<g>
		<g>
			<g>
				<g>
					<g>
						<path style="fill:#F5F5F5;" d="M523.706,373.817c-26.678-17.43-33.655-51.105-33.568-81.573
							c0.014-5.086-0.711-10.424,1.567-14.958c2.28-4.532,7.823-7.754,12.438-5.755c3.828,1.659,5.609,5.996,7.833,9.56
							c2.958,4.742,7.266,8.608,12.269,11.01c3.287,1.578,7.322,2.48,10.461,0.62c4.307-2.554,4.635-8.625,4.447-13.677
							c-0.352-9.416-0.703-18.833-1.055-28.247c-0.189-5.051-0.364-10.21,1.058-15.055c1.422-4.844,4.757-9.408,9.521-10.904
							c4.766-1.495,10.796,1.091,11.965,6.005c0.487,2.045,0.134,4.195,0.339,6.287c0.206,2.094,1.255,4.384,3.265,4.906
							c2.035,0.53,4.013-0.966,5.477-2.492c5.057-5.264,8.391-11.947,11.496-18.586c3.104-6.639,6.107-13.43,10.666-19.142
							c4.559-5.712,10.968-10.325,18.191-10.961c7.225-0.634,15.073,3.592,17.123,10.639c2.055,7.067-1.876,14.424-6.219,20.331
							c-6.443,8.764-14.145,16.577-22.788,23.116c-1.557,1.18-3.246,2.456-3.797,4.346c-0.993,3.403,2.303,6.649,5.664,7.653
							c3.806,1.137,7.88,0.619,11.834,0.96c3.954,0.341,8.277,1.946,9.883,5.624c2.23,5.1-1.921,10.648-6.06,14.326
							c-8.289,7.365-17.833,13.276-28.082,17.397c-3.675,1.476-7.55,2.791-10.466,5.495c-2.916,2.706-4.584,7.303-2.663,10.805
							c1.923,3.507,6.607,4.501,10.478,3.657c3.87-0.842,7.29-3.065,10.956-4.58c6.862-2.837,15.845-2.637,20.48,3.226
							c3.046,3.854,3.474,9.339,2.142,14.087c-1.331,4.748-4.204,8.892-7.272,12.727c-10.723,13.404-24.644,24.359-40.58,30.446
							C554.776,377.197,539.897,379.174,523.706,373.817"/>
					</g>
				</g>
			</g>
		</g>
		<g>
			<g>
				<g>
					<g>
						<g>
							<path style="fill:#E0E0E0;" d="M530.969,354.492c4.002-15.5,9.797-32.125,16.456-49.307c1.68-4.288,3.341-8.527,4.977-12.703
								c1.643-4.165,3.273-8.297,5.116-12.238c3.653-7.902,7.768-15.22,11.891-22.044c4.121-6.829,8.281-13.159,12.213-19.049
								c3.947-5.885,7.729-11.3,11.387-16.088c7.288-9.609,14.071-16.648,18.924-21.29c2.422-2.33,4.36-4.076,5.69-5.241
								c0.64-0.554,1.142-0.989,1.52-1.316c0.346-0.291,0.528-0.435,0.539-0.423c0.012,0.012-0.15,0.18-0.475,0.496
								c-0.363,0.344-0.846,0.802-1.459,1.385c-1.287,1.211-3.185,2.998-5.566,5.364c-4.768,4.717-11.452,11.801-18.652,21.432
								c-3.614,4.8-7.356,10.224-11.269,16.119c-3.902,5.906-8.032,12.241-12.123,19.065c-4.092,6.82-8.174,14.121-11.795,21.984
								c-1.828,3.923-3.438,8.019-5.083,12.196c-1.635,4.175-3.292,8.411-4.971,12.698c-6.653,17.168-12.458,33.744-16.495,49.185"
								/>
						</g>
					</g>
				</g>
			</g>
		</g>
		<g>
			<g>
				<g>
					<g>
						<g>
							<path style="fill:#E0E0E0;" d="M557.784,280.2c-0.062,0.012-0.258-0.75-0.561-2.14c-0.309-1.388-0.689-3.41-1.122-5.916
								c-0.871-5.009-1.838-11.967-2.875-19.642c-1.037-7.68-2.1-14.604-3.044-19.586c-0.466-2.492-0.862-4.506-1.155-5.894
								c-0.285-1.391-0.413-2.168-0.351-2.185c0.062-0.016,0.308,0.73,0.701,2.098c0.401,1.365,0.898,3.363,1.446,5.847
								c1.115,4.966,2.285,11.904,3.322,19.59c1.004,7.577,1.911,14.431,2.604,19.669c0.328,2.364,0.606,4.356,0.83,5.955
								C557.771,279.402,557.848,280.188,557.784,280.2z"/>
						</g>
					</g>
				</g>
			</g>
		</g>
		<g>
			<g>
				<g>
					<g>
						<g>
							<path style="fill:#E0E0E0;" d="M622.372,266.038c0.004,0.064-0.917,0.201-2.582,0.391c-1.662,0.2-4.069,0.477-7.031,0.914
								c-5.93,0.827-14.082,2.257-23.007,4.228c-8.924,1.988-16.923,4.13-22.664,5.846c-2.878,0.838-5.188,1.579-6.788,2.082
								c-1.598,0.509-2.493,0.761-2.516,0.701c-0.022-0.062,0.833-0.43,2.398-1.048c1.567-0.609,3.852-1.448,6.713-2.372
								c5.707-1.884,13.708-4.135,22.659-6.13c8.951-1.975,17.152-3.308,23.122-3.967c2.982-0.354,5.407-0.532,7.085-0.619
								C621.438,265.986,622.367,265.972,622.372,266.038z"/>
						</g>
					</g>
				</g>
			</g>
		</g>
		<g>
			<g>
				<g>
					<g>
						<g>
							<path style="fill:#E0E0E0;" d="M531.731,353.272c-0.029,0.014-0.19-0.253-0.47-0.778c-0.32-0.626-0.711-1.391-1.184-2.316
								c-1.019-2.015-2.418-4.97-4.099-8.644c-3.366-7.345-7.696-17.637-12.32-29.058c-4.628-11.426-8.856-21.745-12.064-29.149
								c-1.571-3.599-2.864-6.559-3.825-8.76c-0.411-0.955-0.75-1.743-1.028-2.39c-0.225-0.55-0.331-0.846-0.301-0.861
								c0.03-0.012,0.19,0.255,0.471,0.78c0.32,0.626,0.71,1.389,1.184,2.314c1.019,2.015,2.418,4.97,4.099,8.644
								c3.366,7.345,7.696,17.637,12.322,29.063c4.626,11.423,8.854,21.739,12.062,29.145c1.573,3.597,2.864,6.559,3.825,8.758
								c0.411,0.956,0.75,1.745,1.028,2.39C531.655,352.962,531.76,353.258,531.731,353.272z"/>
						</g>
					</g>
				</g>
			</g>
		</g>
		<g>
			<g>
				<g>
					<g>
						<g>
							<path style="fill:#E0E0E0;" d="M617.194,322.763c0.009,0.031-0.282,0.161-0.846,0.38c-0.668,0.247-1.488,0.55-2.481,0.918
								c-2.292,0.823-5.387,1.934-9.151,3.283c-7.727,2.775-18.354,6.729-30.092,11.113c-11.741,4.388-22.416,8.248-30.202,10.862
								c-3.893,1.309-7.053,2.336-9.251,3.001c-1.017,0.301-1.855,0.548-2.536,0.751c-0.583,0.162-0.895,0.231-0.904,0.2
								c-0.009-0.031,0.283-0.161,0.846-0.381c0.666-0.245,1.486-0.549,2.481-0.916c2.292-0.823,5.385-1.932,9.15-3.284
								c7.727-2.773,18.356-6.728,30.097-11.115c11.737-4.386,22.411-8.246,30.197-10.86c3.893-1.309,7.053-2.336,9.253-3.001
								c1.017-0.301,1.853-0.55,2.536-0.751C616.873,322.801,617.183,322.733,617.194,322.763z"/>
						</g>
					</g>
				</g>
			</g>
		</g>
	</g>
	<g>
		<path style="fill:#EBEBEB;" d="M151.597,97.549c0.806-5.858-7.461-10.677-13.673-11.177c-2.962-0.239-6.04,0.214-8.846-0.764
			c-6.081-2.119-8.51-9.975-14.443-12.478c-4.436-1.871-9.543-0.205-13.843,1.959c-4.3,2.164-8.55,4.888-13.354,5.196
			c-4.179,0.267-8.717-1.282-12.373,0.759c-2.724,1.521-4.152,4.661-6.663,6.513c-2.457,1.812-5.661,2.196-8.71,2.362
			c-3.048,0.166-6.204,0.197-8.98,1.467c-2.776,1.271-5.072,4.206-4.496,7.204L151.597,97.549z"/>
	</g>
	<g>
		<path style="fill:#F5F5F5;" d="M564.831,151.224c0.834-6.061-7.72-11.048-14.148-11.566c-3.065-0.247-6.249,0.221-9.153-0.79
			c-6.292-2.193-8.805-10.321-14.944-12.911c-4.59-1.936-9.874-0.212-14.323,2.027c-4.45,2.239-8.847,5.058-13.818,5.376
			c-4.324,0.277-9.02-1.327-12.803,0.785c-2.819,1.574-4.296,4.822-6.894,6.739c-2.542,1.875-5.858,2.272-9.012,2.444
			c-3.154,0.172-6.419,0.203-9.291,1.518c-2.872,1.315-5.248,4.352-4.652,7.454L564.831,151.224z"/>
	</g>
	<g>
		<path style="fill:#F5F5F5;" d="M693.151,177.831c0.514-3.732-4.753-6.802-8.711-7.121c-1.887-0.152-3.848,0.136-5.636-0.487
			c-3.874-1.35-5.422-6.355-9.202-7.95c-2.826-1.192-6.08-0.131-8.819,1.248c-2.74,1.379-5.447,3.114-8.508,3.31
			c-2.663,0.17-5.554-0.817-7.883,0.484c-1.736,0.969-2.645,2.969-4.245,4.149c-1.565,1.154-3.607,1.399-5.549,1.505
			c-1.942,0.106-3.953,0.125-5.721,0.935c-1.768,0.81-3.231,2.68-2.864,4.59L693.151,177.831z"/>
	</g>
	<g>
		<path style="fill:#EBEBEB;" d="M673.904,92.54c0.935-6.792-8.65-12.379-15.853-12.959c-3.435-0.277-7.002,0.248-10.256-0.886
			c-7.05-2.457-9.866-11.565-16.745-14.467c-5.143-2.169-11.064-0.238-16.05,2.271c-4.986,2.509-9.913,5.667-15.483,6.024
			c-4.845,0.31-10.107-1.487-14.346,0.88c-3.159,1.764-4.814,5.404-7.725,7.551c-2.848,2.101-6.564,2.546-10.098,2.738
			c-3.534,0.192-7.193,0.228-10.411,1.701c-3.218,1.473-5.88,4.876-5.213,8.352L673.904,92.54z"/>
	</g>
</g>
<g id="Background_Simple" style="display:none;">
	<path style="display:inline;fill:#EBEBEB;" d="M607.4,158.124L607.4,158.124c-13.237-33.746-40.781-60.176-75.395-70.941
		c-12.918-4.017-26.461-5.975-40-5.554c-41.559,1.292-81.757,24.953-103.057,60.662c-12.527,21.001-19.545,46.507-38.865,61.497
		c-25.144,19.509-60.888,13.861-92.027,7.289c-31.139-6.572-66.923-12.132-91.982,7.486c-15.693,12.287-31.632,37.91-37.118,57.071
		c-17.219,60.147,22.071,113.618,62.576,146.411c41.012,33.204,109.578,28.596,162.336,27.579
		c73.908-1.424,148.762-28.28,200.346-81.228c49.329-50.633,74.372-126.224,58.111-194.719
		C611.068,168.38,609.388,163.192,607.4,158.124z"/>
</g>
<g id="Character">
	<g>
		<g>
			<path style="fill:#263238;" d="M279.686,117.479c2.75-1.184,5.689,1.331,7.193,3.921c1.504,2.589,2.707,5.717,5.45,6.919
				c2.131,0.934,4.581,0.402,6.906,0.492c7.153,0.278,12.699,6.451,15.907,12.851c1.993,3.976,3.455,8.589,2.125,12.833
				c-1.172,3.74-4.313,6.523-7.599,8.66c-6.595,4.289-14.471,6.784-22.326,6.343c-7.855-0.441-15.627-3.97-20.605-10.062
				c-3.85-4.712-5.897-10.688-6.787-16.707c-0.89-6.019-0.693-12.14-0.494-18.221"/>
			<g>
				<path style="fill:#455A64;" d="M310.631,148.986c-0.05-0.002-0.002-0.642-0.116-1.78c-0.12-1.131-0.435-2.781-1.33-4.615
					c-0.881-1.827-2.354-3.83-4.514-5.436c-2.141-1.618-4.919-2.837-7.978-3.375c-3.054-0.547-6.097-0.272-8.819-0.852
					c-2.746-0.536-4.905-1.974-6.451-3.337c-1.557-1.385-2.586-2.724-3.261-3.66c-0.334-0.472-0.582-0.846-0.739-1.107
					c-0.158-0.26-0.234-0.401-0.219-0.411c0.035-0.023,0.406,0.496,1.12,1.396c0.72,0.891,1.783,2.181,3.34,3.503
					c1.549,1.303,3.656,2.656,6.304,3.146c2.636,0.541,5.665,0.252,8.816,0.809c3.136,0.551,5.988,1.817,8.177,3.506
					c2.209,1.676,3.698,3.769,4.557,5.662c0.875,1.902,1.14,3.602,1.199,4.756c0.029,0.58,0.016,1.032-0.017,1.335
					C310.672,148.829,310.648,148.987,310.631,148.986z"/>
			</g>
		</g>
		<g>
			<path style="fill:#E8505B;" d="M338.456,135.933l-10.531,39.42l-21.374-23.005c-9.841-6.424-21.462-9.572-33.201-8.993l0,0
				l-33.263-1.545l-18.353,6.608c-4.424,1.604-8.668,3.667-12.661,6.155l-35.786,24.69c-7.571,5.467-13.785,9.642-15.246,18
				c-1.927,11.023,3.652,23.33,15.236,25.362l50.612,0.617l1.557,32.045l79.562-7.461l-2.129-48.285
				c16.24,12.506,23.867,17.381,36.088,15.001c4.075-0.794,9.893-5.07,11.785-11.409c6.746-22.606,7.898-58.153,7.898-58.153
				L338.456,135.933z M213.698,192.501l4.623-1.308l0.29,1.667L213.698,192.501z"/>
			<g>
				<path style="fill:#263238;" d="M172.533,222.643c0-0.009,0.145-0.017,0.427-0.025c0.306-0.006,0.722-0.013,1.255-0.023
					c1.129-0.009,2.751-0.022,4.827-0.039c4.22-0.011,10.285-0.027,17.779-0.046c15.048,0.01,35.827,0.024,58.872,0.04l-0.26,0.248
					c0.026-0.574,0.055-1.194,0.084-1.816c0.371-7.949,0.73-15.642,1.064-22.787l0.227,0.261
					c-17.905-1.668-33.252-4.249-44.209-5.636c-5.478-0.717-9.853-1.202-12.854-1.548c-1.481-0.165-2.633-0.293-3.442-0.383
					c-0.373-0.046-0.666-0.083-0.888-0.11c-0.199-0.027-0.3-0.045-0.3-0.052c0.001-0.008,0.103-0.005,0.304,0.008
					c0.222,0.017,0.517,0.039,0.892,0.067c0.811,0.071,1.966,0.171,3.451,0.301c3.007,0.293,7.39,0.729,12.876,1.403
					c10.979,1.301,26.327,3.816,44.217,5.451l0.238,0.022l-0.011,0.24c-0.328,7.145-0.68,14.839-1.045,22.788
					c-0.029,0.622-0.058,1.243-0.084,1.816l-0.012,0.249l-0.249-0.001c-23.045-0.077-43.824-0.146-58.871-0.196
					c-7.494-0.05-13.559-0.09-17.778-0.118c-2.076-0.025-3.698-0.044-4.827-0.058c-0.533-0.012-0.948-0.021-1.255-0.028
					C172.677,222.661,172.533,222.652,172.533,222.643z"/>
			</g>
			<g>
				<path style="fill:#263238;" d="M173.547,188.452c-0.013-0.033,0.275-0.174,0.811-0.4c0.532-0.236,1.333-0.505,2.34-0.771
					c2.011-0.539,4.914-0.919,8.095-0.606c3.182,0.325,5.952,1.275,7.815,2.202c0.934,0.461,1.665,0.884,2.14,1.221
					c0.481,0.328,0.735,0.523,0.716,0.553c-0.051,0.08-1.13-0.615-3.01-1.44c-1.875-0.828-4.599-1.699-7.713-2.018
					c-3.115-0.306-5.957,0.007-7.959,0.446C174.777,188.073,173.581,188.541,173.547,188.452z"/>
			</g>
			<g>
				<path style="fill:#263238;" d="M184.559,179.264c0.034-0.058,0.884,0.351,2.177,1.155c1.293,0.801,3.023,2.009,4.792,3.52
					c1.746,1.507,3.341,2.977,3.997,4.434c0.332,0.713,0.43,1.362,0.401,1.799c-0.022,0.439-0.125,0.664-0.149,0.658
					c-0.1,0.002,0.147-0.986-0.581-2.291c-0.685-1.312-2.264-2.702-4.006-4.204c-1.75-1.495-3.426-2.736-4.658-3.61
					C185.301,179.849,184.52,179.33,184.559,179.264z"/>
			</g>
			<g>
				<path style="fill:#263238;" d="M219.007,193.048c-0.071,0.016-0.406-1.18-0.9-3.124c-0.496-1.943-1.152-4.632-1.961-7.576
					c-0.811-2.945-1.658-5.575-2.341-7.454c-0.678-1.881-1.155-3.026-1.082-3.06c0.033-0.015,0.189,0.254,0.444,0.756
					c0.259,0.5,0.596,1.242,0.981,2.171c0.775,1.857,1.685,4.49,2.499,7.448c0.813,2.958,1.413,5.667,1.818,7.632
					C218.868,191.808,219.076,193.033,219.007,193.048z"/>
			</g>
			<g>
				<path style="fill:#263238;" d="M303.904,221.943c-0.144,0.005-0.718-12.012-1.283-26.837
					c-0.565-14.831-0.907-26.854-0.763-26.859c0.144-0.005,0.718,12.009,1.283,26.84
					C303.706,209.912,304.047,221.938,303.904,221.943z"/>
			</g>
			<g style="opacity:0.3;">
				<path d="M302.295,173.756c0.822,5.166,3.04,9.986,4.786,14.917c1.746,4.931,3.042,10.254,1.936,15.367
					c-1.993-1.605-3.986-3.21-5.979-4.814"/>
			</g>
			<g>
				<path style="fill:#263238;" d="M333.148,196.528c-0.033,0.016-0.193-0.253-0.457-0.753c-0.267-0.499-0.616-1.238-1.016-2.166
					c-0.801-1.855-1.75-4.494-2.476-7.497c-0.721-3.005-1.077-5.787-1.208-7.803c-0.067-1.008-0.092-1.826-0.081-2.391
					c0.007-0.565,0.028-0.877,0.064-0.878c0.081-0.003,0.159,1.241,0.385,3.236c0.223,1.995,0.634,4.739,1.348,7.715
					c0.719,2.974,1.603,5.604,2.311,7.481C332.725,195.351,333.222,196.494,333.148,196.528z"/>
			</g>
			<polygon style="opacity:0.3;" points="214.08,175.098 215.374,192.026 218.32,191.193 			"/>
			<g>
				<path style="fill:#FAFAFA;" d="M300.468,175c-0.004,0.008-0.093-0.029-0.262-0.109c-0.194-0.095-0.438-0.216-0.742-0.365
					c-0.66-0.301-1.635-0.751-2.951-1.157c-2.596-0.821-6.658-1.589-11.489-0.582c-2.405,0.488-4.913,1.527-7.4,3
					c-2.496,1.463-4.986,3.32-7.72,5.128c-2.722,1.8-5.795,3.538-9.305,4.381c-3.48,0.901-7.269,1.053-11.028,0.451
					c-1.88-0.313-3.695-0.832-5.436-1.473c-1.721-0.693-3.362-1.511-4.87-2.492c-1.488-1.003-2.884-2.101-4.097-3.331
					c-1.22-1.222-2.298-2.523-3.295-3.826c-1.988-2.613-3.667-5.23-5.39-7.562c-1.705-2.345-3.459-4.403-5.344-5.98
					c-1.889-1.562-3.802-2.741-5.615-3.455c-1.806-0.732-3.478-1.041-4.846-1.084c-2.766-0.097-4.186,0.718-4.205,0.6
					c-0.003-0.008,0.085-0.046,0.26-0.111c0.205-0.073,0.463-0.164,0.784-0.278c0.35-0.103,0.797-0.187,1.321-0.298
					c0.533-0.048,1.148-0.147,1.846-0.115c1.392,0.012,3.102,0.297,4.949,1.016c1.854,0.701,3.81,1.875,5.743,3.443
					c1.93,1.584,3.728,3.663,5.455,6.006c1.747,2.334,3.441,4.944,5.423,7.527c0.994,1.288,2.063,2.569,3.266,3.766
					c1.196,1.206,2.562,2.274,4.023,3.255c1.479,0.958,3.09,1.757,4.778,2.436c1.708,0.626,3.489,1.136,5.334,1.443
					c3.689,0.59,7.406,0.445,10.818-0.432c3.439-0.818,6.45-2.507,9.167-4.288c2.724-1.786,5.233-3.637,7.766-5.1
					c2.521-1.474,5.091-2.515,7.542-2.988c4.923-0.977,9.027-0.137,11.627,0.75c1.319,0.439,2.287,0.923,2.935,1.255
					c0.295,0.169,0.532,0.305,0.72,0.413C300.392,174.94,300.473,174.992,300.468,175z"/>
			</g>
			<g>
				<path style="fill:#FAFAFA;" d="M320.005,166.828c0.031-0.001,0.085,0.437,0.105,1.235c0.018,0.798-0.026,1.96-0.275,3.374
					c-0.249,1.411-0.754,3.067-1.593,4.77c-0.829,1.711-1.973,3.455-3.304,5.187c-2.709,3.47-6.098,5.726-8.677,6.931
					c-1.294,0.611-2.389,0.992-3.155,1.214c-0.768,0.217-1.202,0.299-1.21,0.268c-0.031-0.095,1.688-0.527,4.203-1.812
					c2.5-1.273,5.78-3.529,8.43-6.923c1.308-1.701,2.452-3.42,3.283-5.079c0.845-1.655,1.371-3.254,1.662-4.628
					C320.039,168.605,319.892,166.824,320.005,166.828z"/>
			</g>
			<g>
				<path style="fill:#FAFAFA;" d="M332.102,214.563c-0.01,0.015-0.141-0.058-0.383-0.211c-0.234-0.163-0.612-0.364-1.029-0.715
					c-0.874-0.65-2.038-1.742-3.212-3.307c-2.377-3.097-4.431-8.363-4.474-14.351c-0.027-5.983,1.463-11.232,2.583-14.924
					c0.574-1.853,1.083-3.336,1.446-4.357c0.363-1.021,0.583-1.579,0.617-1.568c0.035,0.011-0.12,0.591-0.424,1.63
					c-0.328,1.124-0.762,2.606-1.286,4.399c-1.027,3.709-2.443,8.928-2.415,14.814c0.043,5.88,1.997,11.048,4.251,14.14
					C330.013,213.264,332.199,214.458,332.102,214.563z"/>
			</g>
			<g>
				<path style="fill:#FAFAFA;" d="M355.676,169.767c0.014,0.031-0.324,0.224-0.958,0.53c-0.634,0.306-1.567,0.715-2.751,1.15
					c-2.352,0.859-5.794,1.825-9.688,1.647c-3.9-0.184-7.252-1.699-9.216-3.3c-0.994-0.794-1.689-1.561-2.106-2.133
					c-0.42-0.57-0.603-0.917-0.579-0.932c0.087-0.072,0.905,1.297,2.907,2.772c1.968,1.484,5.231,2.893,9.018,3.073
					c3.79,0.175,7.181-0.712,9.542-1.475C354.22,170.321,355.641,169.687,355.676,169.767z"/>
			</g>
			<g>
				<path style="fill:#FAFAFA;" d="M206.892,191.846c-0.09,0.023-0.496-1.561-1.426-4.02c-0.925-2.458-2.459-5.766-4.677-9.104
					c-2.229-3.333-4.692-6.022-6.605-7.821c-1.912-1.805-3.218-2.789-3.162-2.862c0.021-0.029,0.364,0.194,0.967,0.624
					c0.608,0.423,1.448,1.092,2.443,1.967c1.993,1.745,4.534,4.43,6.79,7.804c2.246,3.379,3.746,6.757,4.59,9.268
					c0.425,1.255,0.72,2.288,0.876,3.012C206.853,191.436,206.927,191.838,206.892,191.846z"/>
			</g>
			<g>
				<path style="fill:#FAFAFA;" d="M218.574,193.569c0.016,0.009-0.076,0.191-0.267,0.532c-0.177,0.35-0.505,0.825-0.95,1.421
					c-0.92,1.159-2.501,2.698-4.855,3.96c-2.338,1.279-5.379,2.299-8.839,2.887c-3.457,0.596-7.299,0.827-11.255,1.468
					c-1.974,0.335-3.886,0.761-5.657,1.396c-1.77,0.63-3.399,1.445-4.848,2.385c-2.917,1.869-5.071,4.198-6.599,6.316
					c-1.513,2.143-2.398,4.093-2.925,5.461c-0.534,1.37-0.714,2.17-0.772,2.154c-0.018-0.004,0.021-0.205,0.111-0.584
					c0.084-0.381,0.225-0.939,0.471-1.639c0.473-1.401,1.317-3.4,2.814-5.604c1.513-2.177,3.677-4.577,6.639-6.507
					c1.471-0.97,3.134-1.815,4.94-2.464c1.805-0.655,3.747-1.09,5.742-1.429c3.997-0.646,7.833-0.862,11.262-1.427
					c3.423-0.556,6.427-1.524,8.744-2.739c2.334-1.198,3.918-2.661,4.872-3.764C218.142,194.268,218.522,193.537,218.574,193.569z"
					/>
			</g>
			<g>
				<path style="fill:#FAFAFA;" d="M239.919,196.319c0.035-0.01,0.156,0.34,0.348,0.983c0.203,0.64,0.411,1.592,0.589,2.781
					c0.187,1.189,0.279,2.623,0.257,4.215c-0.05,1.591-0.231,3.339-0.616,5.138c-0.405,1.796-0.974,3.459-1.597,4.924
					c-0.648,1.455-1.334,2.719-2.002,3.719c-0.66,1.004-1.248,1.781-1.701,2.277c-0.444,0.504-0.701,0.77-0.728,0.746
					c-0.077-0.063,0.892-1.186,2.117-3.219c0.619-1.011,1.26-2.272,1.873-3.712c0.587-1.45,1.132-3.086,1.53-4.848
					c0.378-1.766,0.57-3.479,0.645-5.042c0.048-1.564-0.005-2.977-0.143-4.155C240.231,197.771,239.824,196.345,239.919,196.319z"/>
			</g>
			<g>
				<path style="fill:#FAFAFA;" d="M302.244,211.478c-0.069,0.157-2.858-1.485-6.723-1.921c-3.861-0.486-6.957,0.453-6.987,0.284
					c-0.018-0.057,0.724-0.369,1.996-0.626c1.268-0.258,3.078-0.409,5.053-0.176c1.973,0.239,3.696,0.811,4.868,1.36
					C301.627,210.948,302.275,211.426,302.244,211.478z"/>
			</g>
		</g>
		<g>
			<polygon style="fill:#FFBE9D;" points="348.875,111.122 338.82,136.096 357.754,144.579 362.605,123.341 			"/>
			<path style="fill:#455A64;" d="M370.599,135.782l-17.031-21.098l0,0c-3.424-4.745-8.892-12.376-9.135-13.029
				c-0.355-0.955-0.482-7.827-0.326-9.552s-0.43-6.647-0.43-6.647l-14.013,5.313l-2.945-10.752l-1.914,0.603
				c0,0-5.073,8.769-3.506,13.765c1.567,4.997,8.198,7.242,9.844,8.26c1.646,1.018,7.863,3.686,14.895,14.299l1.134,1.64l0,0
				l0.008,0.011l2.847,4.116l0.007-0.005l12.981,18.704c1.505,2.078,4.393,2.574,6.505,1.119
				C371.738,141,372.23,137.927,370.599,135.782z"/>
			<g>
				<g>
					<g>
						<g>
							<g>
								<g>
									<path style="fill:#455A64;" d="M337.206,87.909l-3.661-10.315l1.327-0.429c0,0,6.454,3.948,7.848,8.654L337.206,87.909z"/>
								</g>
							</g>
						</g>
						<g>
							<g>
								<g>
									<g>
										<path style="fill:#263238;" d="M333.303,101.537c0.005,0,0.059-0.023,0.159-0.067c0.114-0.051,0.258-0.116,0.438-0.196
											c0.397-0.18,0.95-0.429,1.651-0.746c1.429-0.651,3.46-1.576,5.956-2.714l-0.144-0.099
											c-0.034,0.59-0.035,1.201,0.009,1.838c0.061,0.631,0.112,1.306,0.438,1.945c0.693,1.183,1.529,2.34,2.387,3.577
											c1.73,2.459,3.654,5.112,5.681,7.878c0.291,0.374,0.523,0.723,0.581,1.16c0.064,0.421-0.008,0.862-0.214,1.23
											c-0.395,0.755-1.307,1.156-2.108,0.97c-0.401-0.081-0.764-0.298-1.036-0.592c-0.254-0.311-0.506-0.676-0.755-1.006
											c-0.498-0.675-0.986-1.336-1.463-1.98c-1.906-2.572-3.623-4.89-5.07-6.843c-0.353-0.505-0.822-0.886-1.253-1.217
											c-0.438-0.332-0.868-0.618-1.273-0.882c-0.811-0.523-1.53-0.94-2.12-1.274c-0.591-0.334-1.055-0.582-1.372-0.746
											c-0.148-0.074-0.267-0.134-0.363-0.182C333.349,101.548,333.311,101.54,333.303,101.537
											c-0.008-0.004,0.038,0.032,0.115,0.078c0.092,0.054,0.208,0.122,0.35,0.206c0.326,0.191,0.775,0.455,1.345,0.79
											c0.581,0.348,1.29,0.777,2.09,1.31c0.398,0.268,0.822,0.558,1.25,0.892c0.427,0.338,0.864,0.698,1.204,1.194
											c1.434,1.963,3.135,4.292,5.023,6.877c0.474,0.646,0.959,1.309,1.455,1.985c0.255,0.34,0.482,0.676,0.769,1.029
											c0.307,0.336,0.72,0.584,1.176,0.677c0.91,0.213,1.949-0.241,2.401-1.101c0.235-0.419,0.318-0.922,0.245-1.402
											c-0.056-0.486-0.355-0.93-0.63-1.279c-2.026-2.764-3.955-5.413-5.693-7.863c-0.858-1.227-1.709-2.396-2.389-3.539
											c-0.299-0.568-0.363-1.239-0.425-1.853c-0.048-0.623-0.052-1.231-0.024-1.808l0.008-0.172l-0.153,0.073
											c-2.506,1.201-4.545,2.177-5.979,2.865c-0.68,0.329-1.216,0.588-1.601,0.774c-0.168,0.082-0.302,0.148-0.409,0.2
											C333.342,101.513,333.298,101.536,333.303,101.537z"/>
									</g>
								</g>
							</g>
						</g>
					</g>
					<g>
						<g style="opacity:0.3;">
							<g>
								<g>
									<polygon points="331.999,96.507 338.287,94.18 338.248,90.656 331.905,93.083 									"/>
								</g>
							</g>
						</g>
						<g>
							<g>
								<g>
									<g>
										<path style="fill:#263238;" d="M336.908,90.452c-0.151,0.002-0.26,1.165-0.244,2.597c0.016,1.433,0.151,2.593,0.301,2.591
											c0.151-0.002,0.26-1.164,0.244-2.598C337.193,91.611,337.058,90.45,336.908,90.452z"/>
									</g>
								</g>
							</g>
						</g>
						<g>
							<g>
								<g>
									<g>
										<path style="fill:#263238;" d="M335.001,91.154c-0.151,0.002-0.26,1.165-0.244,2.597c0.016,1.433,0.151,2.593,0.301,2.591
											c0.151-0.002,0.26-1.164,0.244-2.597C335.286,92.312,335.152,91.152,335.001,91.154z"/>
									</g>
								</g>
							</g>
						</g>
						<g>
							<g>
								<g>
									<g>
										<path style="fill:#263238;" d="M333.177,91.599c-0.151,0.002-0.26,1.165-0.244,2.597c0.016,1.433,0.151,2.593,0.301,2.591
											c0.151-0.002,0.26-1.164,0.244-2.598C333.462,92.758,333.327,91.598,333.177,91.599z"/>
									</g>
								</g>
							</g>
						</g>
					</g>
				</g>
			</g>
			<path style="fill:#FFBE9D;" d="M339.466,134.494l0.681-4.893l0.468-12.968l-0.503-9.093c0,0,3.043,0.233,4.664,4.149
				c1.642,3.969,1.706,9.914,1.706,9.914s12.695,5,8.219,16.968"/>
			<g>
				<path style="fill:#FFBE9D;" d="M356.661,114.662c0.057-1.012-0.043-2.076-0.58-2.935c-0.607-0.97-1.708-1.552-2.833-1.758
					s-1.967-0.225-3.097-0.041l2.388,3.327c-0.541,2.262-0.775,3.783-1.058,6.092c-0.13,1.058-0.121,2.358,0.793,2.907
					c0.744,0.447,1.759,0.105,2.341-0.538c0.583-0.643,0.837-1.51,1.075-2.345C356.129,117.826,356.571,116.266,356.661,114.662z"/>
				<path style="fill:#FFBE9D;" d="M360.246,118.512c0.057-1.012-0.043-2.076-0.58-2.935c-0.607-0.97-1.708-1.552-2.833-1.758
					c-1.125-0.206-1.967-0.225-3.097-0.041l2.388,3.327c-0.541,2.263-0.775,3.783-1.058,6.092c-0.13,1.058-0.121,2.358,0.793,2.907
					c0.744,0.447,1.758,0.105,2.341-0.538c0.583-0.643,0.838-1.51,1.075-2.345C359.713,121.676,360.156,120.116,360.246,118.512z"/>
				<path style="fill:#FFBE9D;" d="M364.009,122.305c0.057-1.012-0.043-2.076-0.58-2.935c-0.607-0.97-1.708-1.552-2.833-1.758
					c-1.126-0.206-1.967-0.225-3.097-0.041l2.388,3.327c-0.541,2.263-0.775,3.783-1.058,6.092c-0.13,1.058-0.121,2.358,0.793,2.907
					c0.744,0.447,1.758,0.105,2.341-0.538c0.583-0.643,0.837-1.51,1.075-2.345C363.477,125.469,363.919,123.909,364.009,122.305z"/>
				<g>
					<path style="fill:#EB996E;" d="M356.402,112.311c0.128-0.029,0.549,1.972,0.191,4.437c-0.342,2.468-1.303,4.272-1.418,4.209
						c-0.145-0.06,0.574-1.898,0.902-4.282C356.425,114.294,356.246,112.327,356.402,112.311z"/>
				</g>
				<g>
					<path style="fill:#EB996E;" d="M360.238,117.525c0.129-0.028,0.482,1.759,0.016,3.918c-0.449,2.163-1.497,3.653-1.603,3.575
						c-0.137-0.075,0.667-1.617,1.094-3.683C360.192,119.274,360.082,117.538,360.238,117.525z"/>
				</g>
			</g>
			<g>
				<path style="fill:#EB996E;" d="M345.013,112.311c0.054-0.008,0.251,0.958,0.545,2.616c0.294,1.658,0.683,4.009,1.121,6.77
					l-0.16-0.192c1.699,0.57,3.443,1.578,4.944,2.998c1.569,1.468,2.669,3.259,3.339,4.979c0.692,1.721,0.971,3.396,1.004,4.791
					c0.044,1.4-0.145,2.521-0.301,3.279c-0.161,0.76-0.314,1.163-0.341,1.156c-0.116-0.016,0.411-1.688,0.274-4.419
					c-0.078-1.358-0.385-2.967-1.08-4.627c-0.678-1.664-1.74-3.363-3.253-4.781c-1.444-1.367-3.115-2.348-4.743-2.92l-0.139-0.049
					l-0.021-0.143c-0.4-2.767-0.724-5.128-0.935-6.798C345.056,113.3,344.959,112.319,345.013,112.311z"/>
			</g>
			<g>
				<path style="fill:#263238;" d="M343.677,85.456c0.002,0.007-0.073,0.04-0.219,0.097c-0.2,0.075-0.411,0.154-0.641,0.24
					c-0.67,0.249-1.454,0.54-2.359,0.876c-2.122,0.808-4.799,1.826-7.76,2.952c-2.958,1.136-5.633,2.162-7.753,2.976
					c-0.904,0.34-1.686,0.634-2.356,0.886c-0.232,0.083-0.444,0.159-0.644,0.231c-0.148,0.051-0.227,0.074-0.23,0.067
					c-0.003-0.007,0.071-0.043,0.215-0.106c0.196-0.083,0.404-0.172,0.63-0.268c0.662-0.269,1.437-0.584,2.332-0.948
					c1.973-0.792,4.704-1.869,7.732-3.034c3.028-1.162,5.779-2.188,7.784-2.896c1.002-0.355,1.817-0.631,2.383-0.814
					c0.235-0.073,0.45-0.14,0.654-0.203C343.594,85.469,343.674,85.449,343.677,85.456z"/>
			</g>
		</g>
		<g>
			<g>
				<g>
					<path style="fill:#FFBE9D;" d="M256.83,201.825c0,0,12.457-3.42,14.588-3.493c1.632-0.056,11.085,1.545,15.431,2.3
						c1.67,0.29,2.942,1.831,2.667,3.504c-0.018,0.108-0.043,0.21-0.076,0.304c-0.612,1.716-2.4,1.838-2.4,1.838
						s2.16,0.992,1.822,3.458c-0.339,2.467-3.397,2.531-3.397,2.531s0.158,0.158,0.368,0.443c1.38,1.873,0.129,4.539-2.192,4.708
						l-1.39,0.101c0,0,1.702,1.033,1.419,2.718c-0.542,3.232-7.921,2.743-7.921,2.743l-19.823-0.379L256.83,201.825z"/>
				</g>
				<g>
					<path style="fill:#FFBE9D;" d="M285.758,196.546c-0.242,1.056-0.839,3.289-2.812,4.043l-9.973-1.921
						c0,0,7.864-1.441,9.12-2.553c0.44-0.39,1.038-0.865,1.646-1.182C284.797,194.381,286.024,195.384,285.758,196.546z"/>
				</g>
			</g>
			<g>
				<g>
					<path style="fill:#EB996E;" d="M277.708,199.288c-0.031,0.174,1.991,0.683,4.532,1.022c2.529,0.338,4.589,0.555,4.621,0.372
						c0.031-0.173-1.991-0.682-4.532-1.022C279.801,199.323,277.74,199.105,277.708,199.288z"/>
				</g>
			</g>
			<g>
				<g>
					<path style="fill:#EB996E;" d="M279.109,205.233c-0.044,0.17,1.678,0.752,3.893,1.006c2.216,0.261,4.025,0.089,4.021-0.087
						c-0.001-0.187-1.777-0.309-3.945-0.565C280.91,205.339,279.154,205.051,279.109,205.233z"/>
				</g>
			</g>
			<g>
				<g>
					<path style="fill:#EB996E;" d="M274.113,203.74c-0.163,0.07-0.054,0.645,0.458,1.097c0.51,0.454,1.094,0.494,1.144,0.324
						c0.059-0.175-0.312-0.456-0.708-0.814C274.603,203.995,274.28,203.661,274.113,203.74z"/>
				</g>
			</g>
			<g>
				<g>
					<path style="fill:#EB996E;" d="M277.037,211.421c-0.014,0.181,1.91,0.557,4.295,0.84c2.387,0.284,4.344,0.368,4.373,0.189
						s-1.894-0.555-4.296-0.841C279.008,211.324,277.051,211.24,277.037,211.421z"/>
				</g>
			</g>
			<g>
				<g>
					<path style="fill:#EB996E;" d="M271.712,207.866c-0.077-0.035-0.263,0.143-0.372,0.53c-0.109,0.378-0.104,0.977,0.21,1.532
						c0.315,0.554,0.826,0.867,1.206,0.968c0.388,0.106,0.636,0.038,0.646-0.046c0.032-0.176-0.82-0.42-1.281-1.245
						C271.65,208.786,271.879,207.929,271.712,207.866z"/>
				</g>
			</g>
			<g>
				<g>
					<path style="fill:#EB996E;" d="M274.574,217.414c-0.005,0.181,1.752,0.378,3.924,0.439c2.173,0.061,3.938-0.036,3.943-0.217
						c0.005-0.181-1.752-0.377-3.924-0.438C276.345,217.135,274.579,217.233,274.574,217.414z"/>
				</g>
			</g>
			<g>
				<g>
					<path style="fill:#EB996E;" d="M269.458,213.397c-0.082-0.024-0.238,0.177-0.286,0.568c-0.052,0.386,0.044,0.937,0.33,1.444
						c0.599,1.001,1.374,1.448,1.484,1.342c0.152-0.135-0.419-0.824-0.911-1.661C269.571,214.247,269.62,213.452,269.458,213.397z"
						/>
				</g>
			</g>
		</g>
		<g>
			<path style="fill:#263238;" d="M217.869,103.286c-0.396-3.202-3.922-5.455-7.112-4.98c-3.191,0.476-5.759,3.201-6.639,6.305
				c-0.879,3.104-0.274,6.481,1.047,9.424c1.04,2.317,2.763,4.608,5.251,5.118c2.282,0.468,4.647-0.734,6.196-2.473
				c1.549-1.74,2.44-3.952,3.301-6.116L217.869,103.286z"/>
			<path style="fill:#E8505B;" d="M221.929,102.587c-0.998-0.66-2.438-0.215-3.199,0.708c-0.762,0.923-0.979,2.179-1.012,3.375
				c-0.054,1.987,0.331,3.985,1.118,5.81c0.237,0.55,0.57,1.137,1.143,1.312c0.548,0.167,1.157-0.119,1.523-0.561
				c0.366-0.441,0.536-1.01,0.671-1.568c0.801-3.321,0.627-6.87-0.494-10.097"/>
			<g>
				<path style="fill:#E8505B;" d="M278.585,87.152c5.628-2.756,8.851-5.604,8.383-7.934c-0.468-2.332-11.783-5.936-14.429-6.919
					c-6.248-2.32-12.16,3.202-22.031,5.184c-19.17,3.85-33.928,10.868-32.963,15.677c0.465,2.317,4.499,3.698,10.701,4.076"/>
			</g>
			<g style="opacity:0.4;">
				<path d="M275.239,87.648c4.988-2.442,7.978-4.998,7.431-7.032c-1.523-5.66-15.324-4.95-32.315-1.537
					c-16.991,3.412-30.072,9.633-29.216,13.895c0.412,2.054,3.988,3.278,9.484,3.613"/>
			</g>
			<g>
				<g>
					<g>
						<g>
							<g>
								<g>
									<g>
										<g>
											<g>
												<g>
													<g>
														<path style="fill:#FFBE9D;" d="M230.65,94.817c-2.381-13.232,6.604-25.922,20.062-27.934
															c12.684-1.897,24.523,6.99,27.111,19.552c2.269,11.012,4.308,22.141,4.474,26.214
															c0.5,12.282-6.425,17.444-9.26,19.034c-0.647,0.363-2.459,0.832-3.187,0.976l0,0
															c-0.046,0.009-0.074,0.054-0.063,0.099l3.479,13.943c1.729,9.165-2.983,17.673-12.127,19.51
															c-9.175,1.842-16.782-4.861-18.688-14.023L230.65,94.817z"/>
													</g>
													<g>
														<g>
															<g>
																<g>
																	<g>
																		<path style="fill:#263238;" d="M274.072,94.084c0.239,1.004-0.415,2.035-1.459,2.304
																			c-1.042,0.268-2.082-0.326-2.321-1.331c-0.239-1.004,0.414-2.036,1.457-2.305
																			C272.792,92.483,273.833,93.079,274.072,94.084z"/>
																	</g>
																</g>
															</g>
														</g>
														<g>
															<g>
																<g>
																	<g>
																		<g>
																			<path style="fill:#263238;" d="M275.169,89.916c-0.188,0.298-1.854-0.485-3.915-0.066
																				c-2.064,0.389-3.364,1.754-3.638,1.546c-0.132-0.09,0.019-0.589,0.582-1.201c0.552-0.608,1.565-1.294,2.85-1.547
																				c1.285-0.251,2.461,0.005,3.179,0.364C274.958,89.372,275.264,89.781,275.169,89.916z"/>
																		</g>
																	</g>
																</g>
															</g>
														</g>
													</g>
													<g>
														<g>
															<g>
																<g>
																	<g>
																		<path style="fill:#263238;" d="M253.809,98.153c0.239,1.004-0.415,2.035-1.459,2.304
																			c-1.042,0.268-2.082-0.326-2.322-1.331c-0.239-1.004,0.414-2.036,1.457-2.304
																			C252.53,96.553,253.57,97.148,253.809,98.153z"/>
																	</g>
																</g>
															</g>
														</g>
														<g>
															<g>
																<g>
																	<g>
																		<g>
																			<path style="fill:#263238;" d="M254.984,94.37c-0.188,0.298-1.856-0.484-3.915-0.065
																				c-2.064,0.389-3.364,1.754-3.638,1.546c-0.132-0.09,0.017-0.588,0.582-1.201c0.552-0.608,1.565-1.294,2.85-1.547
																				c1.286-0.251,2.46,0.005,3.178,0.364C254.771,93.826,255.078,94.234,254.984,94.37z"/>
																		</g>
																	</g>
																</g>
															</g>
														</g>
													</g>
													<g>
														<g>
															<g>
																<g>
																	<g>
																		<path style="fill:#263238;" d="M265.535,108.154c-0.033-0.115,1.204-0.594,3.227-1.276
																			c0.515-0.16,0.992-0.365,1.009-0.742c0.048-0.405-0.287-0.928-0.665-1.49c-0.75-1.174-1.537-2.405-2.362-3.695
																			c-3.308-5.273-5.815-9.651-5.601-9.782c0.213-0.131,3.068,4.036,6.376,9.309c0.803,1.303,1.57,2.544,2.301,3.733
																			c0.319,0.558,0.798,1.168,0.688,2.011c-0.063,0.422-0.392,0.785-0.711,0.943
																			c-0.317,0.171-0.612,0.236-0.869,0.304C266.861,108,265.567,108.27,265.535,108.154z"/>
																	</g>
																</g>
															</g>
														</g>
													</g>
													<g>
														<g>
															<g>
																<g>
																	<path style="fill:#EB996E;" d="M269.767,132.676c0,0-7.828,2.252-18.985-1.733c0,0,5.254,9.89,19.922,5.49
																		L269.767,132.676z"/>
																</g>
															</g>
														</g>
													</g>
													<g>
														<g>
															<g>
																<g>
																	<path style="fill:#EB996E;" d="M265.661,113.297c-0.938-0.831-2.345-1.109-3.607-0.711
																		c-0.875,0.276-1.693,0.889-2.09,1.726c-0.397,0.838-0.303,1.895,0.33,2.49c0.713,0.67,1.912,0.618,2.84,0.14
																		c0.928-0.477,1.644-1.295,2.319-2.102c0.186-0.223,0.377-0.455,0.467-0.728c0.089-0.273,0.055-0.598-0.158-0.767"
																		/>
																</g>
															</g>
														</g>
													</g>
													<g>
														<g>
															<g>
																<g>
																	<g>
																		<path style="fill:#263238;" d="M259.755,110.799c0.331-0.087,0.785,2.15,3.019,3.354
																			c2.231,1.209,4.566,0.479,4.646,0.788c0.06,0.134-0.444,0.541-1.445,0.771c-0.981,0.232-2.487,0.205-3.854-0.531
																			c-1.364-0.739-2.127-1.938-2.388-2.841C259.461,111.421,259.6,110.816,259.755,110.799z"/>
																	</g>
																</g>
															</g>
														</g>
													</g>
												</g>
											</g>
										</g>
										<g>
											<g>
												<g>
													<g>
														<path style="fill:#263238;" d="M254.45,87.721c-0.09,0.601-2.202,0.749-4.562,1.526
															c-2.376,0.73-4.184,1.829-4.605,1.391c-0.191-0.212,0.042-0.807,0.722-1.509c0.672-0.698,1.816-1.464,3.236-1.917
															c1.42-0.45,2.796-0.487,3.748-0.305C253.949,87.087,254.485,87.437,254.45,87.721z"/>
													</g>
												</g>
											</g>
										</g>
										<g>
											<g>
												<g>
													<g>
														<path style="fill:#263238;" d="M273.345,84.758c-0.269,0.541-1.786,0.34-3.499,0.66
															c-1.723,0.26-3.09,0.948-3.522,0.525c-0.193-0.209-0.06-0.723,0.483-1.293c0.534-0.567,1.503-1.137,2.683-1.337
															c1.181-0.198,2.283,0.022,2.973,0.382C273.164,84.055,273.459,84.497,273.345,84.758z"/>
													</g>
												</g>
											</g>
										</g>
									</g>
								</g>
							</g>
						</g>
					</g>
				</g>
			</g>
			<g>
				<path style="fill:#263238;" d="M259.63,75.104c-1.531,3.63-4.77,6.495-8.56,7.57c-2.489,0.706-5.452,0.838-7.027,2.89
					c-1.149,1.498-1.148,3.54-1.417,5.409c-0.409,2.842,0.318,6.122-1.856,7.997c-1.703,1.468-3.297,1.429-4.34,3.42
					c-1.099,2.097-0.835,4.804-0.407,7.132c0.428,2.328,0.967,6.048-0.917,7.481c-1.773-8.444-6.338-17.472-8.11-25.916
					c-0.264-1.257-0.529-2.551-0.311-3.817c0.493-2.86,3.232-4.723,5.829-6.021c7.352-3.677,15.443-5.568,23.449-7.429"/>
			</g>
			<g>
				<g>
					<g>
						<path style="fill:#E8505B;" d="M281.742,77.916c0,0-9.062-19.409-9.687-20.316c-0.625-0.907-8.235-8.675-22.647-8.437
							l-11.488,2.307c0,0-15.257,8.523-17.438,13.093c-2.181,4.569,0.416,24.115,0.416,24.115l30.811-13.474l22.984,0.944
							L281.742,77.916z"/>
					</g>
					<g>
						<path style="fill:#E8505B;" d="M245.179,47.58l3.173-0.637c1.296-0.26,2.636,0.258,3.379,1.352
							c0.504,0.741,1.021,1.752,1.38,3.086c0.948,3.525,6.675,27.866,6.675,27.866l-14.532,2.237l-5.617-30.357l-4.672,2.069
							l-0.099-0.908c-0.06-0.545,0.051-1.095,0.316-1.575l0,0c0.37-0.669,1.009-1.146,1.755-1.311L245.179,47.58z"/>
					</g>
					<g>
						<path style="fill:#455A64;" d="M278.107,80.767l-2.941-6.791l-23.928-2.48l-25.466,13.411l1.602,7.975
							C227.374,92.882,248.325,79.197,278.107,80.767z"/>
					</g>
					<g>
						<path style="fill:#E8505B;" d="M272.54,72.299l1.138,0.733l8.739,4.15c0,0-15.784-2.023-31.261,1.259
							c-15.477,3.281-32.166,12.078-32.166,12.078l9.032-8.243l0,0c2.563-4.147,6.695-7.08,11.454-8.133l19.392-4.29
							C263.57,68.812,268.492,69.693,272.54,72.299z"/>
					</g>
					<g>
						<g>
							<path style="fill:#263238;" d="M280.259,77.908c0.013-0.027-0.181-0.138-0.569-0.327c-0.381-0.21-0.973-0.44-1.76-0.669
								c-1.57-0.463-3.922-0.85-6.839-0.939c-5.818-0.172-13.931,0.599-22.453,3.137c-4.254,1.175-8.353,2.221-11.991,3.507
								c-3.635,1.333-6.77,2.743-9.391,4.037c-1.301,0.658-2.449,1.312-3.428,1.933c-0.981,0.602-1.821,1.256-2.255,2.002
								c-0.442,0.742-0.47,1.449-0.38,1.88c0.097,0.439,0.264,0.618,0.282,0.606c0.086,0.022-0.501-0.955,0.385-2.302
								c0.433-0.644,1.225-1.21,2.222-1.768c0.99-0.573,2.143-1.181,3.446-1.796c2.607-1.202,5.806-2.568,9.382-3.831
								c3.607-1.229,7.69-2.246,11.962-3.426c8.448-2.517,16.454-3.373,22.206-3.362c2.881,0.01,5.2,0.297,6.765,0.65
								C279.419,77.574,280.215,78.007,280.259,77.908z"/>
						</g>
					</g>
				</g>
			</g>
			<g>
				<path style="fill:#263238;" d="M277.046,76.904"/>
				<path style="fill:#263238;" d="M278.009,80.547c2.773,6.191,12.428,14.998,3.174,23.55c0,0-2.924-14.023-5.161-19.225
					c-0.659-1.534-1.419-3.121-2.68-4.215"/>
			</g>
			<path style="fill:#263238;" d="M230.514,92.13c-6.353,0.96-11.191,7.752-10.023,14.069c0.305,1.65,0.958,3.277,0.792,4.946
				c-0.162,1.628-1.084,3.077-1.492,4.661c-0.81,3.144-0.959,8.318,0.107,11.384c2.537,7.297,11.8,16.303,20.189,14.618"/>
			<path style="fill:#263238;" d="M236.724,135.807c1.72,0.426,3.585-0.263,4.882-1.47c1.296-1.207,2.088-2.868,2.592-4.567
				c1.618-5.459,0.359-11.685-3.253-16.087c4.231-7.479,4.356-17.121,0.32-24.707l-11.769,3.48L236.724,135.807z"/>
			<g>
				<path style="fill:#455A64;" d="M217.994,110.475c0.042,0.031-0.536,0.836-1.867,1.678c-1.306,0.832-3.482,1.607-5.898,1.291
					c-2.411-0.291-4.366-1.511-5.413-2.68c-1.078-1.189-1.198-2.242-1.142-2.234c0.083-0.036,0.325,0.927,1.407,1.979
					c1.057,1.042,2.935,2.144,5.212,2.418c2.279,0.297,4.342-0.372,5.65-1.093C217.267,111.108,217.932,110.409,217.994,110.475z"/>
			</g>
			<g>
				<path style="fill:#455A64;" d="M217.102,108.897c0.024,0.052-0.727,0.469-2.074,0.744c-1.334,0.279-3.298,0.34-5.313-0.311
					c-2.016-0.65-3.574-1.848-4.493-2.854c-0.932-1.011-1.297-1.788-1.247-1.816c0.071-0.049,0.541,0.646,1.508,1.556
					c0.956,0.91,2.474,2,4.392,2.619c1.917,0.619,3.785,0.622,5.093,0.443C216.285,109.105,217.073,108.816,217.102,108.897z"/>
			</g>
			<g>
				<path style="fill:#455A64;" d="M242.627,92.22c0.03,0.003,0.029,0.425-0.064,1.183c-0.091,0.757-0.31,1.847-0.752,3.144
					c-0.857,2.577-2.838,6.018-6.241,8.533c-3.408,2.511-7.28,3.39-9.995,3.449c-1.369,0.04-2.475-0.071-3.226-0.208
					c-0.751-0.134-1.155-0.258-1.149-0.287c0.014-0.107,1.669,0.299,4.356,0.128c2.659-0.152,6.401-1.067,9.704-3.501
					c3.298-2.439,5.275-5.745,6.204-8.241C242.421,93.904,242.521,92.202,242.627,92.22z"/>
			</g>
			<g>
				<path style="fill:#455A64;" d="M242.974,109.848c0.022,0.021-0.17,0.282-0.583,0.696c-0.411,0.416-1.071,0.959-1.973,1.499
					c-1.791,1.097-4.656,1.995-7.866,1.987c-3.208-0.01-6.034-0.705-8.03-1.242c-1.001-0.275-1.803-0.522-2.353-0.704
					c-0.551-0.182-0.85-0.3-0.84-0.335c0.02-0.074,1.269,0.22,3.282,0.681c2.011,0.444,4.812,1.07,7.94,1.079
					c3.124,0.006,5.902-0.805,7.686-1.787C242.042,110.755,242.904,109.772,242.974,109.848z"/>
			</g>
			<g>
				<path style="fill:#263238;" d="M282.246,75.903c-0.006,0.017-0.244-0.053-0.692-0.201c-0.495-0.17-1.142-0.393-1.948-0.671
					c-1.74-0.624-4.162-1.494-7.131-2.559l-0.032-0.012l-0.028-0.025c-0.587-0.526-1.201-1.076-1.84-1.648
					c-0.649-0.573-1.268-1.199-2.059-1.621c-0.782-0.435-1.682-0.721-2.63-0.803c-0.946-0.107-1.922,0.114-2.954,0.271
					c-4.087,0.686-8.548,1.639-13.209,2.717c-4.338,1.007-8.472,2.032-12.254,3.004c-0.962,0.23-1.836,0.475-2.607,0.961
					c-0.769,0.465-1.418,1.077-1.917,1.764c-0.924,1.444-1.745,2.91-2.529,4.201l-0.022,0.035l-0.029,0.022
					c-2.885,2.134-5.24,3.877-6.927,5.124c-0.792,0.571-1.426,1.028-1.905,1.374c-0.439,0.309-0.676,0.465-0.688,0.449
					c-0.012-0.016,0.202-0.201,0.62-0.539c0.464-0.367,1.076-0.851,1.842-1.457c1.661-1.281,3.981-3.071,6.823-5.262l-0.051,0.057
					c0.776-1.317,1.548-2.742,2.504-4.263c0.526-0.738,1.214-1.399,2.034-1.903c0.808-0.524,1.796-0.806,2.728-1.033
					c3.78-0.995,7.915-2.033,12.259-3.041c4.668-1.079,9.14-2.02,13.25-2.684c1.015-0.147,2.046-0.374,3.073-0.254
					c1.013,0.096,1.972,0.41,2.8,0.882c0.845,0.464,1.491,1.133,2.118,1.7c0.631,0.58,1.237,1.138,1.818,1.672l-0.06-0.036
					c2.945,1.13,5.347,2.052,7.073,2.715c0.792,0.316,1.428,0.569,1.914,0.763C282.027,75.784,282.253,75.886,282.246,75.903z"/>
			</g>
			<g>
				<path style="fill:#263238;" d="M243.583,72.535c-0.035,0.007-0.135-0.346-0.285-0.989c-0.15-0.643-0.351-1.576-0.588-2.732
					c-0.474-2.311-1.093-5.51-1.746-9.049c-0.318-1.764-0.62-3.444-0.9-4.993c-0.132-0.761-0.258-1.49-0.378-2.182
					c-0.071-0.594-0.703-0.918-1.173-0.759c-1,0.405-1.857,0.752-2.572,1.042c-0.616,0.239-0.963,0.355-0.978,0.322
					c-0.015-0.033,0.305-0.212,0.895-0.507c0.6-0.296,1.431-0.707,2.541-1.207c0.646-0.26,1.584,0.187,1.711,1.032
					c0.135,0.689,0.277,1.415,0.425,2.173c0.292,1.547,0.608,3.225,0.94,4.986c0.652,3.539,1.214,6.748,1.596,9.076
					c0.191,1.164,0.336,2.108,0.425,2.762C243.586,72.164,243.619,72.529,243.583,72.535z"/>
			</g>
			<g>
				<path style="fill:#263238;" d="M257.465,69.455c-0.065,0.021-0.496-1.073-1.041-2.893c-0.551-1.817-1.188-4.361-1.85-7.172
					c-0.666-2.813-1.241-5.366-1.631-7.22c-0.391-1.854-0.597-3.009-0.527-3.025c0.07-0.016,0.403,1.108,0.885,2.94
					c0.482,1.832,1.114,4.372,1.78,7.185c0.644,2.729,1.227,5.197,1.699,7.195C257.231,68.301,257.537,69.432,257.465,69.455z"/>
			</g>
			<g>
				<path style="fill:#263238;" d="M282.015,109.643c-0.028-0.128,2.456,0.162,5.937-1.425c1.703-0.779,3.687-2.016,5.131-4.031
					c1.446-1.989,1.893-4.916,1.252-7.679c-0.637-2.792-2.385-5.123-4.513-6.377c-2.141-1.266-4.385-1.838-6.124-2.677
					c-1.759-0.804-3.025-1.8-3.708-2.645c-0.35-0.417-0.556-0.787-0.692-1.035c-0.12-0.259-0.174-0.397-0.158-0.405
					c0.044-0.025,0.286,0.528,1.002,1.306c0.711,0.78,1.965,1.696,3.707,2.443c1.723,0.783,3.973,1.309,6.219,2.601
					c2.251,1.294,4.11,3.749,4.773,6.67c0.669,2.898,0.195,5.96-1.368,8.075c-1.547,2.106-3.612,3.333-5.374,4.09
					c-1.782,0.765-3.343,1.041-4.415,1.124c-0.539,0.034-0.957,0.043-1.24,0.015C282.161,109.678,282.014,109.661,282.015,109.643z"
					/>
			</g>
			<g>
				<path style="fill:#263238;" d="M207.147,105.659c-0.013,0.013-0.09-0.045-0.227-0.17c-0.144-0.118-0.326-0.321-0.546-0.599
					c-0.431-0.557-0.927-1.49-1.138-2.753c-0.191-1.247-0.079-2.859,0.796-4.344c0.852-1.499,2.572-2.627,4.515-2.922
					c1.943-0.293,3.921,0.275,5.178,1.455c1.276,1.16,1.859,2.667,2.045,3.915c0.171,1.268-0.027,2.307-0.273,2.966
					c-0.127,0.33-0.241,0.578-0.344,0.734c-0.094,0.159-0.151,0.238-0.167,0.229c-0.047-0.024,0.14-0.364,0.318-1.023
					c0.18-0.655,0.31-1.653,0.103-2.846c-0.221-1.175-0.811-2.57-2.001-3.616c-1.166-1.061-2.977-1.568-4.782-1.299
					c-1.802,0.277-3.382,1.298-4.182,2.655c-0.827,1.351-0.978,2.857-0.842,4.045c0.155,1.201,0.574,2.116,0.94,2.688
					C206.906,105.353,207.185,105.622,207.147,105.659z"/>
			</g>
			<g>
				<path style="fill:#263238;" d="M238.27,140.201c0.004,0.017-0.14,0.069-0.419,0.151c-0.279,0.084-0.694,0.19-1.231,0.319
					c-1.076,0.242-2.65,0.575-4.635,0.69c-1.969,0.108-4.418-0.01-6.875-1.065c-2.464-1.031-4.702-3.142-6.177-5.816
					c-1.485-2.681-2.087-5.623-2.089-8.252c-0.016-2.642,0.479-4.984,1.027-6.883c0.558-1.903,1.183-3.382,1.642-4.386
					c0.232-0.502,0.421-0.886,0.56-1.142c0.136-0.257,0.216-0.388,0.232-0.38c0.038,0.018-0.204,0.578-0.605,1.602
					c-0.4,1.023-0.968,2.512-1.474,4.405c-0.497,1.89-0.945,4.199-0.902,6.779c0.028,2.568,0.628,5.408,2.065,8.005
					c1.428,2.587,3.564,4.618,5.914,5.629c2.348,1.037,4.726,1.197,6.666,1.136c1.955-0.067,3.528-0.34,4.611-0.521
					C237.662,140.279,238.261,140.162,238.27,140.201z"/>
			</g>
			<g>
				<path style="fill:#263238;" d="M216.935,115.508c0.017,0.006-0.026,0.168-0.124,0.476c-0.105,0.305-0.303,0.743-0.637,1.262
					c-0.674,1.009-2.03,2.362-4.189,2.981c-1.061,0.318-2.319,0.422-3.608,0.163c-1.289-0.25-2.595-0.852-3.755-1.757
					c-1.153-0.913-2.167-2.127-2.862-3.575c-0.693-1.447-1.051-3.104-1.062-4.795c-0.011-3.393,1.244-6.555,3.12-8.798
					c1.859-2.27,4.5-3.513,6.743-3.418c2.244,0.045,3.918,1.007,4.773,1.88c0.884,0.878,1.068,1.567,1.068,1.567
					c-0.056,0.037-0.311-0.619-1.206-1.419c-0.866-0.798-2.498-1.664-4.637-1.66c-2.127-0.042-4.602,1.162-6.372,3.356
					c-1.782,2.168-2.981,5.232-2.969,8.488c0.01,1.622,0.351,3.204,1.002,4.58c0.653,1.376,1.61,2.54,2.699,3.418
					c1.096,0.872,2.328,1.456,3.544,1.711c1.216,0.262,2.4,0.187,3.422-0.095c2.074-0.545,3.418-1.8,4.122-2.743
					C216.711,116.156,216.879,115.485,216.935,115.508z"/>
			</g>
		</g>
	</g>
	<g>
		<g>
			<g>
				<g>
					<g>
						<g>
							<g>
								<g>
									<g>
										<g>
											<path style="fill:#455A64;" d="M502.764,458.082H177.307c-8.045,0-14.567-6.522-14.567-14.567V238.161
												c0-8.045,6.522-14.567,14.567-14.567h325.457c8.045,0,14.567,6.522,14.567,14.567v205.354
												C517.332,451.56,510.81,458.082,502.764,458.082z"/>
										</g>
									</g>
								</g>
							</g>
							<g>
								<g>
									<g>
										<g>
											<path style="fill:#455A64;" d="M515.257,463.456H166.679c-9.829,0-17.798-7.968-17.798-17.798v-2.72h384.173v2.72
												C533.055,455.488,525.087,463.456,515.257,463.456z"/>
										</g>
									</g>
								</g>
							</g>
							<g>
								<g>
									<g>
										<g>
											<rect x="172.258" y="232.91" style="fill:#263238;" width="334.564" height="198.022"/>
										</g>
									</g>
								</g>
							</g>
							<g>
								<g>
									<g>
										<g>
											<polygon style="fill:#263238;" points="305.08,440.739 309.848,448.322 376.929,448.322 381.356,440.739 											"/>
										</g>
									</g>
								</g>
							</g>
						</g>
						<g>
							<g>
								<g>
									<g>
										<g>
											<g>
												<g>
													<g>
														<path style="fill:#EBEBEB;" d="M497.347,430.299H182.423c-1.808,0-3.273-1.466-3.273-3.273V242.887
															c0-1.808,1.465-3.273,3.273-3.273h314.925c1.807,0,3.272,1.465,3.272,3.272v184.139
															C500.619,428.833,499.154,430.299,497.347,430.299z"/>
													</g>
												</g>
											</g>
										</g>
									</g>
									<g>
										<g>
											<g>
												<g>
													<g>
														<polygon style="fill:#FAFAFA;" points="500.275,430.578 178.805,430.578 179.149,253.865 500.275,253.865 
																													"/>
													</g>
												</g>
											</g>
										</g>
									</g>
									<g>
										<g>
											<g>
												<g>
													<g>
														<path style="fill:#263238;" d="M205.515,246.978c0,1.418-1.149,2.568-2.567,2.568c-1.418,0-2.567-1.15-2.567-2.568
															c0-1.418,1.149-2.567,2.567-2.567C204.365,244.411,205.515,245.56,205.515,246.978z"/>
													</g>
												</g>
											</g>
										</g>
									</g>
									<g>
										<g>
											<g>
												<g>
													<g>
														<path style="fill:#263238;" d="M189.954,246.978c0,1.418-1.149,2.568-2.568,2.568c-1.417,0-2.567-1.15-2.567-2.568
															c0-1.418,1.15-2.567,2.567-2.567C188.805,244.411,189.954,245.56,189.954,246.978z"/>
													</g>
												</g>
											</g>
										</g>
									</g>
									<g>
										<g>
											<g>
												<g>
													<g>
														<path style="fill:#263238;" d="M197.423,246.978c0,1.418-1.149,2.568-2.567,2.568c-1.418,0-2.567-1.15-2.567-2.568
															c0-1.418,1.149-2.567,2.567-2.567C196.274,244.411,197.423,245.56,197.423,246.978z"/>
													</g>
												</g>
											</g>
										</g>
									</g>
								</g>
							</g>
						</g>
						<g>
							<g>
								<g>
									<g>
										<path style="fill:#263238;" d="M514.285,440.739c0,0.127-78.702,0.23-175.764,0.23c-97.095,0-175.781-0.103-175.781-0.23
											c0-0.127,78.685-0.229,175.781-0.229C435.582,440.51,514.285,440.613,514.285,440.739z"/>
									</g>
								</g>
							</g>
						</g>
					</g>
				</g>
			</g>
		</g>
		<g>
			<path style="fill:#E0E0E0;" d="M380.921,396.089c0,0.144-19.28,0.26-43.059,0.26c-23.786,0-43.063-0.117-43.063-0.26
				s19.276-0.26,43.063-0.26C361.641,395.829,380.921,395.945,380.921,396.089z"/>
		</g>
		<g>
			<g>
				<g>
					<g>
						<rect x="186.583" y="350.803" style="fill:#F5F5F5;" width="95.931" height="72.103"/>
					</g>
				</g>
			</g>
			<g>
				<g>
					<g>
						<polygon style="fill:#E0E0E0;" points="186.616,422.949 220.082,378.101 240.862,406.123 254.926,391.12 282.546,422.864 
													"/>
					</g>
				</g>
			</g>
			<g>
				<g>
					<g>
						<g>
							<g>
								<path style="fill:#E0E0E0;" d="M249.643,372.584c0.004,4.172-3.375,7.556-7.547,7.56c-4.172,0.004-7.557-3.375-7.56-7.547
									c-0.004-4.172,3.375-7.556,7.547-7.56C246.254,365.034,249.639,368.412,249.643,372.584z"/>
							</g>
						</g>
					</g>
				</g>
			</g>
		</g>
		<g>
			<g>
				<g>
					<g>
						<rect x="393.57" y="350.91" style="fill:#F5F5F5;" width="95.931" height="72.103"/>
					</g>
				</g>
			</g>
			<g>
				<g>
					<g>
						<polygon style="fill:#E0E0E0;" points="393.602,423.056 427.068,378.208 447.849,406.23 461.913,391.227 489.533,422.971 
													"/>
					</g>
				</g>
			</g>
			<g>
				<g>
					<g>
						<g>
							<g>
								<path style="fill:#E0E0E0;" d="M456.629,372.691c0.004,4.172-3.375,7.557-7.547,7.56c-4.172,0.004-7.556-3.375-7.56-7.547
									c-0.004-4.172,3.375-7.556,7.547-7.56C453.241,365.141,456.625,368.519,456.629,372.691z"/>
							</g>
						</g>
					</g>
				</g>
			</g>
		</g>
		<g>
			<g>
				<path style="fill:#E0E0E0;" d="M474.322,336.58c0-0.072,1.028-0.137,2.689-0.184c1.661-0.047,3.956-0.076,6.491-0.076
					c0.986,0.004,1.934,0.009,2.821,0.013l-0.248,0.248c0.017-1.849,0.05-3.439,0.093-4.567c0.043-1.127,0.097-1.793,0.155-1.793
					c0.058,0,0.111,0.665,0.154,1.793c0.043,1.127,0.076,2.717,0.093,4.567l0.002,0.247l-0.25,0.001
					c-0.887,0.004-1.835,0.008-2.821,0.013c-2.535,0-4.829-0.029-6.491-0.076C475.35,336.717,474.322,336.652,474.322,336.58z"/>
			</g>
			<g>
				<path style="fill:#E0E0E0;" d="M450.322,336.58c0-0.144,2.686-0.26,6-0.26c3.314,0,6,0.116,6,0.26c0,0.144-2.686,0.26-6,0.26
					C453.008,336.841,450.322,336.724,450.322,336.58z"/>
			</g>
			<g>
				<path style="fill:#E0E0E0;" d="M426.322,336.58c0-0.144,2.686-0.26,6-0.26c3.314,0,6,0.116,6,0.26c0,0.144-2.686,0.26-6,0.26
					C429.008,336.841,426.322,336.724,426.322,336.58z"/>
			</g>
			<g>
				<path style="fill:#E0E0E0;" d="M402.322,336.58c0-0.144,2.686-0.26,6-0.26c3.314,0,6,0.116,6,0.26c0,0.144-2.686,0.26-6,0.26
					C405.008,336.841,402.322,336.724,402.322,336.58z"/>
			</g>
			<g>
				<path style="fill:#E0E0E0;" d="M378.322,336.58c0-0.144,2.686-0.26,6-0.26c3.314,0,6,0.116,6,0.26c0,0.144-2.686,0.26-6,0.26
					C381.008,336.841,378.322,336.724,378.322,336.58z"/>
			</g>
			<g>
				<path style="fill:#E0E0E0;" d="M354.322,336.58c0-0.144,2.686-0.26,6-0.26c3.314,0,6,0.116,6,0.26c0,0.144-2.686,0.26-6,0.26
					C357.008,336.841,354.322,336.724,354.322,336.58z"/>
			</g>
			<g>
				<path style="fill:#E0E0E0;" d="M330.322,336.58c0-0.144,2.686-0.26,6-0.26c3.314,0,6,0.116,6,0.26c0,0.144-2.686,0.26-6,0.26
					C333.008,336.841,330.322,336.724,330.322,336.58z"/>
			</g>
			<g>
				<path style="fill:#E0E0E0;" d="M306.322,336.58c0-0.144,2.686-0.26,6-0.26c3.314,0,6,0.116,6,0.26c0,0.144-2.686,0.26-6,0.26
					C309.008,336.841,306.322,336.724,306.322,336.58z"/>
			</g>
			<g>
				<path style="fill:#E0E0E0;" d="M282.322,336.58c0-0.144,2.686-0.26,6-0.26c3.314,0,6,0.116,6,0.26c0,0.144-2.686,0.26-6,0.26
					C285.008,336.841,282.322,336.724,282.322,336.58z"/>
			</g>
			<g>
				<path style="fill:#E0E0E0;" d="M258.322,336.58c0-0.144,2.686-0.26,6-0.26c3.314,0,6,0.116,6,0.26c0,0.144-2.686,0.26-6,0.26
					C261.008,336.841,258.322,336.724,258.322,336.58z"/>
			</g>
			<g>
				<path style="fill:#E0E0E0;" d="M234.322,336.58c0-0.144,2.686-0.26,6-0.26c3.314,0,6,0.116,6,0.26c0,0.144-2.686,0.26-6,0.26
					C237.008,336.841,234.322,336.724,234.322,336.58z"/>
			</g>
			<g>
				<path style="fill:#E0E0E0;" d="M210.322,336.58c0-0.144,2.686-0.26,6-0.26c3.314,0,6,0.116,6,0.26c0,0.144-2.686,0.26-6,0.26
					C213.008,336.841,210.322,336.724,210.322,336.58z"/>
			</g>
			<g>
				<path style="fill:#E0E0E0;" d="M186.337,336.566c0,0,0.004,0.001,0.006,0.014l-0.006-0.006c0.066-0.141,2.722-0.254,5.985-0.254
					c3.314,0,6,0.116,6,0.26c0,0.144-2.686,0.26-6,0.26c-3.264,0-5.919-0.113-5.985-0.254l-0.007-0.007
					C186.332,336.566,186.337,336.566,186.337,336.566z"/>
			</g>
			<g>
				<path style="fill:#E0E0E0;" d="M186.337,312.566c0.144,0,0.26,2.686,0.26,6c0,3.314-0.117,6-0.26,6c-0.144,0-0.26-2.686-0.26-6
					C186.076,315.252,186.193,312.566,186.337,312.566z"/>
			</g>
			<g>
				<path style="fill:#E0E0E0;" d="M186.337,288.566c0.144,0,0.26,2.686,0.26,6c0,3.314-0.117,6-0.26,6c-0.144,0-0.26-2.686-0.26-6
					C186.076,291.252,186.193,288.566,186.337,288.566z"/>
			</g>
			<g>
				<path style="fill:#E0E0E0;" d="M186.337,264.566c0.144,0,0.26,2.686,0.26,6c0,3.314-0.117,6-0.26,6c-0.144,0-0.26-2.686-0.26-6
					C186.076,267.252,186.193,264.566,186.337,264.566z"/>
			</g>
			<g>
				<path style="fill:#E0E0E0;" d="M207.157,261.386c0,0.144-2.686,0.26-6,0.26c-3.314,0-6-0.117-6-0.26s2.686-0.26,6-0.26
					C204.47,261.126,207.157,261.242,207.157,261.386z"/>
			</g>
			<g>
				<path style="fill:#E0E0E0;" d="M231.157,261.386c0,0.144-2.686,0.26-6,0.26c-3.314,0-6-0.117-6-0.26s2.686-0.26,6-0.26
					C228.47,261.126,231.157,261.242,231.157,261.386z"/>
			</g>
			<g>
				<path style="fill:#E0E0E0;" d="M255.157,261.386c0,0.144-2.686,0.26-6,0.26c-3.314,0-6-0.117-6-0.26s2.686-0.26,6-0.26
					C252.47,261.126,255.157,261.242,255.157,261.386z"/>
			</g>
			<g>
				<path style="fill:#E0E0E0;" d="M279.157,261.386c0,0.144-2.686,0.26-6,0.26c-3.314,0-6-0.117-6-0.26s2.686-0.26,6-0.26
					C276.47,261.126,279.157,261.242,279.157,261.386z"/>
			</g>
			<g>
				<path style="fill:#E0E0E0;" d="M303.157,261.386c0,0.144-2.686,0.26-6,0.26c-3.314,0-6-0.117-6-0.26s2.686-0.26,6-0.26
					C300.47,261.126,303.157,261.242,303.157,261.386z"/>
			</g>
			<g>
				<path style="fill:#E0E0E0;" d="M327.157,261.386c0,0.144-2.686,0.26-6,0.26c-3.314,0-6-0.117-6-0.26s2.686-0.26,6-0.26
					C324.47,261.126,327.157,261.242,327.157,261.386z"/>
			</g>
			<g>
				<path style="fill:#E0E0E0;" d="M351.157,261.386c0,0.144-2.686,0.26-6,0.26c-3.314,0-6-0.117-6-0.26s2.686-0.26,6-0.26
					C348.47,261.126,351.157,261.242,351.157,261.386z"/>
			</g>
			<g>
				<path style="fill:#E0E0E0;" d="M375.157,261.386c0,0.144-2.686,0.26-6,0.26c-3.314,0-6-0.117-6-0.26s2.686-0.26,6-0.26
					C372.47,261.126,375.157,261.242,375.157,261.386z"/>
			</g>
			<g>
				<path style="fill:#E0E0E0;" d="M399.157,261.386c0,0.144-2.686,0.26-6,0.26c-3.314,0-6-0.117-6-0.26s2.686-0.26,6-0.26
					C396.47,261.126,399.157,261.242,399.157,261.386z"/>
			</g>
			<g>
				<path style="fill:#E0E0E0;" d="M423.157,261.386c0,0.144-2.686,0.26-6,0.26c-3.314,0-6-0.117-6-0.26s2.686-0.26,6-0.26
					C420.47,261.126,423.157,261.242,423.157,261.386z"/>
			</g>
			<g>
				<path style="fill:#E0E0E0;" d="M447.157,261.386c0,0.144-2.686,0.26-6,0.26c-3.314,0-6-0.117-6-0.26s2.686-0.26,6-0.26
					C444.47,261.126,447.157,261.242,447.157,261.386z"/>
			</g>
			<g>
				<path style="fill:#E0E0E0;" d="M471.157,261.386c0,0.144-2.686,0.26-6,0.26c-3.314,0-6-0.117-6-0.26s2.686-0.26,6-0.26
					C468.47,261.126,471.157,261.242,471.157,261.386z"/>
			</g>
			<g>
				<path style="fill:#E0E0E0;" d="M486.322,270.221c-0.144,0-0.26-2.686-0.26-6c0.011-0.999,0.021-1.941,0.031-2.835l0.229,0.229
					c-1.891-0.044-3.165-0.13-3.165-0.229s1.274-0.185,3.165-0.229l0.227-0.005l0.003,0.235c0.01,0.894,0.02,1.836,0.031,2.835
					C486.582,267.535,486.466,270.221,486.322,270.221z"/>
			</g>
			<g>
				<path style="fill:#E0E0E0;" d="M486.322,294.221c-0.144,0-0.26-2.686-0.26-6c0-3.314,0.117-6,0.26-6c0.144,0,0.26,2.686,0.26,6
					C486.582,291.535,486.466,294.221,486.322,294.221z"/>
			</g>
			<g>
				<path style="fill:#E0E0E0;" d="M486.322,318.221c-0.144,0-0.26-2.686-0.26-6c0-3.314,0.117-6,0.26-6c0.144,0,0.26,2.686,0.26,6
					C486.582,315.535,486.466,318.221,486.322,318.221z"/>
			</g>
		</g>
		<g>
			<path style="fill:#E0E0E0;" d="M380.921,420.404c0,0.144-19.28,0.26-43.059,0.26c-23.786,0-43.063-0.117-43.063-0.26
				c0-0.144,19.276-0.26,43.063-0.26C361.641,420.143,380.921,420.26,380.921,420.404z"/>
		</g>
		<g>
			<path style="fill:#E0E0E0;" d="M380.921,409.279c0,0.144-19.28,0.26-43.059,0.26c-23.786,0-43.063-0.117-43.063-0.26
				c0-0.144,19.276-0.26,43.063-0.26C361.641,409.019,380.921,409.135,380.921,409.279z"/>
		</g>
	</g>
</g>
<g id="Sign">
	<g>
		<rect x="111.984" y="323.526" style="fill:#263238;" width="5.181" height="139.729"/>
		<g>
			<g>
				<g>
					<circle style="fill:#E8505B;" cx="114.574" cy="298.392" r="30.124"/>
				</g>
			</g>
			<g>
				<path style="fill:#FFFFFF;" d="M141.688,298.023c-0.009,0-0.025-0.149-0.049-0.439c-0.022-0.313-0.052-0.74-0.091-1.286
					c-0.018-0.285-0.038-0.6-0.06-0.947c-0.038-0.347-0.113-0.722-0.176-1.131c-0.131-0.817-0.256-1.764-0.571-2.793
					c-0.481-2.09-1.465-4.56-3.011-7.176c-1.559-2.605-3.806-5.326-6.863-7.634c-3.047-2.286-6.892-4.231-11.329-5.016
					c-4.407-0.757-9.381-0.619-14.119,1.181c-1.205,0.386-2.339,0.983-3.504,1.542c-0.567,0.308-1.111,0.667-1.673,1
					c-0.572,0.319-1.096,0.716-1.621,1.118c-1.092,0.75-2.047,1.688-3.047,2.591c-0.903,1-1.853,1.979-2.631,3.114
					c-1.599,2.22-2.994,4.687-3.839,7.399c-0.875,2.696-1.347,5.559-1.386,8.473c0.038,2.915,0.509,5.779,1.384,8.476
					c0.844,2.714,2.24,5.181,3.839,7.402c0.779,1.135,1.728,2.115,2.632,3.115c1,0.903,1.955,1.842,3.047,2.592
					c0.525,0.401,1.049,0.799,1.621,1.118c0.562,0.333,1.106,0.692,1.673,1c1.165,0.559,2.299,1.156,3.504,1.542
					c4.738,1.8,9.713,1.938,14.12,1.181c4.437-0.785,8.282-2.73,11.329-5.016c3.057-2.308,5.303-5.029,6.862-7.635
					c1.546-2.616,2.529-5.085,3.011-7.176c0.314-1.029,0.439-1.976,0.571-2.793c0.062-0.409,0.138-0.784,0.175-1.131
					c0.022-0.346,0.042-0.662,0.06-0.947c0.039-0.546,0.069-0.973,0.091-1.286C141.663,298.172,141.679,298.023,141.688,298.023
					c0.009,0,0.01,0.149,0.004,0.44c-0.01,0.314-0.023,0.743-0.039,1.292c-0.011,0.287-0.023,0.604-0.036,0.953
					c-0.03,0.349-0.097,0.728-0.152,1.14c-0.116,0.824-0.226,1.78-0.527,2.821c-0.455,2.113-1.418,4.616-2.957,7.275
					c-1.552,2.647-3.805,5.419-6.889,7.778c-3.074,2.337-6.968,4.332-11.473,5.148c-4.474,0.789-9.534,0.665-14.363-1.154
					c-1.228-0.391-2.384-0.994-3.571-1.562c-0.578-0.312-1.133-0.676-1.706-1.015c-0.583-0.324-1.118-0.728-1.653-1.135
					c-1.113-0.763-2.088-1.715-3.108-2.635c-0.923-1.017-1.89-2.014-2.686-3.169c-1.632-2.261-3.056-4.775-3.919-7.54
					c-0.894-2.749-1.374-5.669-1.413-8.639c0.039-2.969,0.52-5.889,1.415-8.636c0.864-2.764,2.287-5.278,3.919-7.538
					c0.795-1.155,1.763-2.152,2.686-3.169c1.019-0.919,1.994-1.872,3.107-2.634c0.536-0.408,1.07-0.811,1.653-1.135
					c0.573-0.339,1.127-0.702,1.706-1.014c1.187-0.568,2.343-1.171,3.571-1.561c4.828-1.819,9.887-1.943,14.362-1.154
					c4.505,0.816,8.399,2.81,11.473,5.147c3.084,2.359,5.338,5.13,6.89,7.778c1.54,2.659,2.503,5.162,2.958,7.276
					c0.301,1.041,0.412,1.997,0.528,2.821c0.054,0.412,0.122,0.791,0.152,1.14c0.013,0.349,0.025,0.666,0.036,0.953
					c0.017,0.549,0.03,0.977,0.039,1.292C141.699,297.874,141.697,298.023,141.688,298.023z"/>
			</g>
			<rect x="98.89" y="294.626" style="fill:#FAFAFA;" width="31.368" height="6.544"/>
		</g>
	</g>
</g>
<g id="Crane">
	<g>
		<g>
			<g>
				<g>
					<g>
						
							<rect x="227.974" y="271.383" transform="matrix(0.9968 -0.0801 0.0801 0.9968 -23.9525 31.0553)" style="fill:#FFFFFF;" width="294.339" height="85.449"/>
						<g>
							<path style="fill:#263238;" d="M525.262,344.908c-0.101-1.232-2.591-31.485-7.007-85.161l0.176,0.15
								c-68.097,5.494-174.319,14.064-293.367,23.669l-0.018,0.001l0.239-0.28c2.36,29.402,4.657,58.02,6.837,85.175l-0.273-0.232
								c84.085-6.71,157.403-12.56,209.707-16.734C493.859,347.38,524.03,345.005,525.262,344.908c0,0-0.477,0.049-1.429,0.131
								c-0.96,0.081-2.379,0.2-4.243,0.357c-3.75,0.309-9.284,0.765-16.448,1.355c-14.36,1.171-35.248,2.874-61.388,5.005
								c-52.344,4.235-125.716,10.171-209.864,16.979l-0.253,0.02l-0.02-0.253c-2.184-27.155-4.486-55.772-6.85-85.174l-0.021-0.26
								l0.26-0.021l0.018-0.001c119.054-9.527,225.282-18.027,293.382-23.476l0.163-0.013l0.013,0.163
								C522.792,313.414,525.165,343.676,525.262,344.908z"/>
						</g>
					</g>
					<g>
						<g>
							<g>
								<g>
									
										<rect x="235.095" y="287.674" transform="matrix(0.9975 -0.071 0.071 0.9975 -22.1769 20.7848)" style="fill:#E8505B;" width="92.649" height="69.637"/>
								</g>
							</g>
						</g>
						<g>
							<g>
								<g>
									<g>
										<g>
											<path style="fill:#E0E0E0;" d="M440.821,344.879c0.012,0.143-2.655,0.486-5.957,0.764
												c-0.563-0.475-0.156-0.133-0.282-0.24l0-0.002l0-0.005l-0.001-0.01l-0.002-0.019l-0.003-0.039l-0.006-0.077l-0.013-0.153
												l-0.025-0.304c-0.015-0.2-0.031-0.398-0.046-0.594c-0.027-0.382-0.053-0.755-0.08-1.124
												c-0.036-0.656-0.071-1.289-0.105-1.905c-0.044-1.086-0.036-1.76,0.036-1.766c0.072-0.006,0.193,0.658,0.331,1.736
												c0.07,0.613,0.142,1.243,0.216,1.896c0.036,0.367,0.072,0.74,0.11,1.121c0.018,0.196,0.036,0.394,0.054,0.593
												l0.027,0.304l0.013,0.153l0.007,0.077l0.003,0.039l0.002,0.019l0.001,0.01l0,0.005l0,0.002
												c-0.125-0.105,0.281,0.239-0.281-0.235C438.122,344.846,440.809,344.736,440.821,344.879z"/>
										</g>
										<g>
											<path style="fill:#E0E0E0;" d="M467.961,342.588c0.012,0.143-3.016,0.516-6.763,0.832
												c-3.748,0.316-6.795,0.457-6.807,0.313c-0.012-0.143,3.015-0.516,6.763-0.832
												C464.901,342.585,467.948,342.444,467.961,342.588z"/>
										</g>
										<g>
											<path style="fill:#E0E0E0;" d="M495.1,340.296c0.012,0.143-3.016,0.516-6.763,0.832
												c-3.748,0.316-6.795,0.457-6.807,0.313c-0.012-0.143,3.015-0.516,6.763-0.832
												C492.04,340.293,495.088,340.153,495.1,340.296z"/>
										</g>
										<g>
											<path style="fill:#E0E0E0;" d="M514.143,332.667c0.143-0.012,0.486,2.655,0.764,5.957
												c-0.475,0.563-0.133,0.156-0.24,0.282l-0.002,0l-0.005,0l-0.01,0.001l-0.019,0.002l-0.039,0.003l-0.077,0.006
												l-0.153,0.013l-0.304,0.025c-0.2,0.016-0.398,0.031-0.594,0.046c-0.382,0.027-0.755,0.054-1.124,0.08
												c-0.656,0.036-1.289,0.071-1.905,0.105c-1.086,0.044-1.76,0.036-1.767-0.036c-0.006-0.072,0.658-0.193,1.736-0.331
												c0.613-0.07,1.243-0.142,1.896-0.216c0.367-0.036,0.74-0.073,1.121-0.11c0.196-0.018,0.393-0.036,0.593-0.054
												l0.304-0.027l0.153-0.013l0.077-0.007l0.039-0.003l0.019-0.002l0.01-0.001l0.005-0.001l0.002,0
												c-0.105,0.125,0.239-0.281-0.235,0.281C514.11,335.366,514,332.679,514.143,332.667z"/>
										</g>
										<g>
											<path style="fill:#E0E0E0;" d="M512.253,310.282c0.143-0.012,0.471,2.484,0.732,5.574
												c0.261,3.091,0.356,5.606,0.213,5.618c-0.143,0.012-0.471-2.483-0.732-5.575
												C512.206,312.809,512.11,310.294,512.253,310.282z"/>
										</g>
										<g>
											<path style="fill:#E0E0E0;" d="M510.363,287.897c0.143-0.012,0.471,2.484,0.732,5.574
												c0.261,3.091,0.356,5.606,0.213,5.618c-0.143,0.012-0.471-2.483-0.732-5.575
												C510.315,290.424,510.22,287.909,510.363,287.897z"/>
										</g>
										<g>
											<path style="fill:#E0E0E0;" d="M502.935,271.23c-0.012-0.143,2.655-0.486,5.956-0.764
												c0.563,0.475,0.156,0.133,0.282,0.24l0,0.002l0,0.005l0.001,0.01l0.002,0.019l0.003,0.039l0.006,0.077l0.013,0.154
												l0.025,0.304c0.016,0.2,0.031,0.398,0.046,0.594c0.027,0.382,0.054,0.755,0.08,1.124
												c0.036,0.656,0.071,1.289,0.105,1.905c0.044,1.086,0.036,1.76-0.036,1.767c-0.072,0.006-0.193-0.658-0.331-1.736
												c-0.07-0.613-0.142-1.243-0.216-1.896c-0.036-0.367-0.073-0.74-0.11-1.121c-0.018-0.196-0.036-0.393-0.054-0.593
												l-0.027-0.304l-0.013-0.153l-0.007-0.077l-0.003-0.039l-0.002-0.019l-0.001-0.01l-0.001-0.005l0-0.003
												c0.125,0.105-0.281-0.239,0.281,0.236C505.633,271.264,502.947,271.374,502.935,271.23z"/>
										</g>
										<g>
											<path style="fill:#E0E0E0;" d="M475.795,273.522c-0.012-0.143,3.016-0.516,6.763-0.833
												c3.748-0.316,6.795-0.457,6.807-0.313c0.012,0.143-3.015,0.516-6.763,0.832
												C478.855,273.525,475.807,273.665,475.795,273.522z"/>
										</g>
										<g>
											<path style="fill:#E0E0E0;" d="M448.656,275.814c-0.012-0.143,3.016-0.516,6.763-0.832
												c3.748-0.316,6.795-0.457,6.807-0.314c0.012,0.143-3.015,0.516-6.763,0.832
												C451.715,275.817,448.668,275.957,448.656,275.814z"/>
										</g>
										<g>
											<path style="fill:#E0E0E0;" d="M429.612,283.444c-0.143,0.012-0.486-2.655-0.764-5.957
												c0.475-0.563,0.133-0.156,0.24-0.282l0.002,0l0.005,0l0.01-0.001l0.019-0.002l0.039-0.003l0.077-0.006l0.153-0.013
												l0.304-0.025c0.2-0.016,0.398-0.031,0.594-0.046c0.382-0.027,0.755-0.053,1.124-0.08
												c0.656-0.036,1.289-0.071,1.905-0.105c1.086-0.044,1.76-0.036,1.767,0.036c0.006,0.072-0.658,0.193-1.736,0.331
												c-0.613,0.07-1.243,0.142-1.896,0.216c-0.367,0.036-0.74,0.073-1.121,0.11c-0.196,0.018-0.393,0.036-0.593,0.054
												l-0.304,0.027l-0.153,0.013l-0.077,0.007l-0.039,0.003l-0.019,0.002l-0.01,0.001l-0.005,0l-0.002,0
												c0.105-0.125-0.239,0.281,0.235-0.281C429.645,280.745,429.755,283.431,429.612,283.444z"/>
										</g>
										<g>
											<path style="fill:#E0E0E0;" d="M431.502,305.828c-0.143,0.012-0.471-2.484-0.732-5.574
												c-0.261-3.091-0.356-5.606-0.213-5.618c0.143-0.012,0.471,2.483,0.732,5.575
												C431.55,303.301,431.646,305.816,431.502,305.828z"/>
										</g>
										<g>
											<path style="fill:#E0E0E0;" d="M433.393,328.213c-0.143,0.012-0.471-2.484-0.732-5.574
												c-0.261-3.091-0.356-5.606-0.213-5.618c0.143-0.012,0.471,2.483,0.732,5.575
												C433.44,325.686,433.536,328.201,433.393,328.213z"/>
										</g>
									</g>
								</g>
							</g>
						</g>
						<g>
							<g>
								<g>
									<polygon style="fill:#E8505B;" points="237.683,360.51 266.889,315.038 288.806,340.628 301.34,325.222 330.099,353.935 
																			"/>
								</g>
							</g>
						</g>
						<g>
							<g>
								<g>
									<g>
										<g>
											<path style="fill:#E8505B;" d="M294.996,307.722c0.286,4.019-2.74,7.508-6.759,7.794
												c-4.019,0.286-7.509-2.74-7.794-6.759c-0.286-4.019,2.74-7.509,6.759-7.794
												C291.22,300.677,294.71,303.703,294.996,307.722z"/>
										</g>
									</g>
								</g>
							</g>
						</g>
						<g style="opacity:0.2;">
							<g>
								<g>
									<polygon points="237.683,360.51 266.889,315.038 288.806,340.628 301.34,325.222 330.099,353.935 									"/>
								</g>
							</g>
						</g>
						<g style="opacity:0.2;">
							<g>
								<g>
									<g>
										<g>
											<path d="M294.996,307.722c0.286,4.019-2.74,7.508-6.759,7.794c-4.019,0.286-7.509-2.74-7.794-6.759
												c-0.286-4.019,2.74-7.509,6.759-7.794C291.22,300.677,294.71,303.703,294.996,307.722z"/>
										</g>
									</g>
								</g>
							</g>
						</g>
					</g>
					<g>
						<g>
							<path style="fill:#263238;" d="M421.512,296.442c0.013,0.143-17.953,1.919-40.123,3.965
								c-22.178,2.047-40.162,3.59-40.175,3.447c-0.013-0.143,17.949-1.918,40.127-3.965
								C403.511,297.842,421.499,296.299,421.512,296.442z"/>
						</g>
						<g>
							<path style="fill:#263238;" d="M423.835,309.804c0.013,0.143-18.153,1.937-40.57,4.006
								c-22.425,2.07-40.609,3.631-40.622,3.488c-0.013-0.143,18.149-1.937,40.574-4.007
								C405.634,311.223,423.822,309.661,423.835,309.804z"/>
						</g>
						<g>
							<path style="fill:#263238;" d="M426.158,323.166c0.013,0.143-18.347,1.955-41.004,4.046
								c-22.665,2.092-41.043,3.671-41.056,3.528c-0.013-0.143,18.343-1.955,41.008-4.047
								C407.763,324.603,426.145,323.023,426.158,323.166z"/>
						</g>
						<g>
							<path style="fill:#263238;" d="M426.639,336.414c0.013,0.143-18.369,1.957-41.053,4.051
								c-22.692,2.094-41.092,3.676-41.105,3.533c-0.013-0.143,18.365-1.957,41.057-4.051
								C408.222,337.853,426.626,336.271,426.639,336.414z"/>
						</g>
						
							<rect x="339.485" y="289.293" transform="matrix(0.9968 -0.0801 0.0801 0.9968 -22.146 29.823)" style="fill:#E8505B;" width="42.406" height="3.364"/>
					</g>
				</g>
				<g>
					<g>
						<path style="fill:#E0E0E0;" d="M472.818,318.509c-0.143,0.012-0.687-4.921-1.215-11.017
							c-0.528-6.098-0.839-11.05-0.696-11.063c0.143-0.012,0.687,4.92,1.215,11.018C472.65,313.544,472.962,318.497,472.818,318.509
							z"/>
					</g>
					<g>
						<path style="fill:#E0E0E0;" d="M482.063,306.941c0.009,0.144-4.738,0.561-10.601,0.932
							c-5.866,0.371-10.626,0.556-10.635,0.413c-0.009-0.143,4.737-0.561,10.602-0.932
							C477.292,306.982,482.053,306.797,482.063,306.941z"/>
					</g>
				</g>
			</g>
			<g>
				<path style="fill:#263238;" d="M518.418,259.733c0,0-0.241-0.077-0.703-0.251c-0.475-0.181-1.157-0.442-2.048-0.783
					c-1.811-0.704-4.461-1.734-7.876-3.062c-6.856-2.688-16.775-6.578-29.092-11.407c-24.645-9.714-58.877-23.207-97.278-38.343
					l0.211-0.009c-3.919,1.945-8.094,4.017-12.311,6.11c-39.828,19.732-75.88,37.593-101.989,50.529
					c-13.052,6.438-23.616,11.65-30.933,15.259c-3.648,1.787-6.483,3.175-8.422,4.125c-0.956,0.462-1.688,0.815-2.196,1.061
					c-0.496,0.236-0.756,0.345-0.756,0.345s0.244-0.141,0.732-0.393c0.503-0.256,1.227-0.625,2.173-1.107
					c1.929-0.97,4.749-2.388,8.378-4.212c7.299-3.644,17.838-8.906,30.859-15.407c26.092-12.97,62.12-30.88,101.921-50.665
					c4.217-2.092,8.392-4.164,12.311-6.109l0.104-0.051l0.107,0.042c38.377,15.197,72.586,28.744,97.217,38.497
					c12.292,4.893,22.191,8.833,29.033,11.556c3.401,1.365,6.039,2.424,7.842,3.148c0.883,0.36,1.56,0.636,2.03,0.828
					C518.19,259.625,518.418,259.733,518.418,259.733z"/>
			</g>
		</g>
		<g>
			<path style="fill:#263238;" d="M458.68,120.015c-1.533-3.366-5.504-4.851-8.87-3.318c-1.503,0.685-2.627,1.857-3.279,3.243
				l-10.454,0.862l10.567,20.827l6.618-12.181c0.708-0.072,1.417-0.253,2.101-0.564C458.728,127.352,460.214,123.381,458.68,120.015
				z"/>
		</g>
		<path style="fill:#263238;" d="M398.362,89.839l6.82-2.908l-16.453-4.145c-1.023-1.597-2.711-2.753-4.737-3.028
			c-3.664-0.497-7.038,2.071-7.535,5.736c-0.497,3.665,2.071,7.038,5.736,7.535c1.846,0.25,3.617-0.278,4.985-1.332l15.626,9.558
			L398.362,89.839z"/>
		<g>
			<path style="fill:#263238;" d="M530.025,294.298l-0.042-0.138L417.11,83.724l-0.637-1.19l-17.788,8.104l85.139,224.394
				l0.05,0.135l50.692,80.597l1.026-0.151l1.168-0.172l0.921-0.136l-10.487-16.674l6.123-15.79l16.233,6.01l7.149,23.651
				l0.851-0.126l1.081-0.159l0.948-0.14L530.025,294.298z M537.32,328.394l-20.263-5.206l11.754-22.946L537.32,328.394z
				 M515.269,322.729l-24.922-6.403l36.784-16.758L515.269,322.729z M524.678,290.367l-25.889-7.154l10.621-21.312L524.678,290.367z
				 M497.022,282.725l-22.792-6.298l33.547-15.283L497.022,282.725z M506.23,255.971l-23.855-8.317l8.505-20.302L506.23,255.971z
				 M480.669,247.06l-20.955-7.305l29.681-13.522L480.669,247.06z M487.503,221.058l-21.717-9.38l6.43-19.12L487.503,221.058z
				 M464.128,210.962l-18.595-8.031l25.149-11.457L464.128,210.962z M469.102,186.752l-0.124,0.057l-19.533-10.559l4.343-18.049
				L469.102,186.752z M449.873,150.901l-17.038-11.443l2.257-16.114L449.873,150.901z M431.173,138.342l-13.697-9.199l16.007-7.292
				L431.173,138.342z M416.661,88.981l14.464,26.966l-14.876-12.531L416.661,88.981z M413.897,122.606l-10.492-27.654l11.018,9.281
				L413.897,122.606z M414.488,101.933l-11.811-9.949l12.255-5.583L414.488,101.933z M416.183,105.716l14.311,12.055l-14.849,6.765
				L416.183,105.716z M417.105,131.063l13.79,9.261l-2.771,19.781L417.105,131.063z M432.557,141.441l16.568,11.127l-19.362,8.82
				L432.557,141.441z M452.335,156.547l-4.528,18.816l-16.819-9.092L452.335,156.547z M431.305,168.489l16.066,8.685l-4.956,20.597
				L431.305,168.489z M449.01,178.06l17.914,9.684l-22.737,10.358L449.01,178.06z M445.036,204.678l18.516,7.997l-7.275,21.63
				L445.036,204.678z M465.21,213.392l20.753,8.964l-28.068,12.787L465.21,213.392z M458.969,241.402l21.003,7.322l-9.564,22.827
				L458.969,241.402z M481.677,249.319l22.723,7.922l-32.185,14.663L481.677,249.319z M472.819,277.906l23.384,6.461l-11.884,23.847
				L472.819,277.906z M497.971,284.856l25.412,7.022l-37.402,17.039L497.971,284.856z M488.953,317.828l25.475,6.544l-9.587,18.717
				L488.953,317.828z M516.215,324.832l20.819,5.348l-30.73,13.999L516.215,324.832z M525.998,376.731l-13.608-21.637l19.237,7.122
				L525.998,376.731z M532.278,360.537l-21.462-7.945l-0.522-0.83l29.963-13.65l0.314,1.039L532.278,360.537z M533.967,361.162
				l7.451-19.214l7.478,24.74L533.967,361.162z"/>
			<g>
				<path style="fill:#263238;" d="M381.348,183.291c0,0-0.021-0.603-0.031-1.777c-0.007-1.184-0.017-2.926-0.03-5.202
					c-0.013-4.576-0.032-11.292-0.056-19.898c-0.021-17.234-0.052-42.026-0.089-72.306l0-0.185l0.185-0.019
					c9.864-1.037,20.509-2.155,31.681-3.329l0.116-0.012l0.078,0.087c24.096,26.933,52.358,58.522,82.447,92.152
					c46.868,52.458,89.291,99.94,120.005,134.318c15.332,17.198,27.74,31.116,36.322,40.743c4.275,4.813,7.596,8.551,9.855,11.095
					c1.118,1.267,1.972,2.235,2.553,2.894c0.573,0.654,0.857,0.998,0.857,0.998s-0.31-0.32-0.896-0.962
					c-0.59-0.651-1.457-1.608-2.592-2.86c-2.276-2.529-5.622-6.245-9.928-11.029c-8.611-9.601-21.061-23.481-36.445-40.633
					c-30.743-34.351-73.206-81.798-120.119-134.216c-30.07-33.646-58.315-65.25-82.397-92.196l0.193,0.075
					c-11.174,1.159-21.82,2.263-31.685,3.286l0.184-0.204c-0.037,30.28-0.068,55.072-0.089,72.306
					c-0.024,8.606-0.043,15.322-0.056,19.898c-0.013,2.277-0.023,4.018-0.03,5.202C381.368,182.688,381.348,183.291,381.348,183.291
					z"/>
			</g>
			<g>
				<path style="fill:#263238;" d="M383.168,165.891h-4.29c-0.212,0-0.384-0.172-0.384-0.384v-10.079
					c0-0.212,0.172-0.384,0.384-0.384h4.29c0.212,0,0.384,0.172,0.384,0.384v10.079C383.552,165.719,383.38,165.891,383.168,165.891
					z"/>
				<path style="fill:#263238;" d="M389.605,167.572h-16.611c-1.022,0-1.85-0.828-1.85-1.85l0,0c0-1.022,0.828-1.85,1.85-1.85
					h16.611c1.022,0,1.85,0.828,1.85,1.85l0,0C391.455,166.743,390.627,167.572,389.605,167.572z"/>
				<path style="fill:#263238;" d="M382.512,197.288l-0.062-2.368l-2.439,1.039c-0.095,0.873-0.109,1.754-0.041,2.629
					c0.011,0.142,0.026,0.288,0.095,0.412c0.118,0.214,0.366,0.313,0.591,0.409c1.048,0.445,2.018,1.176,2.514,2.201
					c0.496,1.024,0.579,3.248-1.654,4.038c-1.964,0.695-3.707-1.147-3.731-2c-0.012-0.404-0.003-0.985-0.565-1.039
					c-0.814-0.079-1.161,1.101-1.138,1.723c0.131,3.593,3.505,4.732,4.943,4.782c0.97,0.034,1.958-0.122,2.794-0.603
					c1.352-0.779,2.358-2.169,2.625-3.706C387.254,200.124,382.256,197.589,382.512,197.288z"/>
				<path style="fill:#E0E0E0;" d="M384.603,196.112l10.615-25.552c0.96-2.311-0.738-4.855-3.241-4.855h-10.615h-10.615
					c-2.503,0-4.201,2.544-3.241,4.855l10.615,25.552C379.32,198.996,383.405,198.996,384.603,196.112z"/>
				<g>
					<path style="fill:#E8505B;" d="M371.828,167.518l-2.743,2.743c0.027,0.104,0.005,0.21,0.048,0.313l0.897,2.16l5.215-5.215
						H371.828z"/>
					<polygon style="fill:#E8505B;" points="382.078,167.518 378.662,167.518 371.032,175.146 372.035,177.561 					"/>
					<polygon style="fill:#E8505B;" points="389.375,180.722 391.804,174.877 377.05,189.631 378.053,192.045 					"/>
					<path style="fill:#E8505B;" d="M386.947,186.568l-7.892,7.891l0.267,0.643c0.25,0.604,0.712,1.023,1.284,1.223l3.912-3.912
						L386.947,186.568z"/>
					<polygon style="fill:#E8505B;" points="388.913,167.518 385.495,167.518 373.038,179.975 374.041,182.389 					"/>
					<path style="fill:#E8505B;" d="M393.755,169.509c-0.034-0.353-0.156-0.697-0.364-1.009c-0.292-0.438-0.732-0.685-1.215-0.829
						l-17.132,17.132l1.003,2.414L393.755,169.509z"/>
				</g>
			</g>
			<g>
				<path style="fill:#263238;" d="M675.246,368.116h-23.112v-8.141c0-1.457,1.181-2.638,2.638-2.638h17.836
					c1.457,0,2.638,1.181,2.638,2.638V368.116z"/>
				<g>
					<path style="fill:#263238;" d="M611.728,365.438h-3.788v-22.536c0-1,0.156-1.993,0.463-2.945l1.903-5.898
						c0.037-0.114,0.192-0.13,0.251-0.026l2.237,3.952l-0.591,1.83c-0.315,0.975-0.475,1.993-0.475,3.018V365.438z"/>
				</g>
				<path style="fill:#E8505B;" d="M705.139,369.544c-1.083-2.6-3.413-4.47-6.186-4.966l-94.806-0.045v-15.788
					c0-2.121-1.719-3.84-3.839-3.84h-45.804c-1.667,0-3.144,1.076-3.655,2.663l-1.367,4.342h5.095c1.191,0,2.306,0.517,3.059,1.417
					c0.752,0.901,1.046,2.069,0.806,3.207l-4.906,23.244c-0.376,1.78-2.001,3.072-3.865,3.072h-9.735
					c-0.12,1.479-0.048,2.971,0.267,4.434l0.54,2.322l-25.084,4.935c-0.409,0.08-0.73,0.395-0.82,0.802l-2.359,6.34
					c-0.139,0.247-0.251,0.558-0.339,0.911l-0.012,0.033h0.003c-0.507,2.097-0.134,5.597,1.129,5.597h26.872l-1.177,1.32
					l-1.513,4.717h170.725C708.211,398.966,707.806,375.947,705.139,369.544z M586.835,355.122l-2.525,22.829
					c-0.032,0.29-0.076,0.578-0.132,0.861c-0.917,4.654-5.238,7.86-9.982,7.854l-11.257-0.014c-2.21-0.003-3.854-2.045-3.384-4.204
					l5.296-27.462c0.367-1.784,1.952-3.076,3.77-3.076h15.338c0.822,0,1.609,0.352,2.156,0.964
					C586.663,353.486,586.925,354.305,586.835,355.122z"/>
				<g>
					<path style="fill:#455A64;" d="M628.806,425.641l-72.643,1.016c-0.472,0-1.309-1.399-1.309-1.871v-8.109
						c0-0.472,0.383-0.855,0.855-0.855h73.097c0.472,0,0.855,0.383,0.855,0.855v8.109
						C629.661,425.258,629.278,425.641,628.806,425.641z"/>
				</g>
				<g>
					<defs>
						<path id="SVGID_1_" d="M586.834,355.117l-2.525,22.829c-0.032,0.291-0.076,0.578-0.132,0.861
							c-0.916,4.654-5.239,7.86-9.982,7.854l-11.257-0.014c-2.21-0.003-3.854-2.045-3.384-4.204l5.296-27.462
							c0.367-1.784,1.952-3.076,3.77-3.076h15.338c0.822,0,1.608,0.352,2.156,0.964C586.662,353.48,586.925,354.3,586.834,355.117z"
							/>
					</defs>
					<use xlink:href="#SVGID_1_"  style="overflow:visible;fill:#E8505B;"/>
					<clipPath id="SVGID_00000137853067867141879350000005563456188431514526_">
						<use xlink:href="#SVGID_1_"  style="overflow:visible;"/>
					</clipPath>
					<g style="clip-path:url(#SVGID_00000137853067867141879350000005563456188431514526_);">
						<g>
							<path style="fill:#E8505B;" d="M708.234,416.237c0.042-0.703-0.035-1.503-0.235-1.83H537.69
								c-0.2,0.327-0.277,1.127-0.235,1.83H708.234z"/>
							<g>
								<defs>
									<path id="SVGID_00000062180426463131984880000018380639753986496685_" d="M550.849,347.563l-10.254,31.851
										c-0.819,2.542-0.953,5.255-0.391,7.865l4.386,20.362h27.794h31.764V348.74c0-2.121-1.719-3.839-3.839-3.839h-45.804
										C552.837,344.9,551.36,345.976,550.849,347.563z"/>
								</defs>
								<use xlink:href="#SVGID_00000062180426463131984880000018380639753986496685_"  style="overflow:visible;fill:#E8505B;"/>
								<clipPath id="SVGID_00000081616394995856507310000014459123929324936107_">
									<use xlink:href="#SVGID_00000062180426463131984880000018380639753986496685_"  style="overflow:visible;"/>
								</clipPath>
							</g>
						</g>
					</g>
				</g>
				<path style="fill:#455A64;" d="M562.938,386.652c-2.21-0.003-3.854-2.045-3.384-4.204l5.296-27.462
					c0.367-1.784,1.952-3.076,3.77-3.076h15.338c0.822,0,1.608,0.351,2.156,0.963c0.548,0.612,0.81,1.432,0.72,2.249l-2.525,22.829
					c-0.032,0.29-0.076,0.578-0.132,0.861c-0.916,4.654-5.238,7.86-9.982,7.854L562.938,386.652z"/>
				<path style="fill:#455A64;" d="M539.941,382.896c0.096-1.12,0.322-2.226,0.674-3.293l8.9-27.647h5.095
					c1.192,0,2.306,0.517,3.058,1.417c0.753,0.9,1.046,2.069,0.806,3.207l-4.906,23.244c-0.376,1.78-2.001,3.072-3.865,3.072
					H539.941z"/>
				<path style="fill:#263238;" d="M708.313,418.773H537.67c-1.305,0-1.305-4.727,0-4.727h170.643
					C709.618,414.046,709.618,418.773,708.313,418.773z"/>
				<g>
					<path style="fill:#263238;" d="M604.295,365.744c0.009,0,0.015,0.086,0.017,0.253c-0.001,0.197-0.002,0.441-0.003,0.74
						c-0.015,0.692-0.035,1.641-0.061,2.843c-0.077,2.512-0.186,6.072-0.32,10.452c-0.155,4.426-0.338,9.675-0.542,15.5
						c-0.054,1.459-0.11,2.954-0.166,4.482c-0.076,1.519-0.194,3.167-1.003,4.641c-0.79,1.489-2.322,2.491-3.928,2.951
						c-1.618,0.482-3.32,0.582-5.011,0.591c-13.457-0.253-25.637-0.482-34.505-0.649c-4.381-0.109-7.941-0.197-10.454-0.259
						c-1.201-0.041-2.15-0.073-2.842-0.097c-0.299-0.016-0.542-0.028-0.739-0.038c-0.166-0.012-0.251-0.022-0.251-0.031
						c0-0.009,0.086-0.016,0.252-0.022c0.197-0.004,0.44-0.008,0.74-0.013c0.692,0,1.641-0.001,2.843-0.001
						c2.513,0.023,6.074,0.055,10.456,0.094c8.865,0.128,21.042,0.303,34.497,0.496c1.668-0.008,3.328-0.11,4.863-0.566
						c1.528-0.44,2.909-1.353,3.631-2.702c0.743-1.337,0.875-2.912,0.952-4.417c0.063-1.526,0.124-3.019,0.183-4.477
						c0.246-5.823,0.467-11.071,0.653-15.495c0.203-4.378,0.369-7.935,0.486-10.446c0.067-1.2,0.12-2.148,0.158-2.839
						c0.022-0.299,0.04-0.541,0.054-0.738C604.274,365.829,604.286,365.744,604.295,365.744z"/>
				</g>
				<g>
					<path style="fill:#263238;" d="M555.668,407.879c-0.144,0-0.26-5.003-0.26-11.173c0-6.172,0.117-11.174,0.26-11.174
						c0.144,0,0.26,5.002,0.26,11.174C555.928,402.876,555.811,407.879,555.668,407.879z"/>
				</g>
				<g>
					<path style="fill:#263238;" d="M564.595,345.086c0.035,0.006-0.033,0.581-0.187,1.615c-0.152,1.034-0.399,2.526-0.725,4.367
						c-0.65,3.68-1.642,8.749-2.887,14.314c-1.248,5.567-2.513,10.574-3.495,14.181c-0.49,1.803-0.903,3.258-1.207,4.258
						c-0.302,1.001-0.486,1.549-0.52,1.54c-0.035-0.009,0.083-0.576,0.324-1.592c0.268-1.103,0.621-2.55,1.046-4.298
						c0.89-3.627,2.097-8.642,3.343-14.202c1.244-5.559,2.291-10.609,3.034-14.269c0.361-1.762,0.659-3.221,0.887-4.333
						C564.424,345.643,564.56,345.08,564.595,345.086z"/>
				</g>
				<g>
					<path style="fill:#E8505B;" d="M584.349,395.739c-0.01-0.055,0.401-0.013,0.933-0.383c0.252-0.189,0.522-0.495,0.638-0.924
						c0.098-0.417,0.098-0.989-0.179-1.445c-0.275-0.47-0.833-0.816-1.485-0.778c-0.717,0.008-1.474,0.016-2.265,0.024
						c-1.61,0.006-3.356,0.013-5.189,0.02c-0.805-0.016-1.496,0.672-1.529,1.423c-0.109,0.797,0.356,1.507,1.021,1.735
						c0.163,0.057,0.332,0.088,0.502,0.092c0.194,0.002,0.385,0.004,0.574,0.006c0.376,0.004,0.742,0.009,1.099,0.013
						c0.698,0.011,1.357,0.022,1.973,0.032c1.206,0.024,2.183,0.052,2.857,0.083C583.977,395.669,584.349,395.703,584.349,395.739
						c0,0.036-0.373,0.07-1.048,0.101c-0.674,0.031-1.651,0.059-2.857,0.083c-0.616,0.01-1.275,0.021-1.973,0.032
						c-0.357,0.004-0.724,0.009-1.099,0.013c-0.189,0.002-0.381,0.004-0.576,0.005c-0.219,0-0.443-0.036-0.657-0.108
						c-0.878-0.258-1.508-1.272-1.373-2.223c0.035-1.004,0.958-1.931,2.038-1.91c1.833,0.007,3.579,0.014,5.189,0.02
						c0.791,0.008,1.547,0.016,2.265,0.024c0.783-0.028,1.502,0.438,1.804,1.027c0.163,0.291,0.233,0.609,0.239,0.904
						c0.006,0.273-0.015,0.565-0.102,0.809c-0.166,0.497-0.504,0.823-0.804,1.008c-0.309,0.182-0.586,0.234-0.767,0.244
						C584.444,395.779,584.349,395.753,584.349,395.739z"/>
				</g>
				<g>
					<g>
						<path style="fill:#263238;" d="M697.086,371.204c0,0.144-6.975,0.26-15.577,0.26c-8.605,0-15.578-0.117-15.578-0.26
							s6.973-0.26,15.578-0.26C690.111,370.944,697.086,371.06,697.086,371.204z"/>
					</g>
					<g>
						<path style="fill:#263238;" d="M697.086,374.305c0,0.144-6.975,0.26-15.577,0.26c-8.605,0-15.578-0.117-15.578-0.26
							c0-0.144,6.973-0.26,15.578-0.26C690.111,374.044,697.086,374.161,697.086,374.305z"/>
					</g>
					<g>
						<path style="fill:#263238;" d="M697.086,377.406c0,0.144-6.975,0.26-15.577,0.26c-8.605,0-15.578-0.116-15.578-0.26
							c0-0.144,6.973-0.26,15.578-0.26C690.111,377.145,697.086,377.262,697.086,377.406z"/>
					</g>
					<g>
						<path style="fill:#263238;" d="M697.086,380.506c0,0.144-6.975,0.26-15.577,0.26c-8.605,0-15.578-0.116-15.578-0.26
							c0-0.144,6.973-0.26,15.578-0.26C690.111,380.246,697.086,380.363,697.086,380.506z"/>
					</g>
					<g>
						<path style="fill:#263238;" d="M697.086,383.607c0,0.144-6.975,0.26-15.577,0.26c-8.605,0-15.578-0.117-15.578-0.26
							s6.973-0.26,15.578-0.26C690.111,383.347,697.086,383.463,697.086,383.607z"/>
					</g>
					<g>
						<path style="fill:#263238;" d="M697.086,386.708c0,0.144-6.975,0.26-15.577,0.26c-8.605,0-15.578-0.117-15.578-0.26
							s6.973-0.26,15.578-0.26C690.111,386.447,697.086,386.564,697.086,386.708z"/>
					</g>
					<g>
						<path style="fill:#263238;" d="M697.086,389.809c0,0.144-6.975,0.26-15.577,0.26c-8.605,0-15.578-0.117-15.578-0.26
							c0-0.144,6.973-0.26,15.578-0.26C690.111,389.548,697.086,389.665,697.086,389.809z"/>
					</g>
				</g>
				<path style="fill:#263238;" d="M520.201,463.456c-9.353,0-17.22-9.018-17.22-18.371c0-9.353,8.23-17.242,17.583-17.242
					l150.622-6.81c7.785-0.352,15.26,3.64,18.893,10.534c1.915,3.634,2.916,8.252,1.68,13.959
					c-3.944,18.199-19.111,17.974-24.992,17.582C660.885,462.714,520.201,463.456,520.201,463.456z"/>
				<circle style="fill:#455A64;" cx="520.201" cy="444.971" r="14.068"/>
				<circle style="fill:#455A64;" cx="670.236" cy="442.111" r="18.198"/>
				<g>
					<path style="fill:#455A64;" d="M672.272,424.487c0.001,0.009-0.131,0.03-0.39,0.061c-0.284,0.032-0.665,0.074-1.15,0.129
						c-1.041,0.104-2.526,0.254-4.425,0.444c-3.844,0.38-9.41,0.877-16.293,1.44c-13.765,1.132-32.804,2.44-53.858,3.371
						c-21.062,0.923-40.144,1.293-53.955,1.376c-6.906,0.043-12.494,0.038-16.356-0.003c-1.908-0.023-3.401-0.041-4.447-0.053
						c-0.488-0.011-0.87-0.02-1.156-0.027c-0.26-0.009-0.394-0.018-0.394-0.027s0.134-0.018,0.394-0.026
						c0.286-0.006,0.669-0.014,1.156-0.025c1.045-0.01,2.538-0.025,4.446-0.044c3.89-0.039,9.469-0.094,16.352-0.163
						c13.807-0.177,32.881-0.605,53.936-1.528c21.047-0.931,40.083-2.181,53.852-3.218c6.862-0.537,12.425-0.972,16.304-1.275
						c1.903-0.149,3.391-0.265,4.434-0.347c0.487-0.032,0.869-0.058,1.154-0.077C672.137,424.481,672.271,424.478,672.272,424.487z"
						/>
				</g>
				<g>
					<path style="fill:#455A64;" d="M666.482,458.587c0,0.144-32.754,0.26-73.149,0.26c-40.409,0-73.156-0.117-73.156-0.26
						c0-0.144,32.747-0.26,73.156-0.26C633.728,458.327,666.482,458.443,666.482,458.587z"/>
				</g>
				<g>
					<path style="fill:#E8505B;" d="M545.291,407.391c-0.076,0.016-0.421-1.35-1.038-3.541c-0.609-2.194-1.5-5.212-2.402-8.575
						c-0.909-3.361-1.593-6.452-1.881-8.727c-0.138-1.139-0.175-2.07-0.159-2.712c0.047-0.644,0.09-0.994,0.126-0.991
						c0.087,0.007-0.003,1.412,0.398,3.649c0.378,2.237,1.113,5.291,2.02,8.646c0.9,3.355,1.736,6.394,2.255,8.617
						c0.261,1.111,0.456,2.015,0.563,2.645C545.282,407.032,545.326,407.383,545.291,407.391z"/>
				</g>
				<g>
					<path style="fill:#FAFAFA;" d="M660.215,453.348c-0.015,0.023-0.404-0.195-1.041-0.689c-0.638-0.491-1.49-1.306-2.346-2.473
						c-0.859-1.163-1.677-2.712-2.192-4.565c-0.518-1.845-0.687-4.006-0.278-6.196c0.441-2.185,1.409-4.125,2.582-5.642
						c1.172-1.524,2.512-2.654,3.744-3.409c1.232-0.76,2.327-1.197,3.103-1.412c0.775-0.219,1.218-0.275,1.223-0.248
						c0.042,0.115-1.763,0.4-4.125,1.969c-1.175,0.775-2.449,1.9-3.561,3.39c-1.113,1.483-2.029,3.356-2.453,5.452
						c-0.392,2.101-0.246,4.18,0.23,5.972c0.473,1.798,1.231,3.319,2.03,4.478C658.731,452.316,660.298,453.257,660.215,453.348z"/>
				</g>
				<g>
					<g>
						<path style="fill:#FFFFFF;" d="M581.158,367.836c0.084,0.117-3.415,2.794-7.815,5.979c-4.402,3.186-8.037,5.674-8.122,5.558
							c-0.084-0.116,3.415-2.793,7.816-5.98C577.437,370.208,581.073,367.72,581.158,367.836z"/>
					</g>
					<g>
						<path style="fill:#FFFFFF;" d="M582.359,363.589c0.082,0.118-2.967,2.393-6.81,5.08c-3.845,2.688-7.027,4.772-7.109,4.654
							c-0.082-0.118,2.966-2.392,6.811-5.081C579.094,365.555,582.277,363.472,582.359,363.589z"/>
					</g>
					<g>
						<path style="fill:#FFFFFF;" d="M553.034,370.149c0.082,0.118-1.467,1.339-3.459,2.726c-1.993,1.388-3.675,2.417-3.757,2.299
							c-0.082-0.118,1.467-1.338,3.46-2.726C551.27,371.06,552.952,370.031,553.034,370.149z"/>
					</g>
					<g>
						<path style="fill:#FFFFFF;" d="M555.051,366.175c0.088,0.114-1.679,1.632-3.947,3.39c-2.268,1.759-4.178,3.092-4.266,2.979
							c-0.088-0.114,1.679-1.631,3.947-3.39C553.052,367.395,554.963,366.061,555.051,366.175z"/>
					</g>
					<g>
						<path style="fill:#E8505B;" d="M586.447,390.496c0,0.144-2.502,0.26-5.589,0.26c-3.087,0-5.589-0.117-5.589-0.26
							s2.502-0.26,5.589-0.26C583.944,390.235,586.447,390.352,586.447,390.496z"/>
					</g>
				</g>
				<g>
					<path style="fill:#FAFAFA;" d="M517.404,456.91c-0.005,0.026-0.45-0.031-1.226-0.263c-0.776-0.228-1.869-0.695-3.074-1.511
						c-1.206-0.811-2.492-2.023-3.555-3.639c-1.063-1.607-1.861-3.649-2.036-5.888c-0.14-2.242,0.364-4.376,1.191-6.116
						c0.826-1.749,1.929-3.13,3.01-4.102c1.079-0.977,2.096-1.593,2.832-1.927c0.736-0.338,1.168-0.457,1.177-0.432
						c0.064,0.111-1.708,0.645-3.756,2.627c-1.018,0.978-2.055,2.338-2.828,4.035c-0.775,1.69-1.24,3.739-1.107,5.878
						c0.168,2.137,0.916,4.1,1.92,5.664c1.003,1.572,2.219,2.774,3.365,3.599C515.622,456.51,517.451,456.791,517.404,456.91z"/>
				</g>
				<g>
					<path style="fill:#FFFFFF;" d="M538.741,401.4c0,0.144-5.425,0.26-12.115,0.26c-6.692,0-12.116-0.117-12.116-0.26
						s5.424-0.26,12.116-0.26C533.316,401.139,538.741,401.256,538.741,401.4z"/>
				</g>
			</g>
		</g>
		<path style="fill:#E8505B;" d="M429.519,105.097l-9.124-19.587c-2.822-6.057-10.019-8.68-16.075-5.859h0
			c-6.057,2.821-8.68,10.019-5.858,16.075l9.124,19.588c0.171,0.366,0.606,0.525,0.972,0.354l20.608-9.599
			C429.531,105.898,429.689,105.463,429.519,105.097z"/>
	</g>
</g>
<g id="Fence">
	<g>
		<g>
			<g>
				<g>
					<rect x="74.762" y="368.587" style="fill:#E0E0E0;" width="5.14" height="94.487"/>
				</g>
				<path style="fill:#E8505B;" d="M82.527,365.354c0,2.861-2.319,5.18-5.18,5.18s-5.18-2.319-5.18-5.18
					c0-2.861,2.319-5.18,5.18-5.18S82.527,362.493,82.527,365.354z"/>
			</g>
			<g>
				<g>
					<rect x="176.903" y="368.587" style="fill:#E0E0E0;" width="5.14" height="94.487"/>
				</g>
				<path style="fill:#E8505B;" d="M184.668,365.354c0,2.861-2.319,5.18-5.18,5.18c-2.861,0-5.18-2.319-5.18-5.18
					c0-2.861,2.319-5.18,5.18-5.18C182.348,360.174,184.668,362.493,184.668,365.354z"/>
			</g>
			<g>
				<rect x="60.09" y="377.705" style="fill:#E8505B;" width="131.685" height="23.561"/>
				<polygon style="fill:#F5F5F5;" points="74.991,377.705 74.762,378.095 61.233,401.267 60.09,401.267 60.09,377.705 				"/>
				<polygon style="fill:#F5F5F5;" points="108.275,377.705 94.504,401.267 76.51,401.267 81.984,391.907 90.281,377.705 				"/>
				<polygon style="fill:#F5F5F5;" points="141.546,377.705 127.775,401.267 109.781,401.267 123.552,377.705 				"/>
				<polygon style="fill:#F5F5F5;" points="174.815,377.71 161.041,401.267 143.05,401.267 156.824,377.71 				"/>
				<polygon style="fill:#F5F5F5;" points="191.776,377.71 191.776,401.267 176.321,401.267 190.096,377.71 				"/>
			</g>
			<g>
				<rect x="60.09" y="414.104" style="fill:#E8505B;" width="131.685" height="23.561"/>
				<polygon style="fill:#F5F5F5;" points="74.991,414.104 74.762,414.495 61.233,437.666 60.09,437.666 60.09,414.104 				"/>
				<polygon style="fill:#F5F5F5;" points="108.275,414.104 94.504,437.666 76.51,437.666 81.984,428.306 90.281,414.104 				"/>
				<polygon style="fill:#F5F5F5;" points="141.546,414.104 127.775,437.666 109.781,437.666 123.552,414.104 				"/>
				<polygon style="fill:#F5F5F5;" points="174.815,414.11 161.041,437.666 143.05,437.666 156.824,414.11 				"/>
				<polygon style="fill:#F5F5F5;" points="191.776,414.11 191.776,437.666 176.321,437.666 190.096,414.11 				"/>
			</g>
		</g>
		<g>
			<path style="fill:#263238;" d="M191.776,401.267c0,0-0.009-0.141-0.013-0.407c-0.003-0.278-0.008-0.668-0.014-1.178
				c-0.008-1.049-0.019-2.581-0.033-4.579c-0.018-4.011-0.044-9.882-0.077-17.397l0.137,0.137
				c-26.998,0.025-75.903,0.071-131.678,0.124H60.09l0.26-0.26c-0.001,8.071-0.002,15.998-0.003,23.561l-0.257-0.257
				c37.285,0.045,70.169,0.085,93.748,0.114c11.798,0.032,21.264,0.057,27.799,0.075c3.258,0.015,5.782,0.027,7.509,0.035
				c0.849,0.007,1.499,0.013,1.954,0.017C191.542,401.255,191.776,401.267,191.776,401.267s-0.211,0.012-0.642,0.017
				c-0.447,0.004-1.086,0.01-1.921,0.017c-1.714,0.008-4.219,0.02-7.452,0.035c-6.521,0.018-15.967,0.043-27.739,0.075
				c-23.625,0.029-56.573,0.068-93.931,0.114l-0.257,0l0-0.258c-0.001-7.563-0.002-15.49-0.003-23.561v-0.26h0.26h0.007
				c55.776,0.052,104.68,0.098,131.678,0.124l0.138,0l-0.001,0.137c-0.033,7.549-0.059,13.448-0.077,17.478
				c-0.014,1.985-0.025,3.506-0.033,4.548c-0.006,0.5-0.011,0.882-0.014,1.155C191.785,401.143,191.776,401.267,191.776,401.267z"/>
		</g>
		<g>
			<path style="fill:#263238;" d="M191.776,437.666c0,0-0.009-0.141-0.013-0.407c-0.003-0.278-0.008-0.668-0.014-1.178
				c-0.008-1.049-0.019-2.581-0.033-4.579c-0.018-4.011-0.044-9.882-0.077-17.397l0.137,0.137
				c-26.998,0.025-75.903,0.071-131.678,0.124H60.09l0.26-0.26c-0.001,8.071-0.002,15.998-0.003,23.561l-0.257-0.257
				c37.285,0.045,70.169,0.085,93.748,0.114c11.798,0.032,21.264,0.057,27.799,0.075c3.258,0.015,5.782,0.027,7.509,0.035
				c0.849,0.007,1.499,0.013,1.954,0.017C191.542,437.654,191.776,437.666,191.776,437.666s-0.211,0.012-0.642,0.017
				c-0.447,0.004-1.086,0.01-1.921,0.017c-1.714,0.008-4.219,0.02-7.452,0.035c-6.521,0.017-15.967,0.043-27.739,0.075
				c-23.625,0.029-56.573,0.068-93.931,0.114l-0.257,0l0-0.258c-0.001-7.563-0.002-15.49-0.003-23.561v-0.261h0.26h0.007
				c55.776,0.052,104.68,0.098,131.678,0.124l0.138,0l-0.001,0.137c-0.033,7.549-0.059,13.448-0.077,17.477
				c-0.014,1.985-0.025,3.506-0.033,4.548c-0.006,0.5-0.011,0.882-0.014,1.155C191.785,437.542,191.776,437.666,191.776,437.666z"/>
		</g>
	</g>
</g>
<g id="Floor">
	<g>
		<path style="fill:#263238;" d="M701.777,463.456c0,0.144-145.419,0.26-324.761,0.26c-179.404,0-324.793-0.117-324.793-0.26
			s145.388-0.26,324.793-0.26C556.358,463.195,701.777,463.312,701.777,463.456z"/>
	</g>
</g>
</svg>
