<svg width="980" height="914" viewBox="0 0 980 914" fill="none" xmlns="http://www.w3.org/2000/svg">
<g clip-path="url(#clip0_80_1465)">
<path d="M779.893 872.119C849.263 799.402 887.534 705.35 887.396 607.931C887.396 388.237 696.95 210.257 461.869 210.257C226.788 210.257 36.3431 388.237 36.3431 607.931C36.2046 705.35 74.476 799.402 143.846 872.119H779.893Z" fill="#EF572E"/>
<mask id="mask0_80_1465" style="mask-type:luminance" maskUnits="userSpaceOnUse" x="36" y="210" width="852" height="663">
<path d="M779.893 872.119C849.263 799.402 887.534 705.35 887.396 607.931C887.396 388.237 696.95 210.257 461.869 210.257C226.788 210.257 36.3431 388.237 36.3431 607.931C36.2046 705.35 74.476 799.402 143.846 872.119H779.893Z" fill="white"/>
</mask>
<g mask="url(#mask0_80_1465)">
<path d="M212.902 675.6H105.776V885.097H212.902V675.6Z" fill="#99402B"/>
<path d="M117.679 597.734H10.5537V807.231H117.679V597.734Z" fill="#99402B"/>
<path d="M663.226 751.612H556.1V883.243H663.226V751.612Z" fill="#99402B"/>
<path d="M758.448 703.41H651.323V892.513H758.448V703.41Z" fill="#99402B"/>
<path d="M772.335 542.115H665.209V796.107H772.335V542.115Z" fill="#99402B"/>
<path d="M760.432 523.576H677.112V777.568H760.432V523.576Z" fill="#99402B"/>
<path d="M748.529 502.255H689.015V756.247H748.529V502.255Z" fill="#99402B"/>
<path d="M871.525 597.734L837.801 581.048L812.011 597.734V822.99H871.525V597.734Z" fill="#99402B"/>
<path d="M736.626 475.373H700.918V729.365H736.626V475.373Z" fill="#99402B"/>
<path d="M109.744 579.194H18.4888V788.691H109.744V579.194Z" fill="#99402B"/>
<path d="M109.744 542.115H18.4888V569.925H109.744V542.115Z" fill="#99402B"/>
<path d="M93.8735 542.671H34.3594V586.999H93.8735V542.671Z" fill="#99402B"/>
<path d="M81.9709 508.744H76.0195V619.981H81.9709V508.744Z" fill="#99402B"/>
<path d="M861.606 566.217H855.655V677.454H861.606V566.217Z" fill="#99402B"/>
</g>
<path d="M793.463 193.942L602.303 23.8792L600.141 27.5871L791.26 197.576L793.463 193.942Z" fill="#667F7D"/>
<path d="M805.127 201.507L801.537 200.728L868.53 378.652L873.846 378.671L805.127 201.507Z" fill="#667F7D"/>
<path d="M977.52 871.155C977.52 856.435 752.874 860.847 485.021 860.847C217.167 860.847 0 872.768 0 887.489C0 902.209 217.147 914.149 485.021 914.149C752.894 914.149 977.52 885.876 977.52 871.155Z" fill="#EFB237"/>
<g style="mix-blend-mode:multiply" opacity="0.6">
<path d="M941.951 867.225C941.951 863.146 891.82 859.809 829.984 859.809C768.149 859.809 718.019 863.109 718.019 867.225C718.029 867.346 718.078 867.462 718.157 867.559C671.379 863.851 582.267 861.422 479.982 861.422C329.213 861.422 206.99 866.799 206.99 873.454C206.99 880.11 329.213 885.486 479.982 885.486C570.423 885.486 650.589 883.632 700.184 880.555C689.551 882.761 683.381 885.338 683.381 888.119C683.381 896.017 733.234 902.432 794.732 902.432C856.23 902.432 906.103 896.017 906.103 888.119C906.103 881.853 874.7 876.532 831.036 874.585C892.415 874.548 941.951 871.267 941.951 867.225Z" fill="#614E68"/>
</g>
<g style="mix-blend-mode:multiply" opacity="0.6">
<path d="M673.84 875.178C614.544 871.359 543.365 868.133 513.885 874.047C534.477 887.396 662.968 888.323 673.84 875.178Z" fill="#614E68"/>
</g>
<path d="M542.005 395.573L538.238 541.733L543.751 541.858L547.519 395.697L542.005 395.573Z" fill="#605147"/>
<path d="M529.134 417.054L525.339 563.213L530.852 563.338L534.647 417.179L529.134 417.054Z" fill="#605147"/>
<path d="M550.003 437.723L546.875 583.926L552.389 584.029L555.518 437.826L550.003 437.723Z" fill="#605147"/>
<path d="M324.043 374.518L319.83 374.822L331.119 511.311L335.332 511.007L324.043 374.518Z" fill="#605147"/>
<path d="M312.644 396.688L308.431 396.989L319.618 533.486L323.831 533.184L312.644 396.688Z" fill="#605147"/>
<path d="M349.863 412.581L345.618 412.898L357.336 549.794L361.582 549.477L349.863 412.581Z" fill="#605147"/>
<path d="M690.384 781.72L680.822 873.065L698.379 873.732L708.496 781.72H690.384Z" fill="#605147"/>
<path d="M657.255 779.57L647.693 870.914L665.25 871.582L675.367 779.57H657.255Z" fill="#605147"/>
<path d="M619.066 777.846L609.504 869.19L627.061 869.876L637.179 777.846H619.066Z" fill="#605147"/>
<path d="M651.423 483.099L638.546 872.503L646.696 872.738L659.572 483.334L651.423 483.099Z" fill="#3F362C"/>
<path d="M612.349 511.942L600.567 870.291L614.328 870.686L626.11 512.337L612.349 511.942Z" fill="#3F362C"/>
<path d="M605.695 350.379L593.475 344.836L577.525 355.162L565.305 825.548L585.123 826.29L605.695 350.379Z" fill="#7B9B98"/>
<g style="mix-blend-mode:multiply" opacity="0.3">
<path d="M597.046 550.347L605.696 350.379L593.475 344.836L592.96 345.188L582.882 551.237L597.046 550.347Z" fill="#614E68"/>
</g>
<path d="M414.12 278.353L403.903 272.161L394.262 278.353V484.439H414.12V278.353Z" fill="#7B9B98"/>
<g style="mix-blend-mode:multiply" opacity="0.3">
<path d="M415.032 487.016V280.93L404.816 274.738L404.359 275.034V487.016H415.032Z" fill="#614E68"/>
</g>
<path d="M857.837 415.323L858.135 399.027L604.486 22.2476C604.486 22.2476 577.922 33.946 575.205 34.8545C572.487 35.7629 562.449 66.1307 562.449 66.1307L842.999 413.247L857.837 415.323Z" fill="#D59C24"/>
<path d="M883.27 722.412L752.2 729.216L752.001 744.901L882.794 745.512L883.27 722.412Z" fill="#667F7D"/>
<path d="M878.072 694.417L749.76 710.083L749.581 725.657L877.616 717.277L878.072 694.417Z" fill="#667F7D"/>
<path d="M873.013 667.109L747.359 691.266L747.181 706.728L872.557 689.727L873.013 667.109Z" fill="#667F7D"/>
<g style="mix-blend-mode:overlay" opacity="0.7">
<path d="M747.359 691.266L747.181 706.728L858.036 691.711L869.661 667.758L747.359 691.266Z" fill="#FFF7DB"/>
</g>
<g style="mix-blend-mode:overlay" opacity="0.7">
<path d="M749.76 710.084L749.581 725.657L844.585 719.428L855.377 697.199L749.76 710.084Z" fill="#FFF7DB"/>
</g>
<g style="mix-blend-mode:overlay" opacity="0.7">
<path d="M752.2 729.216L752.001 744.901L832.028 745.272L842.106 724.544L752.2 729.216Z" fill="#FFF7DB"/>
</g>
<path d="M885.412 833.835L844.387 824.75L818.895 851.892L818.697 863.646L876.723 863.98L885.412 833.835Z" fill="#415957"/>
<path d="M806.02 849.612L770.074 825.122L725.617 831.499L732.104 864.277L803.402 862.831L806.02 849.612Z" fill="#415957"/>
<path d="M760.67 802.521L771.185 832.5L802.826 847.387L825.382 849.723L860.753 835.17L871.03 806.415L760.67 802.521Z" fill="#415957"/>
<path d="M280.193 367.343L269.083 360.743L260.375 368.566L293.643 837.728L313.461 836.505L280.193 367.343Z" fill="#667F7D"/>
<g style="mix-blend-mode:multiply" opacity="0.3">
<path d="M292.909 546.787L280.193 367.343L269.084 360.743L267.021 362.615L281.978 552.089L292.909 546.787Z" fill="#614E68"/>
</g>
<path d="M482.759 370.272L475.677 365.044L469.111 369.975L457.823 825.863L471.451 826.16L482.759 370.272Z" fill="#667F7D"/>
<g style="mix-blend-mode:multiply" opacity="0.3">
<path d="M479.208 512.971L482.759 370.272L475.835 365.155L473.375 512.971H479.208Z" fill="#614E68"/>
</g>
<path d="M813.618 321.735L780.29 306.199L780.548 769.243L829.389 768.112L813.618 321.735Z" fill="#D59C24"/>
<path d="M893.883 759.751L847.859 746.106L745.197 777.975L754.421 818.021L882.813 823.119L893.883 759.751Z" fill="#D59C24"/>
<path d="M776.62 297.783L793.046 191.959L798.601 194.758L784.416 298.394L776.62 297.783Z" fill="#D59C24"/>
<path d="M803.977 325.147L794.435 192.311L800.644 193.145L812.527 324.127L803.977 325.147Z" fill="#D59C24"/>
<g style="mix-blend-mode:overlay" opacity="0.4">
<path d="M868.629 774.842L808.659 760.363L798.442 343.631L780.31 336.326L780.548 767L745.197 777.975L754.421 818.021L772.236 818.725L760.294 782.685L868.629 774.842Z" fill="#FFF7DB"/>
</g>
<path d="M175.038 516.12L171.884 518.521L188.659 537.769L191.812 535.369L175.038 516.12Z" fill="#C49C37"/>
<path d="M136.605 518.292H135.216V652.426H136.605V518.292Z" fill="#634228"/>
<path d="M185.287 568.664H183.383V571.352H185.287V568.664Z" fill="url(#paint0_linear_80_1465)"/>
<path d="M199.65 515.9L191.02 514.121L181.458 571.352H199.65V515.9Z" fill="#FFC61B"/>
<path d="M199.65 546.973H185.526L183.74 557.707H199.65V546.973Z" fill="#C65C2E"/>
<g style="mix-blend-mode:multiply" opacity="0.5">
<path d="M190.068 569.85L199.65 567.866V522.741L194.849 523.168L190.068 569.85Z" fill="#C49C37"/>
</g>
<path d="M189.949 509.652L144.5 511.432V516.79L190.664 520.368L189.949 509.652Z" fill="#FFC61B"/>
<path d="M190.664 520.368L190.267 514.417H144.5V514.51L145.572 516.883L190.664 520.368Z" fill="#C49C37"/>
<path d="M186.26 516.79C186.26 518.382 186.765 519.937 187.711 521.26C188.657 522.584 190.001 523.615 191.575 524.224C193.148 524.833 194.879 524.992 196.549 524.682C198.219 524.371 199.753 523.605 200.957 522.48C202.162 521.355 202.982 519.921 203.314 518.36C203.646 516.799 203.475 515.181 202.824 513.711C202.172 512.241 201.069 510.984 199.653 510.1C198.237 509.216 196.572 508.744 194.869 508.744C192.586 508.744 190.396 509.592 188.781 511.101C187.167 512.61 186.26 514.656 186.26 516.79Z" fill="#C49C37"/>
<path d="M147.972 516.79C147.972 515.287 147.495 513.817 146.602 512.567C145.708 511.317 144.437 510.343 142.951 509.768C141.465 509.192 139.83 509.042 138.252 509.335C136.674 509.628 135.225 510.352 134.087 511.415C132.95 512.478 132.175 513.833 131.861 515.307C131.548 516.782 131.709 518.31 132.324 519.699C132.94 521.088 133.982 522.275 135.32 523.11C136.657 523.946 138.23 524.391 139.839 524.391C140.907 524.391 141.964 524.195 142.951 523.813C143.938 523.431 144.835 522.871 145.59 522.165C146.345 521.459 146.944 520.621 147.353 519.699C147.762 518.777 147.972 517.788 147.972 516.79Z" fill="#C49C37"/>
<path d="M222.682 569.424C222.787 568.906 222.767 568.372 222.623 567.862C222.478 567.352 222.214 566.879 221.849 566.476C221.475 566.083 221.012 565.771 220.495 565.563C219.977 565.354 219.417 565.255 218.854 565.271L162.156 567.57C161.569 567.597 160.994 567.738 160.469 567.984C159.943 568.23 159.477 568.575 159.101 568.998C158.722 569.417 158.441 569.906 158.277 570.433C158.113 570.96 158.069 571.513 158.149 572.057L159.677 582.754L220.699 579.194L222.682 569.424Z" fill="#C49C37"/>
<path d="M145.592 516.79C145.592 515.727 145.254 514.687 144.622 513.803C143.99 512.919 143.091 512.23 142.04 511.823C140.989 511.416 139.832 511.309 138.716 511.517C137.6 511.724 136.575 512.236 135.77 512.988C134.966 513.74 134.418 514.698 134.196 515.741C133.974 516.784 134.088 517.865 134.523 518.848C134.959 519.83 135.696 520.67 136.642 521.26C137.588 521.851 138.701 522.167 139.838 522.167C141.364 522.167 142.828 521.6 143.907 520.592C144.985 519.583 145.592 518.216 145.592 516.79Z" fill="#FFC61B"/>
<path d="M188.045 516.79C188.041 518.052 188.438 519.287 189.185 520.338C189.933 521.39 190.997 522.21 192.244 522.696C193.491 523.181 194.863 523.31 196.188 523.066C197.513 522.822 198.731 522.216 199.688 521.325C200.644 520.434 201.296 519.297 201.561 518.06C201.826 516.822 201.692 515.539 201.176 514.372C200.66 513.206 199.785 512.209 198.663 511.507C197.54 510.806 196.22 510.431 194.869 510.431C193.063 510.431 191.33 511.1 190.051 512.293C188.771 513.485 188.05 515.102 188.045 516.79Z" fill="#FFC61B"/>
<path style="mix-blend-mode:overlay" d="M222.682 569.424C222.787 568.906 222.767 568.372 222.623 567.862C222.478 567.352 222.214 566.879 221.849 566.476C221.475 566.083 221.012 565.771 220.495 565.563C219.977 565.354 219.417 565.255 218.854 565.271L162.176 567.57C161.587 567.599 161.01 567.741 160.481 567.987C159.952 568.232 159.482 568.576 159.101 568.998C158.729 569.42 158.453 569.91 158.293 570.436C158.132 570.963 158.09 571.514 158.169 572.057L158.685 575.765L222.484 570.555L222.682 569.424Z" fill="url(#paint1_linear_80_1465)"/>
<path d="M175.324 581.478L170.873 581.793L171.331 587.45L175.782 587.135L175.324 581.478Z" fill="#9B7623"/>
<path d="M212.097 579.699L207.65 580.051L208.163 585.704L212.611 585.351L212.097 579.699Z" fill="#9B7623"/>
<path d="M139.124 648.254C138.679 647.823 138.138 647.489 137.539 647.275C136.941 647.06 136.3 646.971 135.66 647.014C135.021 647.056 134.399 647.229 133.839 647.52C133.279 647.811 132.794 648.214 132.419 648.699C130.971 650.72 132.181 656.523 136.248 659.637C140.076 655.392 140.83 650.108 139.124 648.254Z" fill="#9B7623"/>
<path d="M139.124 660.323C139.128 659.835 138.977 659.356 138.69 658.948C138.402 658.54 137.991 658.221 137.51 658.032C137.028 657.842 136.497 657.791 135.984 657.884C135.47 657.977 134.998 658.21 134.627 658.555C134.257 658.899 134.003 659.338 133.9 659.817C133.796 660.296 133.847 660.792 134.047 661.244C134.246 661.696 134.584 662.082 135.018 662.354C135.452 662.625 135.963 662.77 136.486 662.77C136.832 662.773 137.174 662.711 137.494 662.589C137.814 662.468 138.105 662.288 138.351 662.06C138.596 661.833 138.79 661.562 138.923 661.264C139.056 660.966 139.125 660.646 139.124 660.323Z" fill="#C49C37"/>
<path d="M141.644 675.6C135.355 672.652 138.152 662.622 136.823 662.622C135.494 662.622 134.383 665.551 134.383 669.148C134.38 670.048 134.453 670.947 134.601 671.836C134.696 672.745 134.965 673.63 135.395 674.45V674.636C135.996 675.74 136.909 676.669 138.035 677.323C139.161 677.976 140.457 678.329 141.782 678.344C143.81 678.271 145.725 677.449 147.105 676.059C148.485 674.669 149.217 672.823 149.142 670.928C147.159 669.686 147.139 676.731 141.644 675.6Z" fill="#42392B"/>
<g style="mix-blend-mode:multiply" opacity="0.5">
<path d="M220.699 576.117L159.141 580.288V583.57L220.699 579.398V576.117Z" fill="#3D3028"/>
</g>
<path d="M189.354 516.79C189.35 517.81 189.67 518.809 190.274 519.659C190.877 520.509 191.737 521.172 192.745 521.565C193.752 521.958 194.862 522.063 195.933 521.866C197.004 521.669 197.988 521.18 198.762 520.46C199.535 519.74 200.062 518.821 200.277 517.821C200.491 516.821 200.383 515.784 199.966 514.841C199.549 513.898 198.842 513.092 197.935 512.525C197.028 511.958 195.961 511.655 194.869 511.655C193.41 511.655 192.01 512.195 190.976 513.158C189.943 514.12 189.359 515.427 189.354 516.79Z" fill="#604F35"/>
<path d="M135.415 516.79C135.411 517.649 135.68 518.49 136.187 519.206C136.695 519.922 137.419 520.48 138.266 520.812C139.114 521.143 140.048 521.231 140.95 521.066C141.852 520.901 142.681 520.489 143.332 519.883C143.983 519.277 144.427 518.504 144.608 517.662C144.789 516.82 144.698 515.947 144.347 515.153C143.997 514.359 143.402 513.681 142.638 513.203C141.874 512.726 140.976 512.471 140.057 512.471C138.829 512.471 137.651 512.925 136.781 513.735C135.911 514.544 135.42 515.643 135.415 516.79Z" fill="#604F35"/>
<path d="M526.006 492.373L520.392 476.096V475.929H520.273V475.836H520.035L504.006 474.242C500.415 480.434 498.054 486.941 494.801 500.382C492.995 504.09 493.313 528.192 494.801 528.192H499.403C497.201 518.273 497.221 512.137 499.403 501.161L507.953 502.144C509.659 512.025 511.425 518.829 507.953 528.507H512.457C515.452 519.478 513.687 510.598 512.457 499.122C511.961 490.797 513.726 487.368 517.892 483.085L521.582 493.671L526.006 492.373Z" fill="url(#paint2_linear_80_1465)"/>
<g style="mix-blend-mode:multiply" opacity="0.3">
<path d="M495.158 511.173C495.097 516.973 496.035 522.744 497.935 528.266H499.126C496.904 518.348 496.924 512.193 499.126 501.217L507.735 502.2C509.441 512.081 511.227 518.885 507.735 528.563H512.457C515.472 519.553 513.707 510.654 512.457 499.178C511.961 490.854 513.726 487.424 517.932 483.141L521.662 493.727L526.066 492.374L520.511 476.615C519.093 476.16 517.606 475.922 516.107 475.911C503.45 475.911 495.158 492.911 495.158 511.173Z" fill="#614E68"/>
</g>
<path d="M503.926 474.279C500.554 475.187 499.959 477.393 500.851 480.786C501.367 485.495 502.141 489.277 505.335 492.837L508.549 489.592C505.805 484.874 504.226 479.642 503.926 474.279Z" fill="#F9D12B"/>
<path d="M525.123 491.929L522.271 492.724L525.152 501.749L528.004 500.954L525.123 491.929Z" fill="#F4C78C"/>
<path d="M507.658 489.666L505.302 491.365L513.542 501.346L515.898 499.648L507.658 489.666Z" fill="#F4C78C"/>
<path d="M519.479 473.519C519.587 472.351 519.315 471.179 518.698 470.158C518.082 469.137 517.15 468.313 516.024 467.795C514.898 467.277 513.631 467.089 512.389 467.256C511.147 467.422 509.988 467.935 509.063 468.727C508.138 469.52 507.491 470.555 507.207 471.697C506.922 472.839 507.013 474.035 507.467 475.128C507.922 476.22 508.719 477.16 509.754 477.822C510.79 478.484 512.015 478.839 513.27 478.84C514.052 478.872 514.832 478.76 515.568 478.51C516.303 478.26 516.979 477.877 517.555 477.383C518.132 476.888 518.599 476.293 518.929 475.63C519.259 474.967 519.446 474.249 519.479 473.519Z" fill="#F4C78C"/>
<g style="mix-blend-mode:multiply" opacity="0.3">
<path d="M509.044 473.908C509.07 474.948 509.423 475.957 510.058 476.811C510.692 477.665 511.582 478.325 512.615 478.71H513.27C514.052 478.742 514.833 478.63 515.568 478.38C516.303 478.13 516.979 477.747 517.555 477.253C518.132 476.759 518.599 476.163 518.929 475.5C519.259 474.837 519.446 474.12 519.479 473.389C519.457 472.347 519.107 471.333 518.472 470.476C517.836 469.618 516.945 468.955 515.908 468.569H515.254C514.47 468.537 513.688 468.649 512.951 468.9C512.215 469.152 511.539 469.536 510.962 470.032C510.385 470.529 509.918 471.126 509.589 471.792C509.26 472.457 509.075 473.176 509.044 473.908Z" fill="#614E68"/>
</g>
<g style="mix-blend-mode:multiply" opacity="0.5">
<path d="M518.745 475.892C519.218 475.151 519.471 474.307 519.479 473.444C519.457 472.402 519.107 471.389 518.471 470.531C517.836 469.674 516.945 469.01 515.908 468.624C515.077 468.28 514.179 468.103 513.27 468.105C512.487 468.073 511.704 468.185 510.967 468.437C510.231 468.688 509.555 469.072 508.978 469.569C508.401 470.065 507.934 470.663 507.605 471.328C507.276 471.993 507.091 472.712 507.061 473.444C507.068 474.284 507.307 475.108 507.755 475.836C511.33 476.884 515.159 476.903 518.745 475.892Z" fill="#3D3028"/>
</g>
<path d="M521.463 473.204C521.31 471.118 520.286 469.172 518.613 467.785C516.939 466.398 514.75 465.681 512.516 465.788C510.687 465.916 508.962 466.633 507.635 467.816C506.307 468.999 505.459 470.575 505.235 472.277C505.235 477.579 521.463 476.448 521.463 473.204Z" fill="#EA7A2F"/>
<g style="mix-blend-mode:overlay" opacity="0.6">
<path d="M519.003 468.124C518.182 467.3 517.172 466.661 516.048 466.257C514.924 465.852 513.716 465.692 512.516 465.788C510.687 465.916 508.962 466.633 507.635 467.816C506.307 468.999 505.459 470.575 505.235 472.277C505.257 472.781 505.423 473.271 505.716 473.695C506.009 474.119 506.419 474.462 506.902 474.687C508.174 474.594 509.431 474.37 510.651 474.019C512.397 473.615 514.038 472.884 515.473 471.871C516.909 470.858 518.109 469.583 519.003 468.124Z" fill="#FFFAC6"/>
</g>
<path d="M296.757 481.343L299.376 481.955L300.487 488.165L298.364 488.833L296.757 481.343Z" fill="#F4C78C"/>
<path d="M298.791 481.161L296.887 481.177L296.941 486.739L298.845 486.723L298.791 481.161Z" fill="#A06B47"/>
<path d="M300.864 487.387C301.4 490.891 303.383 492.67 308.799 492.67C309.613 494.358 309.255 495.136 307.549 495.692C305.163 495.719 302.847 494.941 301.025 493.5C299.203 492.06 297.998 490.054 297.63 487.85L300.864 487.387Z" fill="url(#paint3_linear_80_1465)"/>
<path d="M303.304 514.491L302.173 491.91L313.541 489.426L316.219 513.527C315.862 522.704 316.794 530.38 320.186 535.348L315.346 536.034C312.648 532.326 311.537 522.871 311.557 513.787L308.522 514.009C307.45 523.075 306.994 530.268 308.998 536.961H303.899C302.664 529.469 302.511 521.855 303.443 514.324L303.304 514.491Z" fill="url(#paint4_linear_80_1465)"/>
<path d="M297.253 489.908C298.642 493.745 300.606 494.988 306.418 493.708C307.668 495.414 307.49 496.397 305.784 497.416C303.207 497.983 300.497 497.622 298.192 496.406C295.888 495.19 294.157 493.207 293.345 490.853L297.253 489.908Z" fill="url(#paint5_linear_80_1465)"/>
<path d="M314.195 486.682C314.402 487.803 314.236 488.955 313.72 489.985C313.204 491.015 312.363 491.872 311.31 492.442C310.257 493.011 309.042 493.265 307.83 493.169C306.617 493.074 305.466 492.633 304.529 491.907C303.593 491.181 302.918 490.204 302.594 489.108C302.27 488.012 302.313 486.849 302.718 485.777C303.123 484.705 303.869 483.774 304.857 483.11C305.845 482.447 307.027 482.082 308.244 482.066C309.684 481.957 311.113 482.379 312.225 483.241C313.338 484.104 314.045 485.339 314.195 486.682Z" fill="#F4C78C"/>
<path d="M299.751 477.063L291.042 477.145L291.099 482.502L299.808 482.421L299.751 477.063Z" fill="#A06B47"/>
<path d="M294.734 481.88L297.631 482.529L296.321 490.649L293.96 491.502L294.734 481.88Z" fill="#F4C78C"/>
<path d="M291.993 478.271L290.088 478.289L290.121 481.329L292.026 481.311L291.993 478.271Z" fill="#A06B47"/>
<path d="M291.055 479.578L285.184 479.633L285.191 480.301L291.063 480.245L291.055 479.578Z" fill="#A06B47"/>
<path d="M301.201 482.64C302.067 481.159 303.519 480.052 305.246 479.557C306.973 479.061 308.839 479.217 310.446 479.989C314.413 481.565 316.833 485.551 315.584 488.314C314.334 491.076 310.545 490.631 306.577 489.055C302.609 487.479 299.951 485.403 301.201 482.64Z" fill="#EA7A2F"/>
<g style="mix-blend-mode:overlay" opacity="0.6">
<path d="M309.236 483.586C310.323 483.775 311.355 484.175 312.268 484.759C313.18 485.343 313.951 486.099 314.532 486.978C314.532 486.978 314.532 486.978 314.532 487.071C313.481 489.407 310.267 489.036 306.895 487.701C305.1 487.154 303.538 486.09 302.431 484.661C303.483 483.382 306.26 482.9 309.236 483.586Z" fill="#FFFAC6"/>
</g>
<g style="mix-blend-mode:multiply" opacity="0.3">
<path d="M308.323 514.936C307.311 523.613 306.934 530.602 308.879 537.184H307.966C305.579 529.917 305.704 522.132 308.323 514.936Z" fill="#614E68"/>
</g>
<path d="M710.044 586.777L425.368 453.774L157.752 585.628L158.665 595.101L421.698 649.849L711.274 597.252L710.044 586.777Z" fill="#89CEC8"/>
<path d="M711.274 597.103L426.598 464.082L157.891 594.804L422.928 660.175L711.274 597.103Z" fill="url(#paint6_linear_80_1465)"/>
<path d="M263.568 589.076L426.915 521.128L598.534 593.377L590.162 640.987L269.163 639.392L263.568 589.076Z" fill="#667F7D"/>
<g style="mix-blend-mode:overlay" opacity="0.4">
<path d="M427.828 541.485L395.631 556.836V573.595L371.924 581.771L372.162 562.842L265.255 603.982L268.568 642.451L424.773 644.973L427.828 541.485Z" fill="#FFFAC6"/>
</g>
<path d="M294.853 554.24L286.104 549.939L273.706 556.354L279.915 644.064L299.713 642.841L294.853 554.24Z" fill="#667F7D"/>
<g style="mix-blend-mode:multiply" opacity="0.3">
<path d="M299.535 639.429L294.853 554.24L286.105 549.939L284.637 550.718L290.965 639.948L299.535 639.429Z" fill="#614E68"/>
</g>
<g style="mix-blend-mode:multiply" opacity="0.3">
<path d="M590.162 640.987L598.534 593.377L426.915 521.128L425.129 640.171L590.162 640.987Z" fill="#614E68"/>
</g>
<g style="mix-blend-mode:multiply" opacity="0.3">
<path d="M442.567 540.91L443.163 574.745L481.827 589.076L482.442 555.241L442.567 540.91Z" fill="#614E68"/>
</g>
<g style="mix-blend-mode:multiply" opacity="0.5">
<path d="M443.162 550.087L442.865 568.72L477.224 580.196L476.292 562.138L443.162 550.087Z" fill="#614E68"/>
</g>
<g style="mix-blend-mode:multiply" opacity="0.3">
<path d="M524.756 567.867L525.371 601.683L564.036 616.014L564.651 582.198L524.756 567.867Z" fill="#614E68"/>
</g>
<path d="M710.044 654.002L425.368 563.844L156.661 652.444L159.121 659.601L421.698 696.754L711.274 660.88L710.044 654.002Z" fill="#89CEC8"/>
<path d="M711.274 661.009L426.598 570.852L157.891 659.452L422.928 703.743L711.274 661.009Z" fill="url(#paint7_linear_80_1465)"/>
<path d="M264.322 661.325L426.598 610.285L590.42 665.626L590.162 714.366L269.163 712.772L264.322 661.325Z" fill="#667F7D"/>
<g style="mix-blend-mode:overlay" opacity="0.4">
<path d="M425.07 652.073L412.195 657.227L412.413 669.167L349.963 681.533L343.059 665.83L332.585 711.622L425.983 725.824L425.07 652.073Z" fill="#FFFAC6"/>
</g>
<path d="M449.967 666.534C449.516 662.097 450.302 657.626 452.248 653.556L444.095 645.065L446.773 642.989L455.462 650.071L465.48 652.073C461.847 657.863 460.611 664.697 462.008 671.28L464.568 687.595L460.779 688.077L458.041 670.687L453.538 670.038L452.585 686.724L448.757 686.538L449.907 666.571L449.967 666.534Z" fill="url(#paint8_linear_80_1465)"/>
<path d="M457.307 643.601C458.535 642.465 460.182 641.812 461.91 641.777C463.637 641.743 465.313 642.329 466.591 643.416C467.227 643.921 467.746 644.543 468.116 645.243C468.486 645.943 468.698 646.706 468.741 647.486C468.784 648.265 468.656 649.045 468.364 649.776C468.073 650.508 467.625 651.176 467.048 651.74C464.608 654.113 454.927 645.937 457.307 643.601Z" fill="#A35B2B"/>
<path d="M456.632 647.791C456.458 646.735 456.634 645.655 457.136 644.696C457.638 643.737 458.443 642.944 459.441 642.425C460.44 641.906 461.584 641.684 462.721 641.791C463.858 641.898 464.933 642.328 465.801 643.023C466.669 643.718 467.288 644.644 467.576 645.677C467.863 646.711 467.805 647.802 467.409 648.804C467.014 649.806 466.299 650.67 465.362 651.281C464.425 651.892 463.31 652.22 462.167 652.221C460.806 652.314 459.461 651.9 458.424 651.07C457.388 650.24 456.744 649.062 456.632 647.791Z" fill="#F4C78C"/>
<path d="M463.476 646.363C461.8 644.919 459.748 643.909 457.525 643.434C458.766 642.381 460.382 641.798 462.058 641.798C463.734 641.798 465.35 642.381 466.591 643.434C467.21 643.929 467.717 644.535 468.082 645.215C468.448 645.895 468.665 646.637 468.72 647.396C468.775 648.156 468.668 648.918 468.405 649.638C468.142 650.358 467.727 651.022 467.186 651.591C466.489 649.562 465.205 647.753 463.476 646.363Z" fill="#EA7A2F"/>
<g style="mix-blend-mode:multiply" opacity="0.3">
<path d="M450.304 659.452C450.723 657.423 451.388 655.445 452.288 653.556L444.134 645.065L446.812 642.989L455.502 650.071L457.961 650.572C457.156 649.825 456.693 648.814 456.672 647.754C456.686 647.062 456.891 646.385 457.267 645.788C457.019 645.471 456.885 645.088 456.885 644.695C456.885 644.301 457.019 643.918 457.267 643.601L457.485 643.434C458.701 642.383 460.293 641.795 461.949 641.784H462.108C462.457 641.756 462.809 641.756 463.159 641.784L463.556 641.895C463.825 641.937 464.09 641.999 464.349 642.081C464.577 642.16 464.796 642.26 465.004 642.377C465.163 642.377 465.341 642.507 465.5 642.6C465.875 642.807 466.228 643.049 466.551 643.323C466.879 643.591 467.178 643.889 467.444 644.213C467.543 644.361 467.623 644.509 467.742 644.657C467.861 644.806 467.98 645.01 468.079 645.195C468.178 645.381 468.277 645.677 468.376 645.937C468.425 646.039 468.465 646.144 468.495 646.252C468.582 646.568 468.642 646.891 468.674 647.216C468.674 647.216 468.674 647.309 468.674 647.346C468.785 648.068 468.717 648.804 468.476 649.498C468.236 650.193 467.828 650.826 467.285 651.35C466.908 651.721 466.452 652.574 465.778 652.5C464.17 654.876 462.915 657.446 462.048 660.138C459.658 659.332 457.148 658.882 454.609 658.803C453.15 658.849 451.704 659.067 450.304 659.452Z" fill="#614E68"/>
</g>
<path d="M452.982 648.773L454.867 646.085L465.976 652.351L464.091 655.04L452.982 648.773Z" fill="#F9D12B"/>
<path d="M439.076 636.407L446.555 643.452L444.71 645.028L437.231 637.983L439.076 636.407Z" fill="#F4C78C"/>
<g style="mix-blend-mode:multiply" opacity="0.3">
<path d="M439.929 638.15L446.555 643.453L444.71 645.028L437.231 637.983L439.929 638.15Z" fill="#614E68"/>
</g>
<path d="M445.682 641.283L454.807 646.511L453.438 648.458L444.293 643.211L445.682 641.283Z" fill="#F4C78C"/>
<g style="mix-blend-mode:multiply" opacity="0.3">
<path d="M590.162 714.366L590.42 665.626L426.598 608.857L423.225 708.341L590.162 714.366Z" fill="#614E68"/>
</g>
<path d="M709.429 722.802L427.371 665.626L157.752 721.523L157.971 729.05L421.698 752.132L710.798 729.903L709.429 722.802Z" fill="#89CEC8"/>
<g style="mix-blend-mode:multiply" opacity="0.3">
<path d="M310.962 707.469L315.862 688.559L218.635 708.897L217.108 715.219L310.962 707.469Z" fill="#614E68"/>
</g>
<path d="M711.274 729.865L426.598 673.69L157.891 728.901L422.928 756.488L711.274 729.865Z" fill="url(#paint9_linear_80_1465)"/>
<path d="M264.322 730.254L431.597 703.335L590.42 730.922L590.162 799.5L269.163 797.924L264.322 730.254Z" fill="#667F7D"/>
<g style="mix-blend-mode:overlay" opacity="0.4">
<path d="M429.672 737.003L356.053 744.308L329.371 783L425.07 796.348L429.672 737.003Z" fill="#FFFAC6"/>
</g>
<g style="mix-blend-mode:multiply" opacity="0.3">
<path d="M432.132 703.168L429.672 799.778L590.718 800.631V730.7L432.132 703.168Z" fill="#614E68"/>
</g>
<path d="M709.885 777.419L424.158 747.756L158.209 776.566L157.752 783.444L421.698 799.722L710.798 784.075L709.885 777.419Z" fill="#89CEC8"/>
<g style="mix-blend-mode:multiply" opacity="0.3">
<path d="M280.609 774.842C290.746 770.838 294.377 767.946 297.174 761.642L185.506 772.766L184.891 781.665L280.609 774.842Z" fill="#614E68"/>
</g>
<path d="M711.274 784.019L426.598 758.509L157.891 783.574L423.225 800.631L711.274 784.019Z" fill="url(#paint10_linear_80_1465)"/>
<path d="M292.691 863.646C292.116 842.752 261.704 804.468 231.193 805.21C200.682 805.951 187.45 843.216 188.025 864.11C213.101 865.964 291.481 871.007 292.691 863.646Z" fill="#634228"/>
<path style="mix-blend-mode:overlay" d="M261.01 826.531C262.444 823.968 263.722 821.331 264.838 818.633C254.78 810.494 243.016 804.932 231.114 805.21C201.753 805.915 188.442 840.435 187.966 861.607C213.815 869.376 245.139 854.878 261.01 826.531Z" fill="url(#paint11_linear_80_1465)"/>
<path d="M234.426 789.081L423.642 773.749L624.145 788.321L625.514 872.194L240.259 870.303L234.426 789.081Z" fill="#526866"/>
<g style="mix-blend-mode:multiply" opacity="0.3">
<path d="M423.642 773.749L430.585 869.431L596.233 873.732L604.525 785.15L423.642 773.749Z" fill="#614E68"/>
</g>
<g style="mix-blend-mode:overlay" opacity="0.4">
<path d="M597.165 55.8783L606.787 25.6588L604.486 22.2476C604.486 22.2476 577.922 33.946 575.205 34.8545C572.487 35.7629 562.449 66.1307 562.449 66.1307L776.303 330.764L794.693 331.098L597.165 55.8783Z" fill="#FFF7DB"/>
</g>
<path d="M629.362 125.161H624.502L624.205 586.295L628.986 586.314L629.362 125.161Z" fill="#D59C24"/>
<path d="M826.295 312.15L805.009 315.45L797.728 356.812L816.177 375.222L839.17 369.771L844.705 332.785L826.295 312.15Z" fill="url(#paint12_linear_80_1465)"/>
<path d="M301.757 613.159C303.919 657.82 304.038 700.165 298.999 727.529C293.96 750.37 291.818 762.847 270.472 771.394C247.698 783.667 215.719 779.143 210.204 775.269C201.813 779.533 177.729 784.965 161.521 785.02C160.396 785.028 159.282 784.811 158.253 784.385C157.224 783.959 156.304 783.334 155.553 782.55C154.803 781.766 154.239 780.842 153.9 779.839C153.561 778.836 153.454 777.778 153.586 776.733C158.764 732.831 163.148 700.257 156.701 652.518C175.686 655.837 191.576 655.763 202.328 636.444C221.73 638.391 235.398 631.606 251.923 619.258C272.773 624.839 283.585 622.391 301.757 613.159Z" fill="#BFBF84"/>
<path style="mix-blend-mode:overlay" d="M202.229 765.517C207.744 769.391 239.723 773.915 262.497 761.642C283.843 753.095 285.985 740.618 291.024 717.796C295.567 693.157 295.904 656.356 294.357 616.681C280.292 622.91 261.267 633.367 252.082 619.165C235.458 631.531 217.108 648.421 202.388 636.37C191.556 655.688 166.025 663.03 156.76 652.444C163.148 699.738 163.485 731.478 158.962 774.601C173.861 763.088 193.937 769.744 202.229 765.517Z" fill="url(#paint13_linear_80_1465)"/>
<path d="M207.526 708.359C207.826 715.099 207.347 721.849 206.098 728.493C202.011 750.926 190.941 767.983 180.943 767.686C184.117 773.248 188.085 776.566 192.409 776.566C202.824 776.566 211.275 757.434 211.275 733.925C211.37 725.278 210.107 716.664 207.526 708.359Z" fill="#BFBF84"/>
<path d="M301.459 615.013C301.459 614.132 301.18 613.271 300.655 612.539C300.131 611.807 299.387 611.237 298.516 610.9C297.644 610.564 296.686 610.477 295.762 610.65C294.838 610.824 293.99 611.249 293.324 611.873C292.659 612.497 292.208 613.292 292.026 614.156C291.845 615.021 291.942 615.916 292.305 616.729C292.669 617.541 293.282 618.235 294.067 618.722C294.853 619.208 295.775 619.466 296.718 619.462C297.977 619.458 299.183 618.987 300.072 618.153C300.96 617.319 301.459 616.19 301.459 615.013Z" fill="#605147"/>
<path d="M255.296 620.612C255.296 619.732 255.017 618.871 254.494 618.14C253.971 617.408 253.227 616.838 252.357 616.501C251.487 616.164 250.53 616.076 249.606 616.248C248.683 616.419 247.834 616.843 247.168 617.465C246.503 618.088 246.049 618.88 245.865 619.744C245.682 620.607 245.776 621.501 246.136 622.314C246.497 623.127 247.107 623.822 247.89 624.311C248.673 624.8 249.593 625.061 250.535 625.061C251.796 625.056 253.004 624.586 253.896 623.752C254.788 622.919 255.291 621.79 255.296 620.612Z" fill="#605147"/>
<path d="M209.272 637.816C209.276 636.935 208.999 636.072 208.478 635.337C207.956 634.603 207.213 634.029 206.342 633.69C205.471 633.351 204.512 633.262 203.587 633.433C202.661 633.604 201.811 634.028 201.144 634.651C200.477 635.275 200.023 636.069 199.84 636.934C199.657 637.799 199.753 638.695 200.116 639.509C200.479 640.323 201.092 641.017 201.878 641.505C202.664 641.992 203.587 642.251 204.53 642.247C205.788 642.247 206.994 641.78 207.883 640.949C208.772 640.118 209.272 638.991 209.272 637.816Z" fill="#605147"/>
<g style="mix-blend-mode:multiply" opacity="0.3">
<path d="M518.011 650.423L518.626 684.258L559.116 692.267L557.906 664.754L518.011 650.423Z" fill="#614E68"/>
</g>
<g style="mix-blend-mode:multiply" opacity="0.5">
<path d="M518.15 658.191L518.626 684.258L553.284 691.118L552.371 670.483L518.15 658.191Z" fill="#614E68"/>
</g>
<g style="mix-blend-mode:multiply" opacity="0.5">
<path d="M525.371 577.044L525.074 595.676L559.433 607.134L558.501 589.076L525.371 577.044Z" fill="#614E68"/>
</g>
<g style="mix-blend-mode:multiply" opacity="0.5">
<path d="M266.782 871.155L257.577 798.925L293.484 796.348L307.271 872.027L266.782 871.155Z" fill="#614E68"/>
</g>
<g style="mix-blend-mode:multiply" opacity="0.3">
<path d="M269.56 808.38L276.919 870.302L307.272 872.026L292.552 807.509L269.56 808.38Z" fill="#614E68"/>
</g>
<g style="mix-blend-mode:multiply" opacity="0.5">
<path d="M338.576 868.578L329.371 796.348L365.258 793.752L379.065 869.431L338.576 868.578Z" fill="#614E68"/>
</g>
<g style="mix-blend-mode:multiply" opacity="0.3">
<path d="M341.333 805.803L348.693 867.726L379.065 869.431L364.346 804.932L341.333 805.803Z" fill="#614E68"/>
</g>
<path d="M577.823 854.822H532.731V875.456H577.823V854.822Z" fill="#8D8E75"/>
<path d="M582.425 833.316H537.333V853.95H582.425V833.316Z" fill="#8D8E75"/>
<path d="M605.438 814.406H560.346V835.04H605.438V814.406Z" fill="#8D8E75"/>
<path d="M617.4 855.675H572.308V876.309H617.4V855.675Z" fill="#8D8E75"/>
<path d="M627.517 833.316H582.425V853.95H627.517V833.316Z" fill="#8D8E75"/>
<path d="M643.626 816.982H598.534V837.617H643.626V816.982Z" fill="#8D8E75"/>
<path d="M657.433 837.191H629.819V857.825H657.433V837.191Z" fill="#8D8E75"/>
<path d="M646.86 856.546H619.245V877.18H646.86V856.546Z" fill="#8D8E75"/>
<path d="M613.274 859.976H585.659V880.61H613.274V859.976Z" fill="#8D8E75"/>
<path d="M566.773 838.915H544.693V859.55H566.773V838.915Z" fill="#8D8E75"/>
<path d="M544.713 834.614H535.508V855.248H544.713V834.614Z" fill="#AFAF91"/>
<path d="M622.459 835.893H594.844V856.528H622.459V835.893Z" fill="#8D8E75"/>
<path d="M630.295 814.406H602.68V835.04H630.295V814.406Z" fill="#8D8E75"/>
<path d="M639.023 859.976H611.429V880.61H639.023V859.976Z" fill="#8D8E75"/>
<path d="M643.17 839.768H615.555V860.402H643.17V839.768Z" fill="#8D8E75"/>
<path d="M639.956 830.312H612.341V850.947H639.956V830.312Z" fill="#8D8E75"/>
<path d="M666.638 856.101H639.023V876.736H666.638V856.101Z" fill="#8D8E75"/>
<path d="M585.659 859.549H558.044V880.184H585.659V859.549Z" fill="#AFAF91"/>
<path d="M594.864 836.764H567.25V857.399H594.864V836.764Z" fill="#AFAF91"/>
<path d="M603.136 815.258H584.727V834.187H603.136V815.258Z" fill="#AFAF91"/>
<g style="mix-blend-mode:overlay" opacity="0.4">
<path d="M800.783 339.422L797.847 356.126L830.897 351.714L800.783 339.422Z" fill="#FFF7DB"/>
</g>
<g style="mix-blend-mode:multiply" opacity="0.5">
<path d="M826.592 313.3L830.897 351.714L838.872 369.493L845.002 333.36L826.592 313.3Z" fill="#614E68"/>
</g>
<path d="M356.053 856.824H318.004V875.753H356.053V856.824Z" fill="#8D8E75"/>
<path d="M337.326 852.579C332.883 847.388 321.654 848.871 312.271 855.897C302.888 862.924 298.88 872.842 303.324 878.033C307.768 883.225 318.996 881.741 328.379 874.696C337.763 867.651 341.85 857.751 337.326 852.579ZM326.911 872.972C319.234 878.738 310.049 879.962 306.399 875.697C302.749 871.433 306.042 863.35 313.719 857.603C321.396 851.856 330.601 850.632 334.252 854.878C337.902 859.123 334.609 867.225 326.911 872.972Z" fill="#3F362C"/>
<path d="M331.058 850.539C326.614 845.348 315.386 846.831 306.002 853.876C296.619 860.922 292.612 870.803 297.075 875.994C301.539 881.185 312.727 879.702 322.131 872.657C331.534 865.612 335.521 855.73 331.058 850.539ZM320.663 870.933C312.965 876.68 303.78 877.904 300.15 873.658C296.52 869.413 299.773 861.292 307.47 855.545C315.167 849.798 324.333 848.574 327.983 852.82C331.633 857.065 328.34 865.204 320.663 870.951V870.933Z" fill="#3F362C"/>
<g style="mix-blend-mode:multiply" opacity="0.5">
<path d="M356.51 723.247L358.811 754.634L388.727 751.186L385.969 719.372L356.51 723.247Z" fill="#614E68"/>
</g>
<g style="mix-blend-mode:multiply" opacity="0.5">
<path d="M364.008 754.022L388.727 751.186L386.346 723.914L362.044 727.103L364.008 754.022Z" fill="#614E68"/>
</g>
<g style="mix-blend-mode:multiply" opacity="0.5">
<path d="M505.593 636.37L506.049 681.106L436.576 666.905L435.644 613.159L505.593 636.37Z" fill="#614E68"/>
</g>
<g style="mix-blend-mode:multiply" opacity="0.5">
<path d="M498.233 634.22L435.664 613.456L436.556 666.256L498.689 678.937L498.233 634.22Z" fill="#614E68"/>
</g>
<g style="mix-blend-mode:multiply" opacity="0.5">
<path d="M512.497 717.648L513.409 756.34L443.024 749.684L442.409 704.893L512.497 717.648Z" fill="#614E68"/>
</g>
<g style="mix-blend-mode:multiply" opacity="0.5">
<path d="M505.355 716.572L442.409 705.189L443.024 749.035L506.287 755.487L505.355 716.572Z" fill="#614E68"/>
</g>
<g style="mix-blend-mode:multiply" opacity="0.5">
<path d="M514.956 786.874L521.027 869.283L450.324 871.359L441.893 780.274L514.956 786.874Z" fill="#614E68"/>
</g>
<g style="mix-blend-mode:multiply" opacity="0.5">
<path d="M507.735 786.689L441.952 780.571L450.205 870.71L513.825 869.301L507.735 786.689Z" fill="#614E68"/>
</g>
<g style="mix-blend-mode:multiply" opacity="0.5">
<path d="M411.878 615.458L412.294 668.833L342.821 683.349L343.159 635.221L411.878 615.458Z" fill="#614E68"/>
</g>
<g style="mix-blend-mode:multiply" opacity="0.5">
<path d="M412.195 617.219L350.538 632.662L350.082 681.736L412.294 668.74L412.195 617.219Z" fill="#614E68"/>
</g>
<g style="mix-blend-mode:multiply" opacity="0.5">
<path d="M371.924 581.363L395.452 573.725L395.313 545.026L372.241 552.942L371.924 581.363Z" fill="#614E68"/>
</g>
<path d="M555.703 579.268L645.887 550.884L643.13 654.947L554.771 667.85L555.703 579.268Z" fill="#89CEC8"/>
<path style="mix-blend-mode:overlay" d="M555.703 579.268L645.887 550.884L643.13 654.947L554.771 667.85L555.703 579.268Z" fill="url(#paint14_linear_80_1465)"/>
<path d="M645.431 550.032L705.699 599.05L698.339 682.905L642.654 654.521L645.431 550.032Z" fill="#667F7D"/>
<path d="M554.771 667.85L624.72 688.503L698.339 682.905L642.654 654.521L554.771 667.85Z" fill="url(#paint15_linear_80_1465)"/>
<g style="mix-blend-mode:multiply" opacity="0.5">
<path d="M577.783 596.473L575.026 635.165L617.36 627.434L615.515 582.717L577.783 596.473Z" fill="#614E68"/>
</g>
<g style="mix-blend-mode:multiply" opacity="0.8">
<g style="mix-blend-mode:multiply" opacity="0.5">
<path d="M579.073 634.442L617.36 627.434L615.734 588.279L581.473 600.774L579.073 634.442Z" fill="#001525"/>
</g>
</g>
<g style="mix-blend-mode:multiply" opacity="0.5">
<path d="M862.797 828.737L864.027 821.859L766.483 817.835L770.173 826.475L772.851 863.461L803.402 862.831L806.02 849.612L802.588 847.276L802.826 847.388L821.315 849.297L818.895 851.893L818.697 863.647L828.834 863.721L837.642 828.162L862.797 828.737Z" fill="#614E68"/>
</g>
<g style="mix-blend-mode:multiply" opacity="0.6">
<path d="M783.107 758.935L800.089 713.347L800.525 749.907L783.107 758.935Z" fill="#614E68"/>
</g>
<g style="mix-blend-mode:multiply" opacity="0.6">
<path d="M783.107 748.182V683.257L798.125 708.193L783.107 748.182Z" fill="#614E68"/>
</g>
<g style="mix-blend-mode:multiply" opacity="0.6">
<path d="M783.544 664.328V599.402L798.561 624.338L783.544 664.328Z" fill="#614E68"/>
</g>
<g style="mix-blend-mode:multiply" opacity="0.6">
<path d="M783.98 577.897V512.971L798.997 537.907L783.98 577.897Z" fill="#614E68"/>
</g>
<g style="mix-blend-mode:multiply" opacity="0.6">
<path d="M783.742 487.479V427.949L797.51 450.808L783.742 487.479Z" fill="#614E68"/>
</g>
<g style="mix-blend-mode:multiply" opacity="0.6">
<path d="M783.98 675.507L799.434 701.741L798.343 634.22L783.98 675.507Z" fill="#614E68"/>
</g>
<g style="mix-blend-mode:multiply" opacity="0.6">
<path d="M783.107 590.8L798.561 617.034L797.49 549.513L783.107 590.8Z" fill="#614E68"/>
</g>
<g style="mix-blend-mode:multiply" opacity="0.6">
<path d="M782.83 501.847L797.549 526.82L796.498 462.562L782.83 501.847Z" fill="#614E68"/>
</g>
<g style="mix-blend-mode:multiply" opacity="0.6">
<path d="M781.521 412.412L796.24 437.385L795.209 373.108L781.521 412.412Z" fill="#614E68"/>
</g>
<g style="mix-blend-mode:multiply" opacity="0.6">
<path d="M783.544 350.435V396.005L792.471 370.643L783.544 350.435Z" fill="#614E68"/>
</g>
<g opacity="0.5">
<g style="mix-blend-mode:multiply" opacity="0.6">
<path d="M783.048 334.083L782.433 317.787L794.554 334.954L783.048 334.083Z" fill="#614E68"/>
</g>
<g style="mix-blend-mode:multiply" opacity="0.6">
<path d="M780.984 334.12L765.173 314.283L780.131 316.86L780.984 334.12Z" fill="#614E68"/>
</g>
<g style="mix-blend-mode:multiply" opacity="0.6">
<path d="M760.075 307.386L738.273 279.966L757.337 284.86L760.075 307.386Z" fill="#614E68"/>
</g>
<g style="mix-blend-mode:multiply" opacity="0.6">
<path d="M729.901 268.842L697.506 227.981L723.494 237.381L729.901 268.842Z" fill="#614E68"/>
</g>
<g style="mix-blend-mode:multiply" opacity="0.6">
<path d="M681.12 207.754L631.802 145.684L667.669 163.204L681.12 207.754Z" fill="#614E68"/>
</g>
<g style="mix-blend-mode:multiply" opacity="0.6">
<path d="M763.547 311.242L779.357 314.264L760.313 289.272L763.547 311.242Z" fill="#614E68"/>
</g>
<g style="mix-blend-mode:multiply" opacity="0.6">
<path d="M734.583 275.943L754.937 281.542L727.739 245.705L734.583 275.943Z" fill="#614E68"/>
</g>
<g style="mix-blend-mode:multiply" opacity="0.6">
<path d="M689.71 220.139L716.769 230.539L675.803 176.404L689.71 220.139Z" fill="#614E68"/>
</g>
<g style="mix-blend-mode:multiply" opacity="0.6">
<path d="M612.519 126.495L654.913 148.483L595.32 62.1816L612.519 126.495Z" fill="#614E68"/>
</g>
<g style="mix-blend-mode:multiply" opacity="0.6">
<path d="M572.605 70.784L603.791 109.81L592.245 63.3311L572.605 70.784Z" fill="#614E68"/>
</g>
</g>
<g style="mix-blend-mode:overlay" opacity="0.4">
<path d="M791.776 202.508L779.814 281.19L781.659 285.064L795.922 204.658L791.776 202.508Z" fill="#FFF7DB"/>
</g>
<path d="M806.794 199.69C806.893 193.331 803.164 188.177 798.502 188.177C793.84 188.177 789.952 193.312 789.853 199.671C789.753 206.03 793.483 211.147 798.165 211.147C802.846 211.147 806.695 206.03 806.794 199.69Z" fill="#667F7D"/>
<g style="mix-blend-mode:multiply" opacity="0.5">
<path d="M805.743 199.134C805.743 193.46 803.917 188.863 801.537 188.844C799.156 188.826 797.212 193.442 797.153 199.134C797.093 204.825 798.998 209.404 801.378 209.404C803.759 209.404 805.703 204.844 805.743 199.134Z" fill="#614E68"/>
</g>
<g style="mix-blend-mode:overlay" opacity="0.4">
<path d="M798.68 213.261L807.429 314.728L803.283 316.878L796.379 214.966L798.68 213.261Z" fill="#FFF7DB"/>
</g>
<path d="M226.61 771.394C226.61 771.394 248.611 762.736 254.225 741.007C254.225 741.007 259.125 766.24 246.29 772.525C233.454 778.809 226.61 771.394 226.61 771.394Z" fill="#BFBF84"/>
<path d="M250.595 632.069C250.595 632.069 243.235 646.901 266.465 661.881C266.465 661.881 252.38 643.545 250.595 632.069Z" fill="#BFBF84"/>
<path d="M170.171 663.605C170.171 663.605 183.046 680.81 200.226 652.722C200.226 652.722 189.196 668.759 170.171 663.605Z" fill="#BFBF84"/>
<path d="M235.2 678.511C235.2 678.511 254.225 698.589 237.66 745.031C237.66 745.031 241.945 693.435 235.2 678.511Z" fill="#BFBF84"/>
<path d="M852.064 397.303L866.784 379.245L873.847 378.67L857.817 415.323L852.064 397.303Z" fill="#D59C24"/>
<g style="mix-blend-mode:multiply" opacity="0.3">
<path d="M828.437 376.946L856.052 411.912L844.387 410.762L819.847 378.67L828.437 376.946Z" fill="#614E68"/>
</g>
<path d="M641.483 134.505L626.843 118.32L616.011 126.885L630.652 143.07L641.483 134.505Z" fill="#966C33"/>
<path d="M224.368 863.813C224.484 861.441 224.051 859.073 223.099 856.871C222.147 854.669 220.698 852.685 218.851 851.053C217.004 849.422 214.802 848.183 212.396 847.419C209.989 846.655 207.435 846.385 204.907 846.627L108.435 860.198L108.177 876.606L209.133 879.535C213.044 879.51 216.795 878.082 219.612 875.546C222.429 873.01 224.096 869.56 224.269 865.908L224.368 863.813Z" fill="url(#paint16_linear_80_1465)"/>
<path d="M214.172 865.519C214.217 863.748 213.825 861.99 213.027 860.383C212.229 858.775 211.046 857.361 209.569 856.249C206.329 853.813 202.206 852.643 198.063 852.986L118.711 862.442L118.572 874.363L201.753 876.921C208.439 876.921 213.894 872.583 214.152 867.076L214.172 865.519Z" fill="#42392B"/>
<path d="M257.498 732.294L152.833 808.677L167.751 822.007L265.83 740.804L257.498 732.294Z" fill="#C49C37"/>
<path d="M210.64 776.164L193.501 822.629L201.04 825.058L218.18 778.593L210.64 776.164Z" fill="#C49C37"/>
<path d="M165.509 780.719L129.82 783.686L143.925 825.77L180.05 822.322L165.509 780.719Z" fill="#C49C37"/>
<path style="mix-blend-mode:overlay" d="M255.197 740.544L252.122 736.224L170.726 795.643L169.834 793.085L161.422 790.99L158.149 784.13L163.148 780.904L136.049 783.166L174.515 800.872L255.197 740.544Z" fill="url(#paint17_linear_80_1465)"/>
<path d="M230.063 758.429L229.802 763.875L292.804 766.517L293.065 761.072L230.063 758.429Z" fill="#C49C37"/>
<path d="M316.516 777.419L261.863 728.067L253.61 739.265L309.434 783.482L316.516 777.419Z" fill="#FFC61B"/>
<path d="M309.434 783.481L312.826 780.589L258.49 732.646L253.689 739.153L255.197 740.544L309.434 783.481Z" fill="#C49C37"/>
<path d="M359.327 796.775C346.393 779.088 329.074 773.396 305.764 777.419L331.276 833.372L342.167 835.133C353.495 822.174 357.363 812.978 359.327 796.775Z" fill="#5B4F33"/>
<g style="mix-blend-mode:overlay" opacity="0.6">
<path d="M352.284 789.377C351.768 788.673 351.213 788.005 350.677 787.319C338.953 777.178 324.253 774.23 305.843 777.419L329.946 831.036L331.236 833.557C342.425 820.579 350.32 805.599 352.284 789.377Z" fill="#D7EED8"/>
</g>
<path d="M197.746 841.529L195.068 863.832L164.973 880.48L90.1045 875.846L88.7754 847.925L197.746 841.529Z" fill="#3A3022"/>
<path d="M186.577 874.715C186.625 873.069 186.282 871.434 185.572 869.927C184.862 868.42 183.803 867.079 182.471 866.001C179.596 863.663 175.862 862.46 172.056 862.646L71.7346 867.021C64.6524 867.336 59.2168 872.36 59.5342 878.33L59.7326 882.39C60.0216 885.013 61.3385 887.443 63.4298 889.212C65.5211 890.982 68.239 891.966 71.0601 891.975L167.275 895.998C177.392 896.425 185.922 889.88 186.339 881.371L186.577 874.715Z" fill="url(#paint18_linear_80_1465)"/>
<path d="M90.0648 792.399L73.3612 797.257C71.2716 797.863 69.4715 799.127 68.267 800.834C67.0626 802.541 66.5283 804.586 66.7551 806.619L74.0357 849.297H99.6069L90.0648 792.399Z" fill="#AA8022"/>
<g style="mix-blend-mode:multiply" opacity="0.4">
<path d="M85.8052 811.44L70.3789 811.896L70.4716 814.638L85.8979 814.182L85.8052 811.44Z" fill="#514735"/>
</g>
<g style="mix-blend-mode:multiply" opacity="0.4">
<path d="M86.96 818.074L71.5337 818.529L71.6258 821.253L87.0521 820.798L86.96 818.074Z" fill="#514735"/>
</g>
<g style="mix-blend-mode:multiply" opacity="0.4">
<path d="M88.2813 823.723L72.855 824.179L72.9471 826.903L88.3734 826.447L88.2813 823.723Z" fill="#514735"/>
</g>
<g style="mix-blend-mode:overlay" opacity="0.5">
<path d="M91.8899 803.523L90.0648 792.399L73.3612 797.257C71.2716 797.863 69.4715 799.127 68.267 800.834C67.0626 802.541 66.5283 804.586 66.7551 806.619L66.9138 807.565L90.2632 806.026L91.8899 803.523Z" fill="#FFEBBE"/>
</g>
<path d="M76.436 831.647L84.034 858.178L167.592 854.544L204.59 842.475L208.319 815.388L87.7437 824.992L76.436 831.647Z" fill="#C49C37"/>
<path d="M178.622 879.683C178.589 878.486 178.215 877.319 177.539 876.302C176.862 875.286 175.908 874.456 174.773 873.899C171.919 872.284 168.626 871.473 165.291 871.563L73.5002 873.417C67.0132 873.547 62.0933 876.81 62.4504 880.833L62.6884 883.502C63.0059 886.914 67.5488 889.732 73.1828 889.973L161.224 893.681C170.508 894.07 178.225 889.843 178.503 884.225L178.622 879.683Z" fill="#514735"/>
<path style="mix-blend-mode:overlay" d="M189.672 826.512L80.0862 829.385L76.436 831.647L84.034 858.177L167.592 854.544L169.04 854.062L169.338 833.872L189.672 826.512Z" fill="url(#paint19_linear_80_1465)"/>
<path d="M77.0312 781.423L86.0773 829.274L142.477 827.902L165.945 821.005L141.485 768.056C126.666 749.202 75.5235 766.11 77.0312 781.423Z" fill="#FFC61B"/>
<path d="M143.171 771.894L141.406 768.056C126.666 749.202 75.5235 766.11 77.0312 781.423L77.7652 785.243L116.132 777.567L143.171 771.894Z" fill="#3A3022"/>
<path d="M81.2764 779.422L88.6363 826.011L129.582 823.916L111.51 775.992C97.4047 769.392 90.2233 771.709 81.2764 779.422Z" fill="#8FB7B3"/>
<g style="mix-blend-mode:overlay" opacity="0.6">
<path d="M350.677 787.319C338.953 777.178 324.253 774.23 305.843 777.419L306.438 778.717C322.309 776.863 335.402 780.219 345.995 789.359C346.531 790.045 347.067 790.712 347.602 791.417C345.556 805.903 339.505 819.641 330.046 831.277L331.216 833.557C342.425 820.579 350.32 805.599 352.284 789.377C351.768 788.691 351.213 788.005 350.677 787.319Z" fill="#D7EED8"/>
</g>
<path d="M315.048 779.866C315.102 778.741 314.797 777.627 314.173 776.664C313.549 775.701 312.633 774.932 311.542 774.455C310.45 773.979 309.232 773.816 308.041 773.986C306.85 774.157 305.74 774.654 304.851 775.414C303.962 776.175 303.335 777.164 303.048 778.258C302.762 779.352 302.829 780.5 303.241 781.558C303.653 782.617 304.391 783.537 305.363 784.202C306.335 784.868 307.496 785.25 308.7 785.298C310.311 785.359 311.882 784.822 313.071 783.804C314.26 782.787 314.971 781.371 315.048 779.866Z" fill="#5B4F33"/>
<path d="M268.032 735.687C268.208 734.212 267.907 732.721 267.167 731.408C266.427 730.095 265.282 729.02 263.881 728.321C262.48 727.623 260.887 727.333 259.308 727.49C257.729 727.646 256.236 728.242 255.023 729.2C253.81 730.158 252.933 731.434 252.505 732.864C252.076 734.293 252.117 735.809 252.62 737.216C253.124 738.624 254.068 739.858 255.33 740.758C256.592 741.659 258.114 742.185 259.7 742.268C261.737 742.422 263.757 741.817 265.318 740.583C266.88 739.35 267.855 737.59 268.032 735.687Z" fill="#C49C37"/>
<path d="M267 736.595C267.058 735.346 266.718 734.11 266.024 733.042C265.329 731.973 264.312 731.121 263.1 730.593C261.888 730.065 260.535 729.885 259.213 730.075C257.891 730.265 256.66 730.817 255.673 731.661C254.687 732.505 253.99 733.603 253.672 734.817C253.353 736.031 253.427 737.306 253.883 738.481C254.34 739.656 255.158 740.678 256.236 741.418C257.314 742.158 258.602 742.583 259.938 742.639C260.827 742.676 261.714 742.55 262.55 742.266C263.386 741.982 264.154 741.547 264.81 740.986C265.466 740.425 265.997 739.748 266.373 738.994C266.749 738.241 266.962 737.426 267 736.595Z" fill="#5B4F33"/>
<path d="M79.9871 876.995C71.4171 873.602 65.2871 878.2 70.7228 885.968C77.7058 888.897 83.7365 883.725 79.9871 876.995Z" fill="#3A3022"/>
<path d="M169.258 878.663C160.272 875.104 153.864 879.924 159.558 888.063C166.838 891.141 173.226 885.727 169.258 878.663Z" fill="#3A3022"/>
<g style="mix-blend-mode:overlay" opacity="0.5">
<path d="M176.36 863.109C174.955 862.768 173.506 862.612 172.055 862.646L71.7344 867.021C69.5829 867.078 67.4804 867.635 65.617 868.641C63.7536 869.648 62.1879 871.073 61.0615 872.787L170.171 868.244L176.36 863.109Z" fill="#FFEBBE"/>
</g>
<path d="M93.2586 885.19L88.2793 872.286L99.825 864.574L139.461 862.738L133.054 871.563L134.78 885.449L93.2586 885.19Z" fill="#3A3022"/>
<path d="M88.3192 882.742L83.3398 869.839L94.8856 862.108L133.669 861.496L128.114 869.116L129.84 882.983L88.3192 882.742Z" fill="#705E42"/>
<g style="mix-blend-mode:multiply" opacity="0.4">
<path d="M139.501 827.976H142.576L166.044 821.08L141.485 768.057C140.615 766.949 139.602 765.947 138.469 765.072L115.695 770.022L139.501 827.976Z" fill="#514735"/>
</g>
<path style="mix-blend-mode:overlay" d="M112.859 760.122C94.806 762.161 76.1186 772.08 77.0311 781.424L86.0773 829.274L102.86 765.387L112.859 760.122Z" fill="url(#paint20_linear_80_1465)"/>
<path d="M169.338 833.872L82.5264 833.724L169.754 841.862L169.338 833.872Z" fill="#C49C37"/>
<path d="M214.271 785.484C214.369 784.59 214.178 783.689 213.722 782.897C213.266 782.106 212.566 781.461 211.713 781.046C210.86 780.63 209.893 780.464 208.938 780.568C207.983 780.673 207.083 781.043 206.355 781.631C205.628 782.219 205.106 782.997 204.857 783.865C204.609 784.734 204.645 785.652 204.962 786.501C205.278 787.349 205.86 788.09 206.632 788.626C207.404 789.162 208.33 789.469 209.291 789.507C210.522 789.589 211.737 789.211 212.671 788.457C213.604 787.703 214.179 786.634 214.271 785.484Z" fill="#5B4F33"/>
<path d="M121.925 778.884L142.338 775.25L161.105 816.871L141.188 821.506L121.925 778.884Z" fill="#8FB7B3"/>
<g style="mix-blend-mode:multiply">
<path d="M129.086 823.916L123.353 808.769L111.45 776.27C109.519 774.965 107.304 774.072 104.963 773.656C94.7861 770.3 88.4974 772.858 80.959 779.347L88.2991 825.956H88.8942L129.086 823.916ZM84.9266 781.053C91.5723 775.343 97.2857 772.747 105.499 774.49L108.871 787.041L86.7715 792.844L84.9266 781.053Z" fill="#8FB7B3"/>
</g>
<g style="mix-blend-mode:multiply">
<path d="M142.338 775.25L121.925 778.958L123.313 781.813L141.287 821.58L159.28 817.372L161.264 816.927L142.338 775.25ZM125.079 778.457L140.573 775.751L143.251 782.758L128.233 783.241L125.079 778.457Z" fill="#8FB7B3"/>
</g>
<g style="mix-blend-mode:overlay" opacity="0.3">
<path d="M104.904 773.582L91.771 824.417L102.206 823.36L108.237 775.565L104.904 773.582Z" fill="#FFD9A5"/>
</g>
<g style="mix-blend-mode:overlay" opacity="0.5">
<path d="M166.719 880.648C161.938 878.794 158.526 881.334 161.561 885.653C165.449 887.285 168.802 884.411 166.719 880.648Z" fill="#FFEBBE"/>
</g>
<g style="mix-blend-mode:overlay" opacity="0.5">
<path d="M78.003 878.664C73.222 876.81 69.8099 879.331 72.8451 883.651C76.7929 885.282 80.1455 882.409 78.003 878.664Z" fill="#FFEBBE"/>
</g>
<path d="M154.221 863.369L148.488 869.097L149.658 872.379L153.13 872.268L151.94 869.246L157.951 863.257L154.221 863.369Z" fill="#514735"/>
<path d="M167.85 862.553L161.501 869.635L162.672 872.916L166.144 872.824L164.953 869.783L171.301 862.701L167.85 862.553Z" fill="#514735"/>
<path d="M142.894 863.628L136.446 870.08L137.637 873.361L141.088 873.25L139.918 870.228L146.068 863.758L142.894 863.628Z" fill="#514735"/>
<path d="M79.8678 866.465L74.8687 871.471L75.7812 874.01L78.4792 873.936L77.5468 871.582L82.3476 866.558L79.8678 866.465Z" fill="#514735"/>
<path d="M71.6154 866.372L66.6162 871.359L68.2033 874.696L70.2267 873.844L69.3142 871.47L74.0952 866.465L71.6154 866.372Z" fill="#514735"/>
<path style="mix-blend-mode:overlay" d="M169.337 833.872L189.672 826.512L78.3403 832.315L169.337 833.872Z" fill="url(#paint21_linear_80_1465)"/>
<path d="M306.696 785.131L328.637 835.689L326.991 845.329L331.811 844.402L336.195 836.375L339.727 837.654L338.159 845.422L342.623 844.124L348.713 825.325L334.846 831.11L309.434 783.481L306.696 785.131Z" fill="#5B4F33"/>
<path d="M313.263 779.792C313.301 778.997 313.086 778.209 312.645 777.528C312.204 776.846 311.557 776.303 310.785 775.966C310.013 775.629 309.152 775.513 308.31 775.634C307.467 775.755 306.683 776.106 306.054 776.644C305.426 777.182 304.983 777.881 304.78 778.655C304.578 779.428 304.626 780.24 304.918 780.988C305.209 781.736 305.732 782.387 306.419 782.857C307.107 783.327 307.928 783.596 308.779 783.63C309.918 783.675 311.029 783.297 311.87 782.577C312.71 781.858 313.211 780.856 313.263 779.792Z" fill="#C49C37"/>
<path d="M265.017 736.503C265.055 735.621 264.813 734.748 264.321 733.995C263.829 733.241 263.109 732.641 262.253 732.269C261.396 731.898 260.441 731.772 259.508 731.907C258.575 732.042 257.705 732.432 257.009 733.028C256.313 733.625 255.821 734.4 255.596 735.258C255.371 736.115 255.423 737.015 255.745 737.845C256.066 738.674 256.644 739.396 257.404 739.92C258.165 740.443 259.074 740.744 260.017 740.785C260.647 740.813 261.276 740.723 261.869 740.523C262.461 740.322 263.005 740.014 263.47 739.616C263.935 739.218 264.311 738.738 264.576 738.203C264.841 737.669 264.991 737.091 265.017 736.503Z" fill="#C49C37"/>
<path d="M213.457 785.447C213.556 784.707 213.414 783.957 213.05 783.294C212.685 782.631 212.116 782.086 211.415 781.73C210.714 781.374 209.915 781.224 209.121 781.299C208.327 781.374 207.576 781.671 206.966 782.15C206.356 782.63 205.914 783.271 205.699 783.989C205.485 784.707 205.506 785.469 205.762 786.175C206.017 786.881 206.494 787.499 207.131 787.948C207.768 788.397 208.534 788.656 209.331 788.691C210.335 788.759 211.328 788.458 212.099 787.852C212.869 787.246 213.357 786.383 213.457 785.447Z" fill="#C49C37"/>
<g style="mix-blend-mode:overlay" opacity="0.6">
<path d="M306.379 783.259L327.943 833.427L327.764 845.738L331.91 834.336L306.379 783.259Z" fill="#D7EED8"/>
</g>
<g style="mix-blend-mode:multiply" opacity="0.3">
<path d="M173.206 832.352L169.953 833.724L169.338 854.396L172.036 852.838L173.206 832.352Z" fill="#514735"/>
</g>
<g style="mix-blend-mode:multiply" opacity="0.4">
<path d="M538.068 899.929C538.068 895.275 525.827 891.512 510.711 891.512C495.594 891.512 483.374 895.22 483.374 899.929C483.374 904.638 495.614 908.327 510.711 908.327C525.808 908.327 538.068 904.619 538.068 899.929Z" fill="#614E68"/>
</g>
<path d="M502.101 799.63C506.406 794.55 508.053 788.858 505.573 787.023C504.422 786.226 497.38 787.876 493.075 792.937C488.77 797.998 488.512 804.061 489.722 805.544C492.222 807.379 497.797 804.71 502.101 799.63Z" fill="#4F2E26"/>
<path d="M495.163 889.118L494.947 896.123L497.227 896.184L497.443 889.179L495.163 889.118Z" fill="#493A26"/>
<path d="M515.025 883.969L512.727 884.072L513.131 891.905L515.429 891.802L515.025 883.969Z" fill="#493A26"/>
<path d="M518.388 793.994L514.56 791.713L504.799 808.677L509.56 815.11L518.388 793.994Z" fill="#2D4951"/>
<path d="M511.564 886.487L515.69 886.728C515.79 870.929 514.996 855.136 513.31 839.415C512.933 821.747 510.612 812.088 505.732 806.934L492.738 812.496C492.123 812.759 491.621 813.207 491.312 813.768C491.002 814.33 490.904 814.972 491.032 815.592C492.758 823.805 494.305 831.573 493.849 838.767H493.71V839.786V840.417C494.464 854.618 494.523 871.34 493.71 890.714L497.955 890.937C500.137 868.689 501.149 854.581 501.923 846.442C502.525 845.869 503.25 845.422 504.05 845.128C504.849 844.834 505.706 844.701 506.565 844.736C509.379 858.512 511.05 872.471 511.564 886.487Z" fill="url(#paint22_linear_80_1465)"/>
<path d="M498.233 817.854C497.697 815.259 495.951 813.386 494.265 813.683C492.579 813.979 491.746 816.297 492.281 818.892C492.817 821.488 494.543 823.36 496.249 823.082C497.955 822.804 498.749 820.45 498.233 817.854Z" fill="#375860"/>
<path d="M499.522 821.432L507.676 818.151C507.497 813.553 506.168 808.621 503.946 807.731L495.436 811.439C499.145 811.699 499.423 818.095 499.522 821.432Z" fill="#375860"/>
<path d="M493.194 887.603L492.982 891.194L498.805 891.494L499.018 887.903L493.194 887.603Z" fill="#A5722F"/>
<path d="M511.008 883.58L510.838 887.173L516.665 887.413L516.834 883.819L511.008 883.58Z" fill="#A5722F"/>
<path d="M495.436 811.365L496.725 807.639L500.474 807.157L506.247 808.788L505.553 810.383L495.436 811.365Z" fill="#375860"/>
<path d="M500.356 804.876H496.09L496.924 811.069C497.663 811.507 498.536 811.705 499.408 811.631C500.28 811.558 501.101 811.216 501.744 810.661L500.356 804.876Z" fill="#DB9261"/>
<path d="M501.724 810.624L503.49 814.424L498.53 811.792L501.724 810.624Z" fill="#DB9261"/>
<path d="M496.408 807.639L499.86 810.957L498.788 813.423L495.713 810.327L496.408 807.639Z" fill="#457582"/>
<path d="M514.698 790.128L513.131 793.085L518.536 795.585L520.103 792.628L514.698 790.128Z" fill="#457582"/>
<g style="mix-blend-mode:multiply" opacity="0.4">
<path d="M506.505 805.784L505.851 806.934L503.391 807.991L500.97 807.305L500.395 804.895H496.13L496.507 807.768L495.832 810.456L495.495 811.439L492.877 812.57C492.26 812.83 491.755 813.278 491.446 813.84C491.136 814.402 491.039 815.046 491.17 815.666C491.309 816.333 491.448 816.982 491.567 817.613C494.484 817.512 497.319 816.687 499.78 815.221C504.521 812.44 507.319 808.436 506.505 805.784Z" fill="#614E68"/>
</g>
<path d="M507.557 799.315C507.557 795.607 504.978 788.08 500.852 788.08C496.725 788.08 490.655 793.641 490.655 797.349C490.655 801.057 495.991 806.119 500.118 806.119C504.244 806.119 507.616 804.228 507.557 799.315Z" fill="#F7AC74"/>
<path d="M496.586 804.876C496.586 804.876 487.441 806.1 487.937 797.46C487.937 797.46 489.445 790.045 496.884 788.339C496.844 788.376 489.901 798.554 496.586 804.876Z" fill="#754E34"/>
<path d="M494.86 800.353C494.82 800.055 494.684 799.775 494.472 799.55C494.259 799.325 493.979 799.164 493.668 799.089C493.357 799.014 493.029 799.028 492.727 799.129C492.424 799.23 492.161 799.413 491.971 799.655C491.781 799.897 491.673 800.187 491.661 800.487C491.649 800.787 491.733 801.084 491.903 801.338C492.074 801.593 492.322 801.794 492.615 801.916C492.909 802.038 493.235 802.074 493.551 802.021C493.961 801.962 494.33 801.753 494.575 801.44C494.82 801.127 494.923 800.736 494.86 800.353Z" fill="#F7AC74"/>
<path d="M496.09 789.952C495.067 791.544 494.591 793.392 494.726 795.245C494.861 797.098 495.6 798.867 496.844 800.316L495.416 800.483C493.59 799.439 492.193 797.853 491.448 795.978C491.697 794.715 492.242 793.519 493.045 792.477C493.848 791.435 494.888 790.573 496.09 789.952Z" fill="#754E34"/>
<path d="M506.505 799.166C506.497 799.075 506.464 798.988 506.408 798.913C506.352 798.838 506.276 798.778 506.188 798.74C506.1 798.694 506.001 798.67 505.9 798.67C505.8 798.67 505.701 798.694 505.613 798.74C504.265 799.305 502.821 799.643 501.348 799.741C501.198 799.756 501.054 799.8 500.924 799.87C500.794 799.94 500.682 800.035 500.594 800.149C500.515 800.27 500.466 800.406 500.449 800.546C500.431 800.687 500.447 800.83 500.495 800.964L500.891 802.021C500.924 802.111 500.985 802.189 501.066 802.246C501.148 802.302 501.246 802.334 501.348 802.336C502.302 802.422 503.265 802.283 504.148 801.934C505.031 801.584 505.807 801.034 506.406 800.334C506.553 800.154 506.617 799.928 506.585 799.704L506.505 799.166Z" fill="#513420"/>
<path opacity="0.4" d="M505.414 802.782C505.414 802.596 504.918 802.541 504.482 802.67C504.045 802.8 503.748 803.097 503.807 803.282C503.867 803.468 504.303 803.542 504.74 803.393C505.176 803.245 505.474 802.986 505.414 802.782Z" fill="#754E34"/>
<path d="M500.554 795.57C500.355 794.939 499.959 794.494 499.701 794.587C499.443 794.68 499.383 795.236 499.701 795.866C500.018 796.497 500.296 796.941 500.574 796.867C500.851 796.793 500.732 796.2 500.554 795.57Z" fill="#564438"/>
<path d="M505.216 794.049C504.998 793.419 504.601 792.974 504.343 793.066C504.085 793.159 504.045 793.715 504.343 794.346C504.64 794.976 504.958 795.421 505.216 795.347C505.474 795.273 505.434 794.679 505.216 794.049Z" fill="#564438"/>
<path d="M504.204 795.106C503.96 794.851 503.646 794.665 503.296 794.566C502.946 794.468 502.574 794.462 502.22 794.55L501.804 794.661L503.589 797.85C503.687 798.024 503.852 798.157 504.051 798.223C504.249 798.288 504.467 798.281 504.66 798.202L505.593 797.794C505.688 797.752 505.772 797.691 505.838 797.613C505.903 797.536 505.948 797.446 505.97 797.349C505.991 797.252 505.989 797.153 505.965 797.057C505.941 796.961 505.895 796.871 505.831 796.793L504.204 795.106Z" fill="#D67254"/>
<path d="M505.374 799.815L505.275 799.277H505.156C504.022 799.754 502.806 800.036 501.565 800.112C501.358 800.133 501.167 800.225 501.03 800.371L501.308 801.094L505.374 799.815Z" fill="#F7AC74"/>
<path d="M504.918 796.533C504.64 796.181 504.303 795.996 504.144 796.107C503.986 796.218 504.144 796.57 504.382 796.904C504.621 797.238 504.998 797.423 505.156 797.312C505.315 797.201 505.196 796.867 504.918 796.533Z" fill="#F7AC74"/>
<path d="M499.463 792.492L498.332 793.196C498.164 793.295 498.02 793.425 497.907 793.578C497.795 793.731 497.716 793.904 497.677 794.086C497.598 794.451 497.676 794.832 497.896 795.143V795.254L500.276 793.789L499.463 792.492Z" fill="#754E34"/>
<path d="M502.855 791.176L503.946 791.009C504.114 790.987 504.285 791 504.446 791.049C504.608 791.097 504.755 791.178 504.878 791.287C505.164 791.528 505.347 791.857 505.394 792.214V792.399L503.093 792.751L502.855 791.176Z" fill="#754E34"/>
<g style="mix-blend-mode:multiply" opacity="0.4">
<path d="M506.128 793.104C504.958 790.397 503.153 788.08 500.851 788.08C500.558 788.084 500.266 788.115 499.979 788.172C496.666 790.638 490.456 795.588 488.076 799.704C488.281 801.103 489.008 802.39 490.13 803.336C491.252 804.283 492.695 804.828 494.206 804.876C495.045 802.168 496.565 799.686 498.639 797.639C500.713 795.591 503.281 794.036 506.128 793.104Z" fill="#614E68"/>
</g>
<path d="M489.663 805.47C490.652 801.339 492.747 797.512 495.753 794.346C498.357 791.231 501.671 788.697 505.454 786.93C491.647 782.407 481.43 792.752 489.663 805.47Z" fill="#EA7A2F"/>
<path d="M515.075 811.717L513.23 807.602C507.735 810.79 502.3 811.903 494.662 813.571C494.027 813.71 493.45 814.022 493.005 814.468C492.56 814.913 492.267 815.472 492.162 816.074C492.005 816.938 492.115 817.825 492.48 818.633C492.727 819.18 493.181 819.622 493.756 819.875C494.331 820.129 494.986 820.175 495.594 820.005C502.471 818.108 509.029 815.318 515.075 811.717Z" fill="#457582"/>
<path d="M514.333 806.718L511.064 807.967L513.346 813.184L516.614 811.935L514.333 806.718Z" fill="#5A93A0"/>
<path d="M494.999 842.679L489.048 845.052L491.865 859.086C493.452 859.883 494.345 859.327 495.535 858.567L494.999 842.679Z" fill="#633F1A"/>
<g style="mix-blend-mode:overlay" opacity="0.6">
<path d="M502.359 787.115C499.395 786.334 496.265 786.283 493.273 786.967C487.203 789.525 484.525 796.237 488.83 804.097C489.804 800.941 491.347 797.963 493.393 795.291C495.687 791.972 498.752 789.177 502.359 787.115Z" fill="#FFFAC6"/>
</g>
<g style="mix-blend-mode:overlay" opacity="0.6">
<path d="M490.317 794.049C491.17 792.399 492.936 790.619 492.182 790.341C491.428 790.063 489.167 791.138 488.214 792.788C487.262 794.438 487.322 796.496 488.076 796.923C488.829 797.349 489.444 795.699 490.317 794.049Z" fill="#FFFAC6"/>
</g>
<g style="mix-blend-mode:overlay" opacity="0.6">
<path d="M494.603 788.691C494.483 788.432 493.988 788.376 493.511 788.561C493.035 788.747 492.758 789.136 492.877 789.396C492.996 789.655 493.492 789.729 493.968 789.525C494.444 789.321 494.781 788.969 494.603 788.691Z" fill="#FFFAC6"/>
</g>
<g style="mix-blend-mode:multiply" opacity="0.4">
<path d="M494.166 800.631C494.156 800.393 494.046 800.169 493.86 800.006C493.675 799.843 493.429 799.755 493.174 799.76C493.047 799.755 492.921 799.773 492.802 799.815C492.683 799.856 492.574 799.919 492.482 800C492.39 800.081 492.315 800.179 492.264 800.287C492.212 800.396 492.185 800.512 492.182 800.631C492.185 800.75 492.212 800.868 492.264 800.977C492.315 801.086 492.389 801.185 492.481 801.268C492.573 801.351 492.682 801.415 492.8 801.459C492.919 801.502 493.046 801.523 493.174 801.521C493.43 801.521 493.677 801.428 493.862 801.263C494.047 801.097 494.156 800.87 494.166 800.631Z" fill="#614E68"/>
</g>
<path d="M498.55 839.675L494.067 843.271L494.741 844.013L499.225 840.398L498.55 839.675Z" fill="#633F1A"/>
<path d="M496.785 837.562C496.13 837.562 495.436 837.654 494.801 837.673L494.424 840.75L496.864 840.565L496.785 837.562Z" fill="#604F35"/>
<path d="M501.248 836.894C500.147 837.12 499.035 837.293 497.916 837.413V840.417C499.205 840.268 500.415 840.083 501.566 839.86L501.248 836.894Z" fill="#604F35"/>
<path d="M505.474 835.726C504.423 836.106 503.35 836.428 502.26 836.69L502.577 839.675C503.691 839.42 504.791 839.11 505.87 838.748L505.474 835.726Z" fill="#604F35"/>
<path d="M510.751 836.894C511.405 836.616 512.06 836.301 512.735 835.967V832.908L510.453 833.872L510.751 836.894Z" fill="#604F35"/>
<path d="M509.481 834.206C508.489 834.614 507.497 834.985 506.664 835.318L507.061 838.359C507.96 838.025 508.893 837.654 509.858 837.247L509.481 834.206Z" fill="#604F35"/>
<g style="mix-blend-mode:overlay" opacity="0.6">
<path d="M488.988 845.051L491.805 859.086C492.31 859.375 492.901 859.505 493.491 859.457L491.885 843.902L488.988 845.051Z" fill="#FFFAC6"/>
</g>
<path d="M493.968 843.902L489.742 845.552L490.397 846.979C491.109 847.003 491.818 846.891 492.483 846.652C493.147 846.414 493.754 846.052 494.265 845.589L493.968 843.902Z" fill="#3D250F"/>
<path d="M491.86 841.597L489.921 841.893L490.753 846.65L492.691 846.354L491.86 841.597Z" fill="#756151"/>
<g style="mix-blend-mode:overlay" opacity="0.6">
<path d="M491.27 840.791L490.336 840.96L491.038 844.339L491.971 844.17L491.27 840.791Z" fill="#FFFAC6"/>
</g>
<path d="M492.321 839.823L488.175 840.305L488.671 842.79L492.658 841.677L492.321 839.823Z" fill="#756151"/>
<path d="M488.314 839.712L485.616 839.86C485.469 841.365 485.883 842.871 486.786 844.124L489.147 843.401C489.374 842.773 489.416 842.099 489.27 841.45C489.123 840.801 488.793 840.201 488.314 839.712Z" fill="#756151"/>
<path d="M495.654 841.918C495.654 841.918 494.86 839.434 490.873 840.398L491.151 841.622C491.88 841.365 492.66 841.259 493.437 841.311C494.214 841.362 494.97 841.569 495.654 841.918Z" fill="#756151"/>
<g style="mix-blend-mode:overlay" opacity="0.6">
<path d="M492.4 840.175V839.823L488.81 840.25C488.682 840.063 488.543 839.883 488.393 839.712L485.695 839.86C485.591 840.756 485.706 841.663 486.032 842.511L493.769 840.305C493.324 840.192 492.861 840.148 492.4 840.175Z" fill="#FFFAC6"/>
</g>
<g style="mix-blend-mode:overlay" opacity="0.6">
<path d="M487.917 841.474L485.953 841.9L486.112 842.567L488.096 842.141L487.917 841.474Z" fill="#FFFAC6"/>
</g>
<g style="mix-blend-mode:overlay" opacity="0.6">
<path d="M492.38 840.435L488.909 841.195L489.067 841.881L492.361 840.917L492.38 840.435Z" fill="#FFFAC6"/>
</g>
<path d="M493.412 850.002C493.412 849.756 493.308 849.52 493.121 849.346C492.935 849.172 492.683 849.075 492.42 849.075C492.157 849.075 491.905 849.172 491.719 849.346C491.533 849.52 491.428 849.756 491.428 850.002C491.433 850.246 491.539 850.479 491.724 850.652C491.909 850.825 492.159 850.924 492.42 850.929C492.683 850.929 492.935 850.831 493.121 850.657C493.308 850.483 493.412 850.248 493.412 850.002Z" fill="#633F1A"/>
<path d="M527.296 772.729L525.054 772.376L515.313 791.139L518.547 792.566L527.296 772.729Z" fill="#F7AC74"/>
<path d="M529.557 792.028C525.054 800.037 520.59 803.412 514.718 807.564L516.305 810.957C522.481 806.043 527.506 799.99 531.065 793.178L529.557 792.028Z" fill="#F7AC74"/>
<path d="M532.652 791.695C533.326 790.045 533.168 788.45 532.295 788.135C531.422 787.82 530.152 788.914 529.478 790.564C528.803 792.214 528.962 793.808 529.855 794.123C530.748 794.439 531.977 793.345 532.652 791.695Z" fill="#F7AC74"/>
<path d="M530.41 788.357C530.132 786.503 528.902 785.521 528.426 785.576C527.95 785.632 528.744 786.707 529.021 788.524C529.299 790.341 529.021 792.232 529.418 792.232C529.815 792.232 530.688 790.174 530.41 788.357Z" fill="#F7AC74"/>
<path d="M532.037 787.449C532.513 785.799 532.632 783.444 532.255 783.352C531.878 783.259 531.66 784.761 531.204 786.411C530.748 788.061 530.648 789.451 531.025 789.544C531.402 789.637 531.561 789.08 532.037 787.449Z" fill="#F7AC74"/>
<path d="M533.544 787.56C534.318 786.021 534.873 783.722 534.516 783.574C534.159 783.426 533.683 784.872 532.91 786.411C532.136 787.949 531.799 789.321 532.156 789.47C532.513 789.618 532.771 789.099 533.544 787.56Z" fill="#F7AC74"/>
<path d="M534.278 789.488C535.528 788.153 536.778 786.003 536.48 785.78C536.183 785.558 535.231 786.856 534.001 788.172C532.771 789.488 532.017 790.768 532.314 791.027C532.612 791.287 532.949 790.805 534.278 789.488Z" fill="#F7AC74"/>
<path d="M528.049 772.209C528.724 770.559 528.565 768.965 527.692 768.65C526.819 768.335 525.55 769.428 524.875 771.079C524.201 772.729 524.359 774.323 525.232 774.638C526.105 774.953 527.375 773.859 528.049 772.209Z" fill="#F7AC74"/>
<path d="M525.808 768.854C525.53 767 524.32 766.036 523.824 766.092C523.328 766.147 524.141 767.223 524.419 769.039C524.697 770.856 524.419 772.747 524.816 772.747C525.213 772.747 526.085 770.689 525.808 768.854Z" fill="#F7AC74"/>
<path d="M527.434 767.964C527.911 766.314 528.03 763.96 527.653 763.867C527.276 763.774 527.058 765.294 526.601 766.926C526.145 768.557 526.046 769.966 526.423 770.059C526.8 770.152 526.958 769.596 527.434 767.964Z" fill="#F7AC74"/>
<path d="M528.942 768.075C529.716 766.555 530.271 764.237 529.914 764.089C529.557 763.941 529.081 765.387 528.307 766.926C527.534 768.464 527.197 769.836 527.554 769.985C527.911 770.133 528.169 769.614 528.942 768.075Z" fill="#F7AC74"/>
<path d="M529.597 770.003C530.827 768.669 532.076 766.518 531.779 766.296C531.481 766.073 530.529 767.371 529.299 768.687C528.069 770.003 527.315 771.283 527.613 771.542C527.91 771.802 528.327 771.32 529.597 770.003Z" fill="#F7AC74"/>
<path d="M498.57 903.414C498.57 901.56 497.935 894.812 496.328 894.812C494.721 894.812 492.757 901.56 492.757 903.414C492.757 905.268 493.967 904.99 495.574 904.99C497.181 904.99 498.57 905.249 498.57 903.414Z" fill="#493A26"/>
<path d="M498.57 902.524C498.57 900.67 497.935 893.922 496.328 893.922C494.721 893.922 492.757 900.689 492.757 902.524C492.757 904.36 493.967 904.1 495.574 904.1C497.181 904.1 498.57 904.378 498.57 902.524Z" fill="#C4972A"/>
<g style="mix-blend-mode:overlay" opacity="0.6">
<path d="M496.209 901.041C496.408 899.984 495.991 899.02 495.277 898.89C494.563 898.761 493.809 899.558 493.61 900.614C493.412 901.671 493.829 902.654 494.543 902.765C495.257 902.876 496.011 902.116 496.209 901.041Z" fill="#FFFAC6"/>
</g>
<path d="M496.983 893.569H495.099V896.387H496.983V893.569Z" fill="#493A26"/>
<path d="M497.221 897.092H494.463V897.908H497.221V897.092Z" fill="#493A26"/>
<path d="M519.321 892.513C516.623 892.198 513.171 889.992 512.973 891.53C512.963 891.561 512.963 891.593 512.973 891.623C512.586 892.582 512.411 893.603 512.457 894.626C512.544 895.082 512.81 895.49 513.203 895.771C513.596 896.052 514.087 896.186 514.58 896.147C515.017 896.152 515.448 896.05 515.829 895.85H516.186C518.904 896.184 525.629 896.87 525.848 895.331C526.066 893.792 525.471 891.994 519.321 892.513Z" fill="#493A26"/>
<path d="M519.321 891.641C516.623 891.326 513.171 889.12 512.973 890.659C512.96 890.689 512.96 890.722 512.973 890.751C512.586 891.71 512.411 892.732 512.457 893.755C512.544 894.21 512.81 894.618 513.203 894.899C513.596 895.181 514.087 895.315 514.58 895.275C515.017 895.281 515.448 895.179 515.829 894.978H516.186C518.904 895.294 525.629 895.998 525.848 894.459C526.066 892.921 525.471 891.178 519.321 891.641Z" fill="#C4972A"/>
<path d="M515.056 889.898L513.607 889.824L516.365 891.697L516.94 890.955L515.056 889.898Z" fill="#493A26"/>
<g style="mix-blend-mode:overlay" opacity="0.6">
<path d="M524.459 893.514C524.459 893.124 523.526 892.772 522.316 892.698C521.106 892.624 520.114 892.902 520.074 893.273C520.035 893.644 521.007 894.033 522.217 894.107C523.427 894.181 524.359 893.903 524.459 893.514Z" fill="#FFFAC6"/>
</g>
<path d="M517.712 891.102L517.12 892.518L517.933 892.815L518.525 891.399L517.712 891.102Z" fill="#493A26"/>
<path d="M979.742 869.468C978.968 841.473 938.201 790.156 897.255 791.138C856.31 792.121 838.634 842.085 839.408 870.098C873.013 872.583 978.095 879.35 979.742 869.468Z" fill="#634228"/>
<path style="mix-blend-mode:overlay" d="M937.249 819.727C939.181 816.294 940.896 812.76 942.387 809.141C928.917 798.239 913.106 790.768 897.255 791.139C857.917 792.103 840.043 838.285 839.408 866.743C873.985 877.144 915.983 857.714 937.249 819.727Z" fill="url(#paint23_linear_80_1465)"/>
</g>
<defs>
<linearGradient id="paint0_linear_80_1465" x1="183.383" y1="569.999" x2="185.287" y2="569.999" gradientUnits="userSpaceOnUse">
<stop stop-color="#EAC324"/>
<stop offset="0.99" stop-color="#CB8924"/>
</linearGradient>
<linearGradient id="paint1_linear_80_1465" x1="153.567" y1="570.481" x2="226.432" y2="570.481" gradientUnits="userSpaceOnUse">
<stop offset="0.01" stop-color="#FFF2C8"/>
<stop offset="0.99" stop-color="#FFAE67"/>
</linearGradient>
<linearGradient id="paint2_linear_80_1465" x1="491.772" y1="501.421" x2="524.131" y2="501.421" gradientUnits="userSpaceOnUse">
<stop stop-color="#EAC324"/>
<stop offset="0.99" stop-color="#CB8924"/>
</linearGradient>
<linearGradient id="paint3_linear_80_1465" x1="309.441" y1="493.773" x2="297.308" y2="488.743" gradientUnits="userSpaceOnUse">
<stop stop-color="#EAC324"/>
<stop offset="0.99" stop-color="#CB8924"/>
</linearGradient>
<linearGradient id="paint4_linear_80_1465" x1="315.968" y1="484.771" x2="308.96" y2="531.034" gradientUnits="userSpaceOnUse">
<stop stop-color="#EAC324"/>
<stop offset="0.99" stop-color="#CB8924"/>
</linearGradient>
<linearGradient id="paint5_linear_80_1465" x1="306.677" y1="494.85" x2="292.38" y2="492.377" gradientUnits="userSpaceOnUse">
<stop stop-color="#EAC324"/>
<stop offset="0.99" stop-color="#CB8924"/>
</linearGradient>
<linearGradient id="paint6_linear_80_1465" x1="264.461" y1="718.259" x2="514.192" y2="512.692" gradientUnits="userSpaceOnUse">
<stop offset="0.02" stop-color="#4F7770"/>
<stop offset="0.89" stop-color="#3F362C"/>
</linearGradient>
<linearGradient id="paint7_linear_80_1465" x1="94.0919" y1="637.297" x2="647.455" y2="637.297" gradientUnits="userSpaceOnUse">
<stop offset="0.02" stop-color="#4F7770"/>
<stop offset="0.89" stop-color="#3F362C"/>
</linearGradient>
<linearGradient id="paint8_linear_80_1465" x1="457.208" y1="656.504" x2="450.459" y2="682.675" gradientUnits="userSpaceOnUse">
<stop stop-color="#EAC324"/>
<stop offset="0.99" stop-color="#CB8924"/>
</linearGradient>
<linearGradient id="paint9_linear_80_1465" x1="157.891" y1="715.089" x2="711.274" y2="715.089" gradientUnits="userSpaceOnUse">
<stop offset="0.02" stop-color="#4F7770"/>
<stop offset="0.89" stop-color="#3F362C"/>
</linearGradient>
<linearGradient id="paint10_linear_80_1465" x1="125.992" y1="779.57" x2="679.354" y2="779.57" gradientUnits="userSpaceOnUse">
<stop offset="0.02" stop-color="#4F7770"/>
<stop offset="0.54" stop-color="#44483F"/>
<stop offset="0.89" stop-color="#3F362C"/>
</linearGradient>
<linearGradient id="paint11_linear_80_1465" x1="155.415" y1="837.513" x2="272.069" y2="834.31" gradientUnits="userSpaceOnUse">
<stop offset="0.01" stop-color="#FFF2C8"/>
<stop offset="0.99" stop-color="#FFAE67"/>
</linearGradient>
<linearGradient id="paint12_linear_80_1465" x1="797.45" y1="357.313" x2="938.685" y2="260.888" gradientUnits="userSpaceOnUse">
<stop stop-color="#C1552F"/>
<stop offset="1" stop-color="#CCB637"/>
</linearGradient>
<linearGradient id="paint13_linear_80_1465" x1="95.54" y1="609.747" x2="315.98" y2="775.145" gradientUnits="userSpaceOnUse">
<stop offset="0.01" stop-color="#FFF2C8"/>
<stop offset="0.72" stop-color="#FFCD94"/>
<stop offset="0.99" stop-color="#FFAE67"/>
</linearGradient>
<linearGradient id="paint14_linear_80_1465" x1="467.563" y1="511.933" x2="646.336" y2="662.152" gradientUnits="userSpaceOnUse">
<stop offset="0.01" stop-color="#FFF2C8"/>
<stop offset="0.72" stop-color="#FFCD94"/>
<stop offset="0.99" stop-color="#FFAE67"/>
</linearGradient>
<linearGradient id="paint15_linear_80_1465" x1="528.009" y1="710.046" x2="681.686" y2="648.136" gradientUnits="userSpaceOnUse">
<stop offset="0.02" stop-color="#4F7770"/>
<stop offset="1" stop-color="#605147"/>
</linearGradient>
<linearGradient id="paint16_linear_80_1465" x1="113.222" y1="859.46" x2="229.188" y2="864.423" gradientUnits="userSpaceOnUse">
<stop offset="0.02" stop-color="#8E7D5A"/>
<stop offset="0.99" stop-color="#5B4F33"/>
</linearGradient>
<linearGradient id="paint17_linear_80_1465" x1="138.037" y1="784.773" x2="315.481" y2="741.825" gradientUnits="userSpaceOnUse">
<stop offset="0.01" stop-color="#FFF2C8"/>
<stop offset="0.99" stop-color="#FFAE67"/>
</linearGradient>
<linearGradient id="paint18_linear_80_1465" x1="126.166" y1="855.543" x2="129.651" y2="904.026" gradientUnits="userSpaceOnUse">
<stop offset="0.02" stop-color="#8E7D5A"/>
<stop offset="0.99" stop-color="#5B4F33"/>
</linearGradient>
<linearGradient id="paint19_linear_80_1465" x1="271.308" y1="900.279" x2="43.6792" y2="783.514" gradientUnits="userSpaceOnUse">
<stop offset="0.01" stop-color="#FFF2C8"/>
<stop offset="0.99" stop-color="#FFAE67"/>
</linearGradient>
<linearGradient id="paint20_linear_80_1465" x1="59.5784" y1="792.963" x2="156.386" y2="797.107" gradientUnits="userSpaceOnUse">
<stop offset="0.01" stop-color="#FFF2C8"/>
<stop offset="0.99" stop-color="#FFAE67"/>
</linearGradient>
<linearGradient id="paint21_linear_80_1465" x1="119.581" y1="819.049" x2="70.9078" y2="789.293" gradientUnits="userSpaceOnUse">
<stop offset="0.01" stop-color="#FFF2C8"/>
<stop offset="0.99" stop-color="#FFAE67"/>
</linearGradient>
<linearGradient id="paint22_linear_80_1465" x1="510.394" y1="813.571" x2="497.175" y2="893.746" gradientUnits="userSpaceOnUse">
<stop stop-color="#EAC324"/>
<stop offset="0.99" stop-color="#CB8924"/>
</linearGradient>
<linearGradient id="paint23_linear_80_1465" x1="797.908" y1="834.884" x2="954.307" y2="830.589" gradientUnits="userSpaceOnUse">
<stop offset="0.01" stop-color="#FFF2C8"/>
<stop offset="0.99" stop-color="#FFAE67"/>
</linearGradient>
<clipPath id="clip0_80_1465">
<rect width="980" height="914" fill="white"/>
</clipPath>
</defs>
</svg>
