<?xml version="1.0" encoding="utf-8"?>
<!-- Generator: Adobe Illustrator 27.5.0, SVG Export Plug-In . SVG Version: 6.00 Build 0)  -->
<svg version="1.1" xmlns="http://www.w3.org/2000/svg" xmlns:xlink="http://www.w3.org/1999/xlink" x="0px" y="0px"
	 viewBox="0 0 3710 3710" style="enable-background:new 0 0 3710 3710;" xml:space="preserve">
<g id="Background">
	<g>
		<g>
			<rect style="fill:#FFFFFF;" width="3710" height="3710"/>
		</g>
	</g>
</g>
<g id="Illustration">
	<g>
		<path style="fill:#F4F7FA;" d="M1989.519,460.895c-307.447,122.246-336.895,434.738-613.717,461.556
			c-241.205,23.368-332.886-202.837-502.133-162.305c-257.81,61.741-419.901,676.39-316.358,1181.786
			c106.914,521.856,556.128,1215.595,1300.334,1262.938c835.53,53.154,1467.736-745.055,1506.337-1445.532
			c4.174-75.753,28.827-710.472-456.424-1085.417C2883.311,655.186,2405.14,295.637,1989.519,460.895z"/>
		<g>
			<path style="fill:#C9CED6;" d="M3029.282,1307.627c30.196,15.331,68.132,1.255,84.733-31.442
				c16.6-32.696,5.579-71.63-24.617-86.961c-1.565-0.794-3.161-1.463-4.763-2.101c5.611-18.092,9.84-36.326,12.677-54.566
				c1.731-0.006,3.468-0.034,5.232-0.192c34.451-3.071,61.792-34.727,61.071-70.709c-0.721-35.982-29.234-62.661-63.685-59.59
				c-1.8,0.162-3.57,0.445-5.328,0.758c-3.599-17.831-8.529-35.25-14.75-52.108c1.584-0.927,3.161-1.886,4.701-2.965
				c29.475-20.649,38.898-61.405,21.048-91.031c-17.849-29.624-56.214-36.9-85.689-16.252c-1.51,1.059-2.931,2.202-4.335,3.362
				c-11.642-12.869-24.41-24.795-38.225-35.68c0.971-1.593,1.922-3.207,2.782-4.9c16.601-32.696,38.293-68.412,7.861-83.269
				c-70.4-34.367-100.61-4.946-117.21,27.75c-0.86,1.693-1.601,3.413-2.314,5.137c-16.94-4.73-34.102-8-51.362-9.805
				c0.107-1.818,0.191-3.639,0.154-5.483c-0.721-35.981,9.954-55.452-24.626-56.125c-75.409-1.465-100.852,31.265-100.13,67.245
				c0.037,1.881,0.194,3.72,0.381,5.546c-17.281,4.926-34.253,11.224-50.772,18.841c-0.785-1.604-1.6-3.199-2.532-4.749
				c-17.85-29.625-56.214-36.901-85.689-16.25c-29.475,20.651-38.898,61.406-21.047,91.031c0.914,1.518,1.916,2.937,2.933,4.338
				c-13.053,13.053-25.276,27.228-36.573,42.434c-1.46-0.917-2.941-1.812-4.506-2.606c-30.196-15.332-68.132-1.254-84.733,31.442
				c-16.6,32.695-5.579,71.63,24.617,86.961c1.565,0.795,3.162,1.461,4.763,2.101c-5.61,18.092-9.84,36.324-12.677,54.566
				c-1.73,0.005-3.468,0.033-5.231,0.19c-34.452,3.072-61.794,34.729-61.073,70.712c0.721,35.981,29.235,62.659,63.686,59.588
				c1.799-0.16,3.568-0.443,5.327-0.756c3.598,17.832,8.529,35.25,14.749,52.108c-1.584,0.927-3.161,1.885-4.701,2.965
				c-29.474,20.649-38.898,61.405-21.047,91.031c17.849,29.625,76.945,43.388,106.42,22.739c1.51-1.058-17.8-8.689-16.397-9.849
				c11.643,12.869,24.41,24.795,38.225,35.68c-0.971,1.592-1.922,3.206-2.782,4.9c-16.601,32.695-5.579,71.63,24.617,86.961
				c30.196,15.331,68.132,1.255,84.732-31.442c0.86-1.693,1.601-3.414,2.314-5.137c16.939,4.729,34.102,8,51.362,9.804
				c-0.107,1.817-0.191,3.639-0.154,5.483c0.721,35.98,29.234,62.66,63.685,59.589c34.45-3.072,61.794-34.73,61.072-70.71
				c-0.037-1.88-0.194-3.719-0.381-5.545c17.282-4.926,34.253-11.224,50.773-18.841c0.784,1.605,1.6,3.2,2.533,4.747
				c17.849,29.626,56.213,36.903,85.688,16.252c29.475-20.651,38.898-61.406,21.048-91.032c-0.915-1.516-1.917-2.936-2.934-4.336
				c13.053-13.054,25.277-27.228,36.572-42.434C3026.236,1305.937,3027.718,1306.832,3029.282,1307.627z M2652.86,1312.402
				c-109.635-55.664-149.652-197.023-89.378-315.735c60.273-118.713,198.009-169.823,307.645-114.159
				c109.635,55.665,149.652,197.024,89.378,315.736C2900.232,1316.957,2762.495,1368.067,2652.86,1312.402z"/>
			<path style="fill:#D8DEE8;" d="M3102.544,1132.366c34.451-3.072,61.792-34.73,61.071-70.71
				c-0.721-35.981-29.234-62.662-63.685-59.59c-1.8,0.161-3.57,0.445-5.328,0.757c-3.598-17.832-8.529-35.249-14.75-52.107
				c1.584-0.926,3.161-1.886,4.701-2.966c29.475-20.648,65.94-70.544,45.145-98.181c-39.467-52.454-80.312-29.749-109.786-9.101
				c-1.51,1.059-2.931,2.201-4.335,3.361c-11.642-12.869-24.41-24.794-38.225-35.68c0.971-1.593,1.922-3.205,2.782-4.899
				c9.035-17.794,9.833-37.413,3.866-54.092c-28.469,50.106-56.554,100.423-84.137,151.014
				c87.464,64.091,115.31,190.394,60.639,298.073c-46.329,91.247-138.419,142.484-228.34,136.063
				c-4.011,10.403-7.95,20.862-12.245,31.164c-11.656,27.957-24.898,55.34-38.156,82.686c8.338,1.572,16.714,2.811,25.112,3.689
				c-0.108,1.818-0.192,3.64-0.155,5.483c0.721,35.982,22.566,66.552,85.004,63.241c34.539-1.832,40.475-38.38,39.753-74.362
				c-0.037-1.879-0.194-3.719-0.38-5.544c17.281-4.926,34.252-11.225,50.772-18.841c0.784,1.605,1.6,3.2,2.533,4.747
				c17.849,29.627,79.773,42.214,109.248,21.563c29.476-20.65,15.337-66.717-2.511-96.343c-0.915-1.517-1.917-2.937-2.934-4.337
				c13.053-13.053,25.277-27.228,36.572-42.433c1.46,0.918,2.942,1.812,4.506,2.605c30.196,15.333,68.132,1.255,84.733-31.442
				c16.6-32.694,5.579-71.63-24.617-86.961c-1.565-0.794-3.161-1.461-4.763-2.099c5.611-18.092,9.84-36.327,12.677-54.565
				C3099.042,1132.552,3100.78,1132.523,3102.544,1132.366z"/>
			<path style="fill:#D8DEE8;" d="M3061.76,1311.32c30.196,15.331,68.132,1.254,84.732-31.442
				c16.6-32.696,5.579-71.63-24.617-86.961c-1.564-0.795-3.161-1.463-4.763-2.101c5.61-18.092,9.841-36.326,12.677-54.566
				c1.731-0.006,3.468-0.034,5.232-0.192c34.45-3.071,61.793-34.728,61.073-70.709c-0.721-35.982-29.234-62.662-63.685-59.59
				c-1.801,0.162-3.569,0.445-5.328,0.758c-3.599-17.831-8.53-35.25-14.75-52.108c1.585-0.927,3.162-1.886,4.702-2.965
				c29.474-20.649,38.898-61.405,21.048-91.031c-17.851-29.625-56.215-36.901-85.688-16.252c-1.511,1.059-2.932,2.202-4.336,3.362
				c-11.642-12.87-24.41-24.796-38.224-35.68c0.971-1.592,1.922-3.206,2.782-4.9c16.6-32.696,5.579-71.63-24.617-86.962
				c-30.197-15.331-68.133-1.253-84.733,31.443c-0.86,1.693-1.601,3.413-2.314,5.137c-16.939-4.73-34.102-8-51.362-9.805
				c0.108-1.818,0.192-3.64,0.155-5.483c-0.722-35.98-29.235-62.66-63.686-59.589c-34.45,3.071-61.794,34.729-61.072,70.709
				c0.038,1.881,0.195,3.72,0.381,5.546c-17.281,4.926-34.252,11.224-50.772,18.841c-0.785-1.604-1.6-3.199-2.532-4.749
				c-17.85-29.626-56.215-36.901-85.689-16.251c-29.475,20.651-38.898,61.405-21.047,91.031c0.913,1.518,1.915,2.937,2.933,4.338
				c-13.053,13.054-25.277,27.228-36.572,42.433c-1.462-0.916-2.942-1.811-4.507-2.605c-30.196-15.332-68.132-1.254-84.732,31.442
				c-16.601,32.695-5.579,71.63,24.617,86.961c1.564,0.794,3.161,1.461,4.763,2.101c-5.611,18.092-9.841,36.325-12.677,54.566
				c-1.731,0.004-3.468,0.033-5.232,0.189c-34.451,3.073-61.793,34.73-61.073,70.711c0.721,35.982,29.235,62.66,63.686,59.589
				c1.801-0.159,3.57-0.443,5.327-0.756c3.599,17.831,8.529,35.25,14.75,52.108c-1.585,0.927-3.162,1.884-4.702,2.965
				c-29.473,20.648-38.898,61.405-21.048,91.03c17.851,29.626,56.215,36.901,85.689,16.252c1.51-1.058,2.932-2.201,4.336-3.361
				c11.642,12.869,24.41,24.795,38.224,35.68c-0.971,1.592-1.922,3.206-2.782,4.9c-16.6,32.695-5.579,71.63,24.617,86.961
				c30.197,15.331,68.133,1.254,84.733-31.442c0.86-1.693,1.601-3.414,2.314-5.137c16.939,4.729,34.102,8,51.362,9.804
				c-0.108,1.817-0.192,3.639-0.155,5.483c0.722,35.98,29.235,62.659,63.686,59.589c34.45-3.071,61.794-34.729,61.072-70.709
				c-0.038-1.88-0.195-3.719-0.381-5.545c17.281-4.926,34.252-11.224,50.772-18.842c0.785,1.604,1.6,3.2,2.533,4.747
				c17.851,29.626,56.214,36.902,85.688,16.252c29.476-20.651,38.898-61.406,21.048-91.032c-0.914-1.516-1.916-2.936-2.934-4.336
				c13.053-13.054,25.277-27.229,36.573-42.434C3058.714,1309.631,3060.194,1310.525,3061.76,1311.32z M2685.337,1316.096
				c-109.635-55.664-149.651-197.022-89.379-315.736c60.273-118.712,198.011-169.822,307.645-114.158
				c109.636,55.664,149.652,197.023,89.379,315.736C2932.71,1320.65,2794.972,1371.76,2685.337,1316.096z"/>
		</g>
		<g>
			<g>
				<defs>
					<path id="SVGID_1_" d="M2159.141,2476.764l245.394-177.482c0,0-44.85-159.292-169.24-204.636
						c-253.792-92.516-155.05-308.338-127.216-404.92c41.976-145.654,15.444-292.315-161.059-236.861
						s-192.997-268.317-91.304-493.776c99.514-220.627-235.254-524.833-494.484-67.089
						c-154.812,273.364,58.922,492.539,140.542,628.881c81.62,136.342-101.482,284.935,77.145,394.414
						c152.58,93.515,329.135,114.475,314.822,264.986C1879.428,2330.792,1945.686,2440.019,2159.141,2476.764z"/>
				</defs>
				<clipPath id="SVGID_00000007393806376823260660000010675572964498982308_">
					<use xlink:href="#SVGID_1_"  style="overflow:visible;"/>
				</clipPath>
				
					<linearGradient id="SVGID_00000123409175015427884040000011053192977797579141_" gradientUnits="userSpaceOnUse" x1="3426.1357" y1="-589.5435" x2="2823.2219" y2="1124.0023" gradientTransform="matrix(0.8103 -0.586 0.586 0.8103 -870.2359 3219.835)">
					<stop  offset="0.0036" style="stop-color:#E38DDD"/>
					<stop  offset="1" style="stop-color:#9571F6"/>
				</linearGradient>
				
					<path style="clip-path:url(#SVGID_00000007393806376823260660000010675572964498982308_);fill:url(#SVGID_00000123409175015427884040000011053192977797579141_);" d="
					M2159.141,2476.764l245.394-177.482c0,0-44.85-159.292-169.24-204.636c-253.792-92.516-155.05-308.338-127.216-404.92
					c41.976-145.654,13.861-274.286-148.341-253.605c-183.524,23.399-205.715-251.574-104.022-477.033
					c99.514-220.627-235.254-524.833-494.484-67.089c-154.812,273.364,58.922,492.539,140.542,628.881
					c81.62,136.342-101.482,284.935,77.145,394.414c152.58,93.515,329.135,114.475,314.822,264.986
					C1879.428,2330.792,1945.686,2440.019,2159.141,2476.764z"/>
				<g style="opacity:0.5;clip-path:url(#SVGID_00000007393806376823260660000010675572964498982308_);">
					<path style="fill:#BEB8F2;" d="M2281.82,2422.725l4.421-4.62c-2.862-2.738-288.328-277.862-489.083-635.934
						c-184.952-329.879-333.755-799.711,7.651-1164.645l-4.668-4.368c-151.979,162.451-221.13,358.823-205.535,583.662
						c12.457,179.608,78.75,377.639,197.037,588.591C1992.878,2144.287,2278.954,2419.98,2281.82,2422.725z"/>
					<path style="fill:#BEB8F2;" d="M1605.18,1290.494l4.677-4.361c-145.052-155.696-255.653-445.893-256.754-448.805l-5.982,2.257
						C1348.228,842.51,1459.277,1133.884,1605.18,1290.494z"/>
					<path style="fill:#BEB8F2;" d="M1598.895,1140.399c95.809-234.782,296.449-300.49,298.463-301.125l-1.922-6.096
						c-2.047,0.642-205.476,67.145-302.461,304.805L1598.895,1140.399z"/>
					<path style="fill:#BEB8F2;" d="M1941.158,2009.116c-118.728-286.139,170.141-586.3,173.2-588.989l-3.894-5.063
						c-3.252,2.355-294.994,307.823-175.21,596.502L1941.158,2009.116z"/>
					<path style="fill:#BEB8F2;" d="M1864.705,1906.777l4.31-4.726c-146.04-133.233-394.196-118.107-396.688-117.938l0.431,6.378
						C1475.224,1790.325,1720.707,1775.4,1864.705,1906.777z"/>
					<path style="fill:#BEB8F2;" d="M2242.273,2373.823c-61.286-100.469,19.999-273.908,20.825-275.649l-5.771-2.747
						c-3.444,7.229-83.607,178.293-20.511,281.726L2242.273,2373.823z"/>
					<path style="fill:#BEB8F2;" d="M2173.796,2309.58l4.476-4.566c-66.444-65.145-238.668-66.687-295.262-67.194
						c-7.998-0.072-14.902-0.134-16.13-0.387l-1.38,6.242c1.727,0.382,6.316,0.437,17.452,0.538
						C1938.909,2244.715,2109.193,2246.24,2173.796,2309.58z"/>
				</g>
			</g>
			<g>
				
					<linearGradient id="SVGID_00000029752994748094783720000013081815026224713890_" gradientUnits="userSpaceOnUse" x1="-1339.5306" y1="-503.2491" x2="-472.5147" y2="1774.9093" gradientTransform="matrix(-0.6023 0.7982 0.7982 0.6023 64.7755 2353.8584)">
					<stop  offset="0" style="stop-color:#FFC444"/>
					<stop  offset="0.9964" style="stop-color:#F36F56"/>
				</linearGradient>
				<path style="fill:url(#SVGID_00000029752994748094783720000013081815026224713890_);" d="M1644.903,2294.637
					c92.962,10.334,140.873,87.355,166.812,148.521c-4.991,7.474-5.956,13.047-9.307,21.675
					c-30.246,77.874-59.743,104.652-101.673,176.703c-9.026,15.509-49.36,52.972-66.824,67.221l-32.981,26.046
					c0,0-209.437-49.815-194.397-171.404c15.04-121.589-177.871-194.134-275.332-245.161c-59.848-31.335-77.181-64.836-97.324-79.88
					c-213.221-159.249-322.999-135.676-360.524-230.053c-41.424-104.185,80.502-162.734,41.427-278.452
					c-44.125-130.667-229.217-143.74-243.341-276.725c-2.422-22.799-4.29-46.292,4.679-75.531
					c22.139-72.172,89.772-98.087,68.458-174.04c-42.845-152.668,16.706-318.268,179.131-336.205
					c160.304-17.703,298.017,215.404,293.037,573.864c25.523,255.327,65.228,284.333,175.116,335.445
					c76.968,35.803,309.369,81.884,314.478,230.011C1511.451,2154.799,1538.63,2282.825,1644.903,2294.637z"/>
				<g>
					<defs>
						<path id="SVGID_00000020384908171027660230000017036744706139639456_" d="M1839.133,2523.643l-228.281,209.553
							c0,0-219.36-48.207-204.32-169.797c15.04-121.59-177.87-194.135-275.331-245.162
							c-264.437-138.45-48.757-409.374-372.263-615.706c-86.043-54.878-270.69-129.178-287.499-249.403
							c-19.15-136.971,100.549-151.893,73.136-249.571c-42.844-152.668,16.708-318.268,179.131-336.205
							c160.305-17.703,298.017,215.404,293.039,573.863c25.523,255.329,65.228,284.333,175.115,335.446
							c76.97,35.802,309.37,81.885,314.479,230.012c5.11,148.127,32.289,276.151,138.562,287.965
							C1806.609,2312.614,1839.133,2523.643,1839.133,2523.643z"/>
					</defs>
					<clipPath id="SVGID_00000136384604063888860430000013311111498989958802_">
						<use xlink:href="#SVGID_00000020384908171027660230000017036744706139639456_"  style="overflow:visible;"/>
					</clipPath>
					<g style="opacity:0.5;clip-path:url(#SVGID_00000136384604063888860430000013311111498989958802_);">
						<path style="fill:#FCFDFE;" d="M1727.668,2607.266l-4.002,4.66c-25.934-21.858-51.795-44.246-76.863-66.54
							c-185.596-165.082-347.737-342.802-481.918-528.235c-113.694-157.123-208.953-321.965-283.129-489.947
							c-59.652-135.091-106.055-272.937-137.92-409.712c-22.398-96.151-37.438-190.781-44.693-281.264
							c-1.267-15.768-1.676-32.032-2.07-47.763c-0.526-20.957-1.069-42.628-3.652-63.29l5.868-1.176
							c2.619,20.946,3.167,42.763,3.697,63.862c0.392,15.652,0.799,31.836,2.053,47.444c7.232,90.199,22.225,184.547,44.562,280.426
							c31.784,136.435,78.08,273.953,137.594,408.733c74.023,167.636,169.093,332.149,282.568,488.969
							c133.954,185.119,295.838,362.556,481.149,527.381C1675.942,2563.08,1701.766,2585.436,1727.668,2607.266z"/>
						<path style="fill:#FCFDFE;" d="M986.159,1724.408l-5.153,3.299c-124.477-211.651-525.059-350.285-529.091-351.658l2.279-5.634
							C458.246,1371.797,860.686,1511.063,986.159,1724.408z"/>
						<path style="fill:#FCFDFE;" d="M1388.611,2281.776l-4.78,3.848c-102.182-132.585-26.651-463.35-25.877-466.676l5.756,0.923
							C1362.942,1823.171,1288.025,2151.264,1388.611,2281.776z"/>
						<path style="fill:#FCFDFE;" d="M1453.476,2351.463l-4.092,4.584c-81.861-72.139-235.397-123.553-432.32-144.765
							c-9.902-1.067-9.902-1.067-10.724-1.769l4.039-4.632l-2.019,2.316l1.059-2.83c0.645,0.148,4.384,0.551,8.718,1.016
							C1216.185,2226.717,1370.79,2278.593,1453.476,2351.463z"/>
						<path style="fill:#FCFDFE;" d="M1680.954,2566.659l-5.14,3.316c-61.676-103.84,6.285-281.368,6.978-283.147l5.489,1.78
							C1687.598,2290.362,1620.692,2465.196,1680.954,2566.659z"/>
						<path style="fill:#FCFDFE;" d="M1722.851,2615.182c-92.88-31.733-199.957-36.974-327.35-16.021l-0.516-5.855
							c128.371-21.111,236.364-15.797,330.149,16.245L1722.851,2615.182z"/>
						<path style="fill:#FCFDFE;" d="M769.71,1195.873l-5.306,3.015c-62.353-122.06-157.26-233.575-188.448-270.219
							c-7.549-8.871-10.196-12.003-10.916-13.269l5.193-3.227c0.563,0.959,4.879,6.029,10.344,12.449
							C611.864,961.385,707.073,1073.256,769.71,1195.873z"/>
						<path style="fill:#FCFDFE;" d="M840.59,1411.676l-5.84,1.378c-20.854-129.301,135.456-355.413,142.12-364.976l4.761,3.143
							C980.015,1053.541,820.126,1284.79,840.59,1411.676z"/>
					</g>
				</g>
			</g>
			<g>
				
					<linearGradient id="SVGID_00000127034158349530281310000015005506387882711945_" gradientUnits="userSpaceOnUse" x1="4564.8872" y1="-1101.5481" x2="5419.9009" y2="306.0247" gradientTransform="matrix(-0.5322 0.8466 0.8466 0.5322 4308.2866 -2451.8408)">
					<stop  offset="0" style="stop-color:#FF9085"/>
					<stop  offset="1" style="stop-color:#FB6FBB"/>
				</linearGradient>
				<path style="fill:url(#SVGID_00000127034158349530281310000015005506387882711945_);" d="M1964.622,2140.306
					c-9.86,12.04-67.697-45.699-177.966-61.829c-27.549-4.03-176.282-36.432-240.481,58.319
					c-12.462,18.392-24.926,36.785-37.388,55.177c-52.406-10.309-99.888-29.734-80.286-96.96
					c30.442-104.399-117.448-197.238-185.55-204.925c-84.288-9.516-279.871-35.784-235.279-197.789
					c37.121-134.869,87.914-215.771-47.028-308.785c-134.943-93.015-172.004-226.166-80.186-354.196
					c96.625-134.732-9.114-357.604,122.338-436.213c229.051-136.968,423.826,231.552,360.629,528.988
					c-63.196,297.434,107.863,208.727,226.506,271.756c10.682,6.475,26.744,17.337,43.268,33.757
					c101.728,101.089,44.573,237.615,86.133,386.949C1776.011,2018.214,1981.233,2120.022,1964.622,2140.306z"/>
				<g>
					<defs>
						<path id="SVGID_00000171700365844954700600000004897141617309670544_" d="M1742.633,1898.212l-193.739,303.777
							c-52.27-7.675-142.288-31.883-120.393-106.975c30.441-104.401-117.449-197.238-185.55-204.926
							c-84.288-9.515-279.871-35.784-235.28-197.789c37.121-134.869,87.915-215.77-47.028-308.784
							c-134.943-93.015-172.003-226.167-80.185-354.196c96.624-134.731-9.116-357.604,122.338-436.211
							c229.05-136.969,423.824,231.551,360.628,528.986c-63.197,297.435,107.862,208.728,226.506,271.757
							c161.975,86.048-10.489,287.4,14.205,383.27C1623.496,1852.276,1695.287,1884.134,1742.633,1898.212z"/>
					</defs>
					<clipPath id="SVGID_00000128484118392986662060000007263832648636841115_">
						<use xlink:href="#SVGID_00000171700365844954700600000004897141617309670544_"  style="overflow:visible;"/>
					</clipPath>
					<g style="opacity:0.5;clip-path:url(#SVGID_00000128484118392986662060000007263832648636841115_);">
						<path style="fill:#FCFDFE;" d="M1605.869,2013.055l-5.33,5.71c-390.75-371.547-590.431-943.824-521.118-1493.504l7.487,0.543
							C1017.887,1073.169,1216.742,1643.052,1605.869,2013.055z"/>
						<path style="fill:#FCFDFE;" d="M1411.033,1790.995l-4.169,6.601c-180.786-110.753-424.29-34.751-426.729-33.969l-1.899-7.276
							C980.704,1755.557,1227.396,1678.498,1411.033,1790.995z"/>
						<path style="fill:#FCFDFE;" d="M1535.942,1942.613l-6.658,3.978c-103.623-190.1,94.279-553.385,96.292-557.032l6.543,3.432
							C1630.129,1396.598,1434.289,1756.128,1535.942,1942.613z"/>
						<path style="fill:#FCFDFE;" d="M1167.541,1316.693l-6.33,4.525c-95.038-142.408-358.001-176.836-360.646-177.167l1.338-7.586
							C804.58,1136.799,1070.748,1171.653,1167.541,1316.693z"/>
						<path style="fill:#FCFDFE;" d="M1088.275,976.119l-7.547,0.174c6.803-201.191,199.63-401.13,201.582-403.127l5.222,5.212
							C1285.602,580.348,1094.968,778.062,1088.275,976.119z"/>
					</g>
				</g>
			</g>
		</g>
		<g>
			<path style="fill:#97A6B7;" d="M3063.756,2391.341V1116.261c0-26.147-21.69-29.148-48.096-30.21L825.193,978.736
				c-33.335-1.34-60.691,21.694-60.691,51.192v1409.157L3063.756,2391.341z"/>
			<path style="fill:#97A6B7;" d="M764.502,2439.085v281.422c0,29.498,27.356,52.476,60.691,51.066l2180.69-111.399
				c26.406-1.116,57.873-4.631,57.873-30.777v-246.235L764.502,2439.085z"/>
			<path style="fill:#97A6B7;" d="M2288.691,2961.193c-39.476-13.094-68.981-46.596-77.301-87.774l-57.456-284.365l-491.492,17.453
				l-60.488,296.245c-8.472,41.489,25.44,83.113,64.495,98.393l205.629,80.455c38.246,14.964,79.357,20.925,120.218,17.429
				l434.569-37.177c12.704-1.087,22.894-11.072,24.372-23.884c1.479-12.811,10.379-27.196-1.735-31.214L2288.691,2961.193z"/>
			
				<linearGradient id="SVGID_00000097473474272613646360000006295816649055615888_" gradientUnits="userSpaceOnUse" x1="2029.4618" y1="2690.2043" x2="2036.9326" y2="2970.3667">
				<stop  offset="0" style="stop-color:#444B8C"/>
				<stop  offset="0.9964" style="stop-color:#26264F"/>
			</linearGradient>
			<path style="fill:url(#SVGID_00000097473474272613646360000006295816649055615888_);" d="M2293.555,2943.899
				c-39.436-12.929-68.911-46.011-77.222-86.671l-57.398-280.79l-479.51,17.252l-60.428,292.521
				c-8.463,40.967,13.929,82.049,52.945,97.138l205.422,79.444c38.207,14.776,79.277,20.661,120.096,17.21l434.132-36.709
				c12.691-1.073,22.871-10.934,24.348-23.584c1.477-12.65-6.158-24.591-18.26-28.558L2293.555,2943.899z"/>
			
				<linearGradient id="SVGID_00000128450117461345020120000006474383040654115744_" gradientUnits="userSpaceOnUse" x1="1578.1462" y1="1591.8463" x2="3061.9121" y2="2313.7776">
				<stop  offset="0" style="stop-color:#444B8C"/>
				<stop  offset="0.6447" style="stop-color:#313365"/>
				<stop  offset="0.9964" style="stop-color:#26264F"/>
			</linearGradient>
			<path style="fill:url(#SVGID_00000128450117461345020120000006474383040654115744_);" d="M3079.75,1116.255v1275.104
				l-1356.264,28.129l-945.498,19.61V1029.912c0-29.469,27.929-52.524,61.277-51.182l185.057,7.431l2006.651,80.652
				C3057.399,1067.864,3079.75,1090.12,3079.75,1116.255z"/>
			<g>
				
					<linearGradient id="SVGID_00000017486564819550619960000007020017264363665556_" gradientUnits="userSpaceOnUse" x1="846.9234" y1="1800.6053" x2="3027.365" y2="1800.6053">
					<stop  offset="0" style="stop-color:#FFFFFF"/>
					<stop  offset="0.9964" style="stop-color:#EBEFF2"/>
				</linearGradient>
				<path style="fill:url(#SVGID_00000017486564819550619960000007020017264363665556_);" d="M846.923,1226.04v1100.752
					c0,27.475,25.397,49.233,56.351,48.352l2079.026-59.126c24.813-0.707,45.064-21.331,45.064-45.836v-981.745L846.923,1226.04z"/>
				
					<linearGradient id="SVGID_00000038380082587620415390000000011001274484986762_" gradientUnits="userSpaceOnUse" x1="1480.8433" y1="-447.6128" x2="2201.8291" y2="2152.4773">
					<stop  offset="0" style="stop-color:#AA80F9"/>
					<stop  offset="0.9964" style="stop-color:#6165D7"/>
				</linearGradient>
				<path style="fill:url(#SVGID_00000038380082587620415390000000011001274484986762_);" d="M3027.365,1288.438v-112.667
					c0-24.003-19.836-44.381-44.139-45.288l-2081.101-77.639c-30.323-1.131-55.201,19.96-55.201,46.873v126.324L3027.365,1288.438z"
					/>
				<g>
					<path style="fill:#FFFFFF;" d="M999.049,1140.339c0,9.459-8.621,16.854-19.27,16.517c-10.664-0.337-19.321-8.3-19.321-17.785
						c0-9.484,8.657-16.879,19.321-16.516C990.429,1122.919,999.049,1130.88,999.049,1140.339z"/>
					<path style="fill:#FFFFFF;" d="M1082.107,1143.067c0,9.404-8.52,16.758-19.044,16.424c-10.54-0.333-19.096-8.248-19.096-17.677
						c0-9.429,8.556-16.781,19.096-16.422C1073.587,1125.75,1082.107,1133.663,1082.107,1143.067z"/>
					<path style="fill:#FFFFFF;" d="M1164.198,1145.762c0,9.349-8.421,16.661-18.823,16.332c-10.417-0.33-18.873-8.196-18.873-17.57
						c0-9.374,8.456-16.685,18.873-16.331C1155.777,1128.548,1164.198,1136.414,1164.198,1145.762z"/>
				</g>
			</g>
			
				<linearGradient id="SVGID_00000000193271698293399840000009362338673357090463_" gradientUnits="userSpaceOnUse" x1="1261.2181" y1="2242.0256" x2="2745.2361" y2="2964.0798">
				<stop  offset="0" style="stop-color:#444B8C"/>
				<stop  offset="0.9964" style="stop-color:#26264F"/>
			</linearGradient>
			<path style="fill:url(#SVGID_00000000193271698293399840000009362338673357090463_);" d="M3079.75,2383.167V2629.4
				c0,26.135-22.202,48.428-48.627,49.552l-79.754,3.371l-2111.936,89.243c-33.347,1.414-61.444-21.567-61.444-51.073v-281.396
				l942.671-22.908L3079.75,2383.167z"/>
			<path style="opacity:0.1;fill:#FFFFFF;" d="M2951.034,2682.323l-2111.768,89.243c-33.347,1.414-61.277-21.567-61.277-51.073
				V1029.912c0-29.469,27.929-52.524,61.277-51.182l185.057,7.431c28.383,19.03,53.796,42.519,74.096,70.43
				c0.906,1.232,1.852,2.465,2.685,3.697c15.766,22.401,27.006,45.781,34.871,69.85c3.48,10.512,6.29,21.132,8.573,31.898
				c5.111,23.815,7.622,48.137,8.673,72.786c2.248,52.089-1.845,105.555-1.627,158.224c0.435,106.751,7.109,213.429,77.936,299.374
				c52.452,63.652,137.89,87.829,208.791,124.839c82.755,43.208,155.362,100.516,197.408,185.627
				c51.618,104.467,3.154,217.924,36.141,325.835c2.536,8.337,5.545,16.457,8.99,24.322c9.968,22.946,23.524,43.97,39.728,63.145
				c0.906,1.123,1.848,2.211,2.827,3.299c63.109,72.533,164.133,117.843,251.707,139.773
				c179.719,44.948,366.107-32.95,544.521-39.075c128.536-4.386,306.297,24.612,400.833,121.286
				C2931.894,2653.143,2942.153,2667.027,2951.034,2682.323z"/>
		</g>
		<g>
			
				<linearGradient id="SVGID_00000013902202188159145760000002262938835399632554_" gradientUnits="userSpaceOnUse" x1="608.6694" y1="2797.5908" x2="1905.1766" y2="2797.5908">
				<stop  offset="0" style="stop-color:#FFC444"/>
				<stop  offset="0.9964" style="stop-color:#F36F56"/>
			</linearGradient>
			<polygon style="fill:url(#SVGID_00000013902202188159145760000002262938835399632554_);" points="608.669,2736.788 
				1211.087,2710.596 1905.177,2734.917 1220.441,2884.586 			"/>
			<g>
				
					<linearGradient id="SVGID_00000026845528960266137030000003172352798161463999_" gradientUnits="userSpaceOnUse" x1="752.2278" y1="3311.6072" x2="857.9146" y2="3071.2209">
					<stop  offset="0" style="stop-color:#AA80F9"/>
					<stop  offset="0.9964" style="stop-color:#6165D7"/>
				</linearGradient>
				<path style="fill:url(#SVGID_00000026845528960266137030000003172352798161463999_);" d="M1094.047,3317.297l-487.969-131.332
					c-49.143-13.226-87.325-61.918-87.325-109.137v-0.519c0-47.219,38.182-78.9,87.325-70.231l523.37,85.647L1094.047,3317.297z"/>
				<g>
					
						<linearGradient id="SVGID_00000168083073108132188020000016467386022483771809_" gradientUnits="userSpaceOnUse" x1="1040.8853" y1="3072.3442" x2="2265.844" y2="3341.7517">
						<stop  offset="0" style="stop-color:#F4F7FA"/>
						<stop  offset="0.9964" style="stop-color:#D8DEE8"/>
					</linearGradient>
					<path style="fill:url(#SVGID_00000168083073108132188020000016467386022483771809_);" d="M1906.013,3218.67l-788.455,88.051
						c-49.384,5.515-89.984-28.923-89.984-76.997v-32.613c0-48.074,40.601-90.278,89.984-94.209l788.455-62.76
						C1871.123,3105.094,1863.074,3165.858,1906.013,3218.67z"/>
					
						<linearGradient id="SVGID_00000113351914911230815390000002012376470218645935_" gradientUnits="userSpaceOnUse" x1="1006.3751" y1="3174.1372" x2="1921.4618" y2="3174.1372">
						<stop  offset="0" style="stop-color:#AA80F9"/>
						<stop  offset="0.9964" style="stop-color:#6165D7"/>
					</linearGradient>
					<path style="fill:url(#SVGID_00000113351914911230815390000002012376470218645935_);" d="M1912.875,3227.413l-788.71,89.429
						c-64.413,7.304-117.79-37.812-117.79-100.706v-0.691c0-62.894,53.377-118.225,117.79-123.249l788.71-61.515
						c4.745-0.37,8.587,3.581,8.587,8.825c0,5.244-3.841,9.808-8.587,10.194l-788.71,64.213
						c-51.819,4.219-94.605,48.799-94.605,99.313v0.689c0,50.514,42.786,86.906,94.605,81.208l788.71-86.73
						c4.745-0.522,8.587,3.307,8.587,8.551C1921.462,3222.188,1917.62,3226.875,1912.875,3227.413z"/>
				</g>
			</g>
			<g>
				
					<linearGradient id="SVGID_00000090992405866429295000000003363718800495191960_" gradientUnits="userSpaceOnUse" x1="905.6528" y1="2663.4319" x2="720.3679" y2="3287.551">
					<stop  offset="0" style="stop-color:#FFC444"/>
					<stop  offset="0.9964" style="stop-color:#F36F56"/>
				</linearGradient>
				<path style="fill:url(#SVGID_00000090992405866429295000000003363718800495191960_);" d="M1114.547,3092.253l-508.469-86.176
					c-49.143-8.669-87.325-73.085-87.325-143.985v-0.779c0-70.9,38.182-127.164,87.325-125.338l539.385,20.036L1114.547,3092.253z"
					/>
				<g>
					
						<linearGradient id="SVGID_00000054955952692858691610000005749590651937201548_" gradientUnits="userSpaceOnUse" x1="1096.875" y1="2817.7646" x2="2321.8345" y2="3087.1726">
						<stop  offset="0" style="stop-color:#F4F7FA"/>
						<stop  offset="0.9964" style="stop-color:#D8DEE8"/>
					</linearGradient>
					<path style="fill:url(#SVGID_00000054955952692858691610000005749590651937201548_);" d="M1906.013,3016.92l-744.266,56.137
						c-73.403,5.537-134.173-48.396-134.173-120.58v-48.969c0-72.184,60.77-132.357,134.173-134.358l744.266-20.29
						C1871.011,2846.185,1863.187,2937.32,1906.013,3016.92z"/>
					
						<linearGradient id="SVGID_00000055700541542585232610000015263017859628747442_" gradientUnits="userSpaceOnUse" x1="1006.3751" y1="2913.8628" x2="1921.4618" y2="2913.8628">
						<stop  offset="0" style="stop-color:#FFC444"/>
						<stop  offset="0.9964" style="stop-color:#F36F56"/>
					</linearGradient>
					<path style="fill:url(#SVGID_00000055700541542585232610000015263017859628747442_);" d="M1912.875,3030.681l-788.71,61.515
						c-64.413,5.024-117.79-67.642-117.79-162.078v-1.038c0-94.436,53.377-172.592,117.79-174.192l788.71-19.602
						c4.745-0.118,8.587,6.17,8.587,14.043s-3.841,14.372-8.587,14.514l-788.71,23.654c-51.819,1.554-94.605,64.544-94.605,140.392
						v1.034c0,75.848,42.786,134.437,94.605,130.662l788.71-57.463c4.745-0.346,8.587,5.758,8.587,13.631
						C1921.462,3023.628,1917.62,3030.311,1912.875,3030.681z"/>
				</g>
			</g>
			<path style="opacity:0.5;fill:#FFFFFF;" d="M956.872,3021.198l-108.688-18.994c-25.379-69.273-23.472-132.907,0-208.964
				l108.688,7.727C934.595,2881.001,937.967,2953.495,956.872,3021.198z"/>
		</g>
		<g>
			
				<linearGradient id="SVGID_00000115472866537010401460000004704414691414198166_" gradientUnits="userSpaceOnUse" x1="2776.8308" y1="3147.2563" x2="3066.0354" y2="3329.8042" gradientTransform="matrix(0.9995 0.0328 -0.0328 0.9995 -43.6455 -31.1433)">
				<stop  offset="0" style="stop-color:#AB316D"/>
				<stop  offset="1" style="stop-color:#792D3D"/>
			</linearGradient>
			<path style="fill:url(#SVGID_00000115472866537010401460000004704414691414198166_);" d="M3276.571,3159.243l-1187.333,84.846
				l6.129,85.752l1187.331-84.846C3293.36,3215.503,3291.319,3186.919,3276.571,3159.243z"/>
			
				<linearGradient id="SVGID_00000168811860997571774690000012133560024487821699_" gradientUnits="userSpaceOnUse" x1="215.4339" y1="1313.3434" x2="72.8747" y2="1333.9189" gradientTransform="matrix(-0.0713 -0.9975 0.9975 -0.0713 1369.791 3435.6033)">
				<stop  offset="0" style="stop-color:#AB316D"/>
				<stop  offset="1" style="stop-color:#792D3D"/>
			</linearGradient>
			<path style="fill:url(#SVGID_00000168811860997571774690000012133560024487821699_);" d="M3288.927,3218.03
				c1.07-10.881,0.343-21.633-2.181-32.257l-1195.57,85.435l2.305,32.249L3288.927,3218.03z"/>
			
				<linearGradient id="SVGID_00000001649880505077962390000000950786802438931841_" gradientUnits="userSpaceOnUse" x1="123.9525" y1="459.8164" x2="53.6145" y2="1161.4385" gradientTransform="matrix(-0.0713 -0.9975 0.9975 -0.0713 1369.791 3435.6033)">
				<stop  offset="0" style="stop-color:#FFC444"/>
				<stop  offset="0.9964" style="stop-color:#F36F56"/>
			</linearGradient>
			<path style="fill:url(#SVGID_00000001649880505077962390000000950786802438931841_);" d="M2089.239,3244.09
				c18.537,27.079,20.769,55.646,6.128,85.752l-271.636-20.882c-3.126-0.358-3.442-4.777-0.398-5.576L2089.239,3244.09z"/>
			
				<linearGradient id="SVGID_00000042015683207170768960000012346533872094280618_" gradientUnits="userSpaceOnUse" x1="100.6573" y1="398.4922" x2="94.7793" y2="651.249" gradientTransform="matrix(-0.0713 -0.9975 0.9975 -0.0713 1369.791 3435.6033)">
				<stop  offset="0" style="stop-color:#AB316D"/>
				<stop  offset="1" style="stop-color:#792D3D"/>
			</linearGradient>
			<path style="fill:url(#SVGID_00000042015683207170768960000012346533872094280618_);" d="M1823.73,3308.96l105.594,8.117
				c2.195-12.529,1.316-24.779-2.583-36.752l-103.41,23.059C1820.288,3304.183,1820.604,3308.602,1823.73,3308.96z"/>
		</g>
		
			<linearGradient id="SVGID_00000026153706845694347450000003753126347733767324_" gradientUnits="userSpaceOnUse" x1="2672.7869" y1="1037.7272" x2="2778.2322" y2="1037.7272">
			<stop  offset="0" style="stop-color:#AB316D"/>
			<stop  offset="1" style="stop-color:#792D3D"/>
		</linearGradient>
		<path style="fill:url(#SVGID_00000026153706845694347450000003753126347733767324_);" d="M2672.787,1052.416v-1.304
			c0-18.815,14.985-33.97,33.247-33.623l12.465-0.632l59.734,23.114v18.625L2672.787,1052.416z"/>
		<path style="fill:#D8DEE8;" d="M2994.18,1448.665l-132.97-102.242l-134.336,96.008v-322.625c0-25.155-11.68-49.34-31.674-65.553
			l-1.034-0.839l253.523,9.656c25.698,0.979,46.492,22.651,46.492,48.408V1448.665z"/>
		
			<linearGradient id="SVGID_00000098223258676278803060000016654099975887579320_" gradientUnits="userSpaceOnUse" x1="3045.3433" y1="912.6222" x2="2651.2168" y2="1611.1541">
			<stop  offset="0" style="stop-color:#FF9085"/>
			<stop  offset="1" style="stop-color:#FB6FBB"/>
		</linearGradient>
		<path style="fill:url(#SVGID_00000098223258676278803060000016654099975887579320_);" d="M3018.514,1435.223l-132.969-108.221
			l-134.337,101.623v-341.492c0-26.626-11.68-52.225-31.674-69.386l-1.035-0.888l253.523,10.22
			c25.698,1.036,46.492,23.976,46.492,51.24V1435.223z"/>
		<g>
			
				<linearGradient id="SVGID_00000160872837985858578750000006966624049675408278_" gradientUnits="userSpaceOnUse" x1="2781.2319" y1="4162.1934" x2="2797.4421" y2="2956.207">
				<stop  offset="0" style="stop-color:#444B8C"/>
				<stop  offset="0.9964" style="stop-color:#26264F"/>
			</linearGradient>
			<path style="fill:url(#SVGID_00000160872837985858578750000006966624049675408278_);" d="M3132.022,2294.484l-2.103,711.676
				c-0.103,34.893-28.321,66.636-63.682,70.256l-520.288,53.26c-40.075,4.103-72.866-23.602-72.866-61.15v-766.026
				c0-35.556,29.095-64.893,66.016-68.447c2.356-0.228,4.752-0.306,7.163-0.318l522.222-2.49
				C3103.97,2231.075,3132.126,2259.346,3132.022,2294.484z"/>
			
				<linearGradient id="SVGID_00000129894034232026423260000006309013213859443370_" gradientUnits="userSpaceOnUse" x1="2820.312" y1="4155.0522" x2="2836.4653" y2="2953.3125">
				<stop  offset="0" style="stop-color:#AA80F9"/>
				<stop  offset="0.9964" style="stop-color:#6165D7"/>
			</linearGradient>
			<path style="fill:url(#SVGID_00000129894034232026423260000006309013213859443370_);" d="M3168.907,2293.964l-2.181,709.472
				c-0.107,34.785-26.686,66.271-61.815,69.867l-516.729,52.898c-39.795,4.074-74.003-23.379-73.998-60.802l0.106-763.473
				c0.005-35.437,29.714-64.679,66.384-68.22c2.34-0.227,5.535-0.309,7.93-0.32l518.665-2.473
				C3142.519,2230.744,3169.015,2258.935,3168.907,2293.964z"/>
			<g style="opacity:0.3;">
				
					<linearGradient id="SVGID_00000139998834416153273440000008334956971312531082_" gradientUnits="userSpaceOnUse" x1="2514.2627" y1="2361.8345" x2="3168.9106" y2="2361.8345">
					<stop  offset="0" style="stop-color:#AA80F9"/>
					<stop  offset="0.9964" style="stop-color:#6165D7"/>
				</linearGradient>
				<path style="fill:url(#SVGID_00000139998834416153273440000008334956971312531082_);" d="M3168.91,2292.956l-0.548,178.309
					l-654.099,21.492l0.027-191.916c0.005-34.591,28.361-62.743,63.791-67.371c3.167-0.425,7.234-0.069,10.522-0.084l518.665-2.473
					C3142.519,2230.744,3169.018,2257.927,3168.91,2292.956z"/>
				
					<linearGradient id="SVGID_00000067914756784981842940000015129332232451013546_" gradientUnits="userSpaceOnUse" x1="2514.2598" y1="2463.7061" x2="3168.5305" y2="2463.7061">
					<stop  offset="0" style="stop-color:#AA80F9"/>
					<stop  offset="0.9964" style="stop-color:#6165D7"/>
				</linearGradient>
				<path style="fill:url(#SVGID_00000067914756784981842940000015129332232451013546_);" d="M3168.531,2416.463l-0.228,74.093
					c-63.46,20.073-180.253,36.307-314.263,41.471c-59.19,2.281-116.406,2.204-168.119,0.062
					c-68.862-2.854-127.007-9.363-171.661-18.57l0.011-79.743c16.804-4.133,32.245-7.969,50.569-11.587
					c39.829-7.866,87.777-14.49,140.176-19.366c46.812-4.367,97.62-7.322,150.02-8.529c67.431-1.553,130.041-0.033,183.853,3.912
					c4.186,0.298,8.363,0.627,12.438,0.957c12.869,1.055,25.23,2.251,36.981,3.59c4.158,0.467,8.252,0.954,12.26,1.464
					c9.214,1.16,17.132,2.42,25.518,3.747C3142.162,2410.507,3156.415,2413.346,3168.531,2416.463z"/>
			</g>
			<path style="fill:#FFFFFF;" d="M3136.885,2433.61c-0.031,10.601-8.664,19.458-19.305,19.783l-536.826,16.422
				c-12.039,0.368-21.819-8.503-21.815-19.816l0.043-128.209c0.004-11.327,9.797-20.629,21.846-20.776l537.204-6.528
				c10.649-0.129,19.237,8.371,19.205,18.985L3136.885,2433.61z"/>
			
				<linearGradient id="SVGID_00000181799174496955932850000014619173945492106387_" gradientUnits="userSpaceOnUse" x1="2852.2688" y1="2200.6553" x2="2807.9749" y2="3210.5408">
				<stop  offset="0.0036" style="stop-color:#E38DDD"/>
				<stop  offset="1" style="stop-color:#9571F6"/>
			</linearGradient>
			<path style="fill:url(#SVGID_00000181799174496955932850000014619173945492106387_);" d="M3124.678,2431.273
				c-0.019,6.705-5.485,12.301-12.217,12.5l-534.194,15.735c-7.605,0.224-13.777-5.383-13.774-12.524l0.046-127.619
				c0.003-7.15,6.183-13.024,13.793-13.121l534.537-6.799c6.736-0.086,12.174,5.287,12.155,12L3124.678,2431.273z"/>
			<g>
				<g>
					<g>
						
							<linearGradient id="SVGID_00000037667204949417037290000014770698604452470199_" gradientUnits="userSpaceOnUse" x1="3046.1853" y1="2312.6946" x2="3037.498" y2="2510.7593">
							<stop  offset="0" style="stop-color:#311944"/>
							<stop  offset="1" style="stop-color:#A03976"/>
						</linearGradient>
						<path style="fill:url(#SVGID_00000037667204949417037290000014770698604452470199_);" d="M3050.841,2360.172
							c-0.009,3.325-2.74,5.506-6.102,5.561l-0.281,0.004c-3.366,0.055-6.089-1.99-6.081-5.32l0.062-24.731
							c0.008-3.331,2.746-5.846,6.112-5.904l0.281-0.005c3.364-0.057,6.081,2.373,6.073,5.699L3050.841,2360.172z"/>
						
							<linearGradient id="SVGID_00000167373241606094534340000000825955224131663522_" gradientUnits="userSpaceOnUse" x1="3095.7632" y1="2311.8354" x2="3087.0671" y2="2510.1018">
							<stop  offset="0" style="stop-color:#311944"/>
							<stop  offset="1" style="stop-color:#A03976"/>
						</linearGradient>
						<path style="fill:url(#SVGID_00000167373241606094534340000000825955224131663522_);" d="M3100.344,2359.3
							c-0.009,3.306-2.71,5.574-6.034,5.628l-0.278,0.005c-3.327,0.054-6.019-2.079-6.01-5.39l0.067-24.661
							c0.009-3.312,2.716-5.885,6.044-5.941l0.278-0.005c3.325-0.056,6.011,2.431,6.002,5.739L3100.344,2359.3z"/>
					</g>
					<g>
						
							<linearGradient id="SVGID_00000049928088381207718940000003655726406756427158_" gradientUnits="userSpaceOnUse" x1="3046.1492" y1="2365.4167" x2="3036.8445" y2="2577.5605">
							<stop  offset="0" style="stop-color:#311944"/>
							<stop  offset="1" style="stop-color:#A03976"/>
						</linearGradient>
						<path style="fill:url(#SVGID_00000049928088381207718940000003655726406756427158_);" d="M3050.703,2415.502
							c-0.009,3.324-2.739,6.68-6.101,6.73l-0.281,0.004c-3.365,0.051-6.088-3.085-6.08-6.413l0.062-25.445
							c0.008-3.329,2.745-6.611,6.111-6.665l0.281-0.004c3.363-0.053,6.08,3.059,6.071,6.383L3050.703,2415.502z"/>
						
							<linearGradient id="SVGID_00000174566205215984988830000014473059330306926227_" gradientUnits="userSpaceOnUse" x1="3095.8474" y1="2360.8284" x2="3085.9136" y2="2587.3186">
							<stop  offset="0" style="stop-color:#311944"/>
							<stop  offset="1" style="stop-color:#A03976"/>
						</linearGradient>
						<path style="fill:url(#SVGID_00000174566205215984988830000014473059330306926227_);" d="M3100.195,2414.506
							c-0.009,3.305-2.709,4.361-6.033,6.982l-0.278,0.004c-3.327,0.05-6.018-3.358-6.009-6.668l0.067-26.57
							c0.009-3.31,2.715-7.843,6.042-7.896l0.278-0.004c3.324-0.053,6.01,4.313,6.001,7.618L3100.195,2414.506z"/>
					</g>
				</g>
				<g>
					
						<linearGradient id="SVGID_00000032631102558662526730000017471526476346931632_" gradientUnits="userSpaceOnUse" x1="6163.0288" y1="-5343.6201" x2="6154.6421" y2="-5152.4033" gradientTransform="matrix(0 1 -1 0 -2239 -3789)">
						<stop  offset="0" style="stop-color:#311944"/>
						<stop  offset="1" style="stop-color:#A03976"/>
					</linearGradient>
					<path style="opacity:0.3;fill:url(#SVGID_00000032631102558662526730000017471526476346931632_);" d="M3088.155,2372.25
						c0,3.311-2.8,6.074-6.134,6.146l-23.815,0.547c-3.356,0.073-4.816-2.562-4.816-5.888v-0.278c0-3.325,1.448-6.066,4.804-6.135
						l24.505-0.526c3.334-0.068,5.456,2.545,5.456,5.856V2372.25z"/>
					<g>
						
							<linearGradient id="SVGID_00000013183446721793264360000001776751661431247264_" gradientUnits="userSpaceOnUse" x1="6111.3867" y1="-5343.6299" x2="6102.9976" y2="-5152.3599" gradientTransform="matrix(0 1 -1 0 -2239 -3789)">
							<stop  offset="0" style="stop-color:#311944"/>
							<stop  offset="1" style="stop-color:#A03976"/>
						</linearGradient>
						<path style="fill:url(#SVGID_00000013183446721793264360000001776751661431247264_);" d="M3088.155,2320.723
							c0,3.312-2.731,6.059-6.066,6.112l-23.852,0.395c-3.357,0.053-4.848-2.603-4.848-5.929v-0.278
							c0-3.327,1.515-6.051,4.872-6.099l24.474-0.375c3.335-0.048,5.42,2.585,5.42,5.897V2320.723z"/>
						
							<linearGradient id="SVGID_00000017491007098659145130000017507286907851603848_" gradientUnits="userSpaceOnUse" x1="6217.1973" y1="-5344.876" x2="6208.1689" y2="-5139.0283" gradientTransform="matrix(0 1 -1 0 -2239 -3789)">
							<stop  offset="0" style="stop-color:#311944"/>
							<stop  offset="1" style="stop-color:#A03976"/>
						</linearGradient>
						<path style="fill:url(#SVGID_00000017491007098659145130000017507286907851603848_);" d="M3088.155,2426.206
							c0,3.309-2.873,6.089-6.206,6.182l-25.115,0.696c-3.355,0.094-6.118-2.53-6.118-5.853v-0.278c0-3.323,2.715-6.073,6.07-6.162
							l25.205-0.68c3.333-0.089,6.164,2.509,6.164,5.818V2426.206z"/>
					</g>
				</g>
			</g>
			<path style="opacity:0.3;fill:#FFFFFF;" d="M2894.076,3048.859c-2.122,11.869-5.62,23.877-10.871,35.235
				c-1.866,4.035-3.979,8.248-6.296,12.55l-288.728,29.558c-39.795,4.074-74.003-23.379-73.998-60.802l0.106-764.558
				c0.005-34.591,28.361-63.325,63.791-67.951c0.861,0.244,2.139,0.507,3.01,0.772c37.266,11.272,77.864,32.296,102.103,71.629
				c15.142,24.543,24.141,56.307,22.126,97.524c-0.512,10.658-1.711,21.959-3.775,33.945c-1.201,6.965-2.399,14.08-3.623,21.335
				c-1.527,9.06-3.032,18.324-4.493,27.748c-2.328,15.084-4.473,30.561-6.198,46.197c-1.647,14.988-2.9,30.134-3.53,45.233
				c-0.115,2.916-0.216,5.841-0.286,8.754c-0.244,9.443-0.217,18.841,0.133,28.159c0.229,6.381,0.616,12.712,1.158,18.991
				c3.078,35.329,11.39,68.938,28.045,98.088c12.586,22.016,31.524,38.769,51.402,54.236c5.243,4.073,10.546,8.063,15.82,12.039
				c18.083,13.623,35.308,27.778,50.633,43.677c0.378,0.389,0.756,0.789,1.124,1.179c7.413,7.787,14.371,15.999,20.756,24.781
				c7.094,9.752,13.038,20.074,18.018,30.853c1.922,4.139,3.693,8.361,5.335,12.632c2.834,7.332,5.271,14.867,7.395,22.559
				c0.955,3.449,1.889,6.952,2.78,10.498c0.043,0.131,0.085,0.272,0.106,0.415c3.594,14.06,6.692,28.76,8.605,43.71
				C2897.294,3008.035,2897.671,3028.696,2894.076,3048.859z"/>
			<g>
				<g>
					<g>
						
							<linearGradient id="SVGID_00000004537231255427681700000011135302557388901815_" gradientUnits="userSpaceOnUse" x1="3182.9402" y1="2295.7083" x2="2149.0835" y2="2870.8337">
							<stop  offset="0" style="stop-color:#444B8C"/>
							<stop  offset="0.9964" style="stop-color:#3E4177"/>
						</linearGradient>
						<path style="fill:url(#SVGID_00000004537231255427681700000011135302557388901815_);" d="M2684.827,2622.222
							c-0.007,7.51-6.434,13.913-14.367,14.304l-96.876,4.774c-8.119,0.4-14.708-5.447-14.706-13.061l0.012-34.771
							c0.003-7.617,6.598-14.072,14.719-14.417l96.903-4.117c7.936-0.337,14.354,5.48,14.347,12.992L2684.827,2622.222z"/>
						
							<linearGradient id="SVGID_00000044166273055928761260000017773309564577521800_" gradientUnits="userSpaceOnUse" x1="3205.0759" y1="2364.4294" x2="2203.6418" y2="2921.5183">
							<stop  offset="0" style="stop-color:#444B8C"/>
							<stop  offset="0.9964" style="stop-color:#3E4177"/>
						</linearGradient>
						<path style="fill:url(#SVGID_00000044166273055928761260000017773309564577521800_);" d="M2841.398,2614.741
							c-0.012,7.38-6.223,13.668-13.884,14.045l-93.531,4.609c-7.837,0.386-14.193-5.364-14.185-12.844l0.036-34.163
							c0.008-7.483,6.379-13.821,14.218-14.154l93.556-3.975c7.663-0.325,13.856,5.396,13.844,12.779L2841.398,2614.741z"/>
						
							<linearGradient id="SVGID_00000148654149424227461740000007211082868158343324_" gradientUnits="userSpaceOnUse" x1="3225.1721" y1="2428.9009" x2="2253.5337" y2="2969.4148">
							<stop  offset="0" style="stop-color:#444B8C"/>
							<stop  offset="0.9964" style="stop-color:#3E4177"/>
						</linearGradient>
						<path style="fill:url(#SVGID_00000148654149424227461740000007211082868158343324_);" d="M2987.601,2607.755
							c-0.017,7.259-6.029,13.439-13.44,13.804l-90.462,4.458c-7.578,0.373-13.72-5.286-13.708-12.643l0.058-33.595
							c0.013-7.359,6.177-13.586,13.758-13.908l90.485-3.844c7.413-0.315,13.4,5.317,13.384,12.578L2987.601,2607.755z"/>
						
							<linearGradient id="SVGID_00000169519963308986282770000011518921771024775350_" gradientUnits="userSpaceOnUse" x1="3252.5508" y1="2489.3826" x2="2310.2744" y2="3013.5625">
							<stop  offset="0" style="stop-color:#444B8C"/>
							<stop  offset="0.9964" style="stop-color:#3E4177"/>
						</linearGradient>
						<path style="fill:url(#SVGID_00000169519963308986282770000011518921771024775350_);" d="M3133.956,2600.762
							c-0.021,7.138-5.837,13.209-13.002,13.563l-87.441,4.309c-7.323,0.361-13.255-5.208-13.238-12.44l0.08-33.026
							c0.018-7.234,5.979-13.352,13.304-13.663l87.462-3.716c7.167-0.305,12.951,5.238,12.93,12.378L3133.956,2600.762z"/>
					</g>
					<g>
						
							<linearGradient id="SVGID_00000029735103443767665150000015248251982956651911_" gradientUnits="userSpaceOnUse" x1="3235.3047" y1="2377.4277" x2="2196.3979" y2="2955.3623">
							<stop  offset="0" style="stop-color:#444B8C"/>
							<stop  offset="0.9964" style="stop-color:#3E4177"/>
						</linearGradient>
						<path style="fill:url(#SVGID_00000029735103443767665150000015248251982956651911_);" d="M2684.728,2732.328
							c-0.007,7.502-6.431,13.978-14.361,14.465l-96.829,5.95c-8.114,0.499-14.701-5.262-14.698-12.868l0.012-34.737
							c0.003-7.609,6.595-14.138,14.712-14.582l96.855-5.294c7.932-0.433,14.346,5.3,14.34,12.805L2684.728,2732.328z"/>
						
							<linearGradient id="SVGID_00000146481164353857493870000002748541725504454281_" gradientUnits="userSpaceOnUse" x1="3255.1338" y1="2445.4622" x2="2248.8145" y2="3005.2688">
							<stop  offset="0" style="stop-color:#444B8C"/>
							<stop  offset="0.9964" style="stop-color:#3E4177"/>
						</linearGradient>
						<path style="fill:url(#SVGID_00000146481164353857493870000002748541725504454281_);" d="M2841.224,2722.947
							c-0.012,7.373-6.22,13.73-13.877,14.201l-93.487,5.744c-7.833,0.481-14.186-5.186-14.178-12.659l0.036-34.129
							c0.008-7.476,6.376-13.885,14.211-14.313l93.512-5.111c7.66-0.419,13.85,5.222,13.838,12.597L2841.224,2722.947z"/>
						
							<linearGradient id="SVGID_00000012456565251692711740000004531365832520297103_" gradientUnits="userSpaceOnUse" x1="3273.1018" y1="2509.28" x2="2296.73" y2="3052.427">
							<stop  offset="0" style="stop-color:#444B8C"/>
							<stop  offset="0.9964" style="stop-color:#3E4177"/>
						</linearGradient>
						<path style="fill:url(#SVGID_00000012456565251692711740000004531365832520297103_);" d="M2987.36,2714.187
							c-0.016,7.252-6.026,13.499-13.434,13.954l-90.42,5.556c-7.575,0.465-13.714-5.114-13.701-12.463l0.058-33.562
							c0.013-7.352,6.175-13.648,13.751-14.062l90.444-4.943c7.41-0.405,13.394,5.148,13.377,12.403L2987.36,2714.187z"/>
						
							<linearGradient id="SVGID_00000020378514865027338430000004122519959788908448_" gradientUnits="userSpaceOnUse" x1="3298.4128" y1="2569.074" x2="2351.5537" y2="3095.8035">
							<stop  offset="0" style="stop-color:#444B8C"/>
							<stop  offset="0.9964" style="stop-color:#3E4177"/>
						</linearGradient>
						<path style="fill:url(#SVGID_00000020378514865027338430000004122519959788908448_);" d="M3133.65,2705.417
							c-0.021,7.131-5.835,13.268-12.997,13.708l-87.402,5.371c-7.32,0.45-13.25-5.042-13.232-12.267l0.08-32.995
							c0.017-7.228,5.976-13.412,13.298-13.812l87.424-4.779c7.164-0.392,12.946,5.075,12.925,12.208L3133.65,2705.417z"/>
					</g>
					<g>
						
							<linearGradient id="SVGID_00000090261942033394630530000005419403357379697288_" gradientUnits="userSpaceOnUse" x1="3288.0728" y1="2456.2383" x2="2244.2412" y2="3036.9124">
							<stop  offset="0" style="stop-color:#444B8C"/>
							<stop  offset="0.9964" style="stop-color:#3E4177"/>
						</linearGradient>
						<path style="fill:url(#SVGID_00000090261942033394630530000005419403357379697288_);" d="M2684.631,2839.769
							c-0.007,7.495-6.428,14.041-14.354,14.622l-96.783,7.096c-8.111,0.594-14.694-5.082-14.691-12.681l0.012-34.703
							c0.002-7.602,6.592-14.203,14.705-14.742l96.809-6.441c7.928-0.527,14.34,5.124,14.333,12.622L2684.631,2839.769z"/>
						
							<linearGradient id="SVGID_00000139977111489226645220000016066185491176086189_" gradientUnits="userSpaceOnUse" x1="3305.6008" y1="2523.6326" x2="2294.5176" y2="3086.0894">
							<stop  offset="0" style="stop-color:#444B8C"/>
							<stop  offset="0.9964" style="stop-color:#3E4177"/>
						</linearGradient>
						<path style="fill:url(#SVGID_00000139977111489226645220000016066185491176086189_);" d="M2841.054,2828.535
							c-0.012,7.365-6.217,13.791-13.871,14.352l-93.444,6.851c-7.829,0.574-14.179-5.012-14.172-12.478l0.036-34.096
							c0.008-7.469,6.373-13.947,14.204-14.468l93.469-6.219c7.656-0.51,13.844,5.052,13.832,12.42L2841.054,2828.535z"/>
						
							<linearGradient id="SVGID_00000158735156510844657050000014152775690806117805_" gradientUnits="userSpaceOnUse" x1="3321.4424" y1="2586.842" x2="2340.4551" y2="3132.5566">
							<stop  offset="0" style="stop-color:#444B8C"/>
							<stop  offset="0.9964" style="stop-color:#3E4177"/>
						</linearGradient>
						<path style="fill:url(#SVGID_00000158735156510844657050000014152775690806117805_);" d="M2987.125,2818.045
							c-0.017,7.245-6.023,13.557-13.428,14.1l-90.38,6.626c-7.571,0.555-13.708-4.946-13.695-12.288l0.058-33.53
							c0.013-7.345,6.172-13.708,13.745-14.212l90.403-6.015c7.406-0.493,13.388,4.984,13.372,12.232L2987.125,2818.045z"/>
						
							<linearGradient id="SVGID_00000080190776393886950650000003389751790527827078_" gradientUnits="userSpaceOnUse" x1="3344.6868" y1="2645.9939" x2="2393.3589" y2="3175.2092">
							<stop  offset="0" style="stop-color:#444B8C"/>
							<stop  offset="0.9964" style="stop-color:#3E4177"/>
						</linearGradient>
						<path style="fill:url(#SVGID_00000080190776393886950650000003389751790527827078_);" d="M3133.352,2807.544
							c-0.021,7.124-5.832,13.324-12.991,13.849l-87.365,6.405c-7.317,0.537-13.244-4.879-13.226-12.097l0.079-32.964
							c0.017-7.221,5.974-13.47,13.293-13.957l87.386-5.814c7.161-0.477,12.94,4.916,12.919,12.043L3133.352,2807.544z"/>
					</g>
					
						<linearGradient id="SVGID_00000109719574587699813270000007478471020542564506_" gradientUnits="userSpaceOnUse" x1="3341.2271" y1="2532.157" x2="2292.5967" y2="3115.5007">
						<stop  offset="0" style="stop-color:#444B8C"/>
						<stop  offset="0.9964" style="stop-color:#3E4177"/>
					</linearGradient>
					<path style="fill:url(#SVGID_00000109719574587699813270000007478471020542564506_);" d="M2684.536,2944.552
						c-0.007,7.488-6.425,14.102-14.347,14.774l-96.738,8.212c-8.107,0.688-14.687-4.907-14.684-12.498l0.012-34.669
						c0.002-7.594,6.589-14.266,14.698-14.899l96.764-7.559c7.925-0.619,14.333,4.953,14.326,12.443L2684.536,2944.552z"/>
					
						<linearGradient id="SVGID_00000167373854127324770110000007609865448899269799_" gradientUnits="userSpaceOnUse" x1="3356.457" y1="2598.959" x2="2340.7314" y2="3163.998">
						<stop  offset="0" style="stop-color:#444B8C"/>
						<stop  offset="0.9964" style="stop-color:#3E4177"/>
					</linearGradient>
					<path style="fill:url(#SVGID_00000167373854127324770110000007609865448899269799_);" d="M2840.889,2931.513
						c-0.012,7.359-6.214,13.85-13.865,14.5l-93.402,7.929c-7.826,0.664-14.173-4.843-14.165-12.302l0.036-34.064
						c0.008-7.462,6.37-14.008,14.198-14.619l93.427-7.298c7.653-0.598,13.837,4.886,13.825,12.248L2840.889,2931.513z"/>
					
						<linearGradient id="SVGID_00000114763848497900502130000008352500858953434021_" gradientUnits="userSpaceOnUse" x1="3370.1782" y1="2661.6025" x2="2384.6924" y2="3209.8193">
						<stop  offset="0" style="stop-color:#444B8C"/>
						<stop  offset="0.9964" style="stop-color:#3E4177"/>
					</linearGradient>
					<path style="fill:url(#SVGID_00000114763848497900502130000008352500858953434021_);" d="M2986.896,2919.337
						c-0.016,7.239-6.021,13.615-13.422,14.243l-90.341,7.669c-7.568,0.643-13.702-4.782-13.689-12.117l0.058-33.5
						c0.013-7.338,6.169-13.767,13.739-14.358l90.364-7.059c7.403-0.578,13.383,4.824,13.366,12.065L2986.896,2919.337z"/>
					
						<linearGradient id="SVGID_00000139973711152530585250000013452656244439042204_" gradientUnits="userSpaceOnUse" x1="3395.0889" y1="2615.2896" x2="2341.3167" y2="3201.4937">
						<stop  offset="0" style="stop-color:#444B8C"/>
						<stop  offset="0.9964" style="stop-color:#3E4177"/>
					</linearGradient>
					<path style="fill:url(#SVGID_00000139973711152530585250000013452656244439042204_);" d="M2684.434,3056.891
						c-0.007,7.48-6.421,14.167-14.34,14.938l-96.689,9.408c-8.103,0.788-14.679-4.719-14.677-12.303l0.012-34.634
						c0.002-7.587,6.585-14.333,14.69-15.067l96.715-8.756c7.921-0.717,14.326,4.769,14.319,12.252L2684.434,3056.891z"/>
					
						<linearGradient id="SVGID_00000011754118550020132020000008692798572749189795_" gradientUnits="userSpaceOnUse" x1="3407.9514" y1="2681.4045" x2="2387.2515" y2="3249.2109">
						<stop  offset="0" style="stop-color:#444B8C"/>
						<stop  offset="0.9964" style="stop-color:#3E4177"/>
					</linearGradient>
					<path style="fill:url(#SVGID_00000011754118550020132020000008692798572749189795_);" d="M2840.711,3041.919
						c-0.012,7.352-6.211,13.913-13.858,14.657l-93.357,9.083c-7.822,0.761-14.166-4.661-14.158-12.113l0.036-34.03
						c0.008-7.454,6.367-14.073,14.191-14.781l93.381-8.454c7.649-0.692,13.831,4.709,13.819,12.063L2840.711,3041.919z"/>
					
						<linearGradient id="SVGID_00000060742606858293220980000012775373762816083098_" gradientUnits="userSpaceOnUse" x1="3419.488" y1="2743.3936" x2="2429.1821" y2="3294.292">
						<stop  offset="0" style="stop-color:#444B8C"/>
						<stop  offset="0.9964" style="stop-color:#3E4177"/>
					</linearGradient>
					<path style="fill:url(#SVGID_00000060742606858293220980000012775373762816083098_);" d="M2986.649,3027.938
						c-0.016,7.231-6.018,13.676-13.416,14.396l-90.299,8.786c-7.564,0.736-13.695-4.607-13.683-11.935l0.058-33.466
						c0.013-7.331,6.166-13.83,13.732-14.515l90.322-8.177c7.4-0.67,13.376,4.652,13.36,11.886L2986.649,3027.938z"/>
					
						<linearGradient id="SVGID_00000103970865038257288050000003117116320400390306_" gradientUnits="userSpaceOnUse" x1="3412.2939" y1="2761.7488" x2="2460.1228" y2="3291.4331">
						<stop  offset="0" style="stop-color:#444B8C"/>
						<stop  offset="0.9964" style="stop-color:#3E4177"/>
					</linearGradient>
					<path style="fill:url(#SVGID_00000103970865038257288050000003117116320400390306_);" d="M3119.803,2862.794l-87.359,6.824
						c-7.316,0.572-12.826,8.835-12.844,16.049l-0.045,18.552l-0.037,15.49l-0.169,69.933l-0.05,20.572l-0.032,13.438
						c-0.017,7.205,5.453,13.671,12.764,12.96l87.298-8.494c7.153-0.696,13.401-8.212,13.422-15.323l0.039-13.264l0.059-20.305
						l0.202-69.026l0.045-15.289l0.054-18.311C3133.171,2869.481,3126.962,2862.235,3119.803,2862.794z"/>
				</g>
				<g>
					<g>
						
							<linearGradient id="SVGID_00000148651103076294658280000003657338636367855008_" gradientUnits="userSpaceOnUse" x1="2630.3401" y1="2539.0117" x2="2613.2817" y2="2927.9346">
							<stop  offset="0" style="stop-color:#444B8C"/>
							<stop  offset="0.9964" style="stop-color:#26264F"/>
						</linearGradient>
						<path style="fill:url(#SVGID_00000148651103076294658280000003657338636367855008_);" d="M2690.225,2621.964
							c-0.007,7.505-6.427,13.905-14.351,14.295l-96.76,4.769c-8.109,0.399-14.69-5.444-14.688-13.053l0.013-34.75
							c0.003-7.612,6.591-14.063,14.702-14.408l96.787-4.112c7.926-0.337,14.336,5.477,14.329,12.985L2690.225,2621.964z"/>
						
							<linearGradient id="SVGID_00000049194488139076724190000003246166341235723165_" gradientUnits="userSpaceOnUse" x1="2783.5674" y1="2533.2722" x2="2766.8308" y2="2914.8579">
							<stop  offset="0" style="stop-color:#444B8C"/>
							<stop  offset="0.9964" style="stop-color:#26264F"/>
						</linearGradient>
						<path style="fill:url(#SVGID_00000049194488139076724190000003246166341235723165_);" d="M2841.398,2614.741
							c-0.012,7.38-6.223,13.668-13.884,14.045l-93.531,4.609c-7.837,0.386-14.193-5.364-14.185-12.844l0.036-34.163
							c0.008-7.483,6.379-13.821,14.218-14.154l93.556-3.975c7.663-0.325,13.856,5.396,13.844,12.779L2841.398,2614.741z"/>
						
							<linearGradient id="SVGID_00000150815088803808270920000008925575987042623153_" gradientUnits="userSpaceOnUse" x1="2936.832" y1="2527.5266" x2="2920.4163" y2="2901.8003">
							<stop  offset="0" style="stop-color:#444B8C"/>
							<stop  offset="0.9964" style="stop-color:#26264F"/>
						</linearGradient>
						<path style="fill:url(#SVGID_00000150815088803808270920000008925575987042623153_);" d="M2992.644,2607.514
							c-0.017,7.254-6.022,13.43-13.425,13.795l-90.357,4.453c-7.569,0.373-13.704-5.283-13.691-12.635l0.059-33.575
							c0.013-7.355,6.171-13.578,13.742-13.9l90.38-3.84c7.405-0.315,13.385,5.314,13.368,12.572L2992.644,2607.514z"/>
						
							<linearGradient id="SVGID_00000155866627036802436350000009086046725199426717_" gradientUnits="userSpaceOnUse" x1="3084.9368" y1="2521.9697" x2="3068.8298" y2="2889.2041">
							<stop  offset="0" style="stop-color:#444B8C"/>
							<stop  offset="0.9964" style="stop-color:#26264F"/>
						</linearGradient>
						<path style="fill:url(#SVGID_00000155866627036802436350000009086046725199426717_);" d="M3138.832,2600.529
							c-0.021,7.134-5.831,13.202-12.988,13.554l-87.341,4.305c-7.315,0.36-13.24-5.206-13.222-12.433l0.08-33.007
							c0.018-7.23,5.972-13.344,13.289-13.655l87.363-3.712c7.159-0.304,12.936,5.235,12.915,12.371L3138.832,2600.529z"/>
					</g>
					<g>
						
							<linearGradient id="SVGID_00000130643903945510689640000015013480841164928932_" gradientUnits="userSpaceOnUse" x1="2630.3176" y1="2648.7141" x2="2612.9827" y2="3043.948">
							<stop  offset="0" style="stop-color:#444B8C"/>
							<stop  offset="0.9964" style="stop-color:#26264F"/>
						</linearGradient>
						<path style="fill:url(#SVGID_00000130643903945510689640000015013480841164928932_);" d="M2690.123,2732.005
							c-0.007,7.498-6.423,13.969-14.344,14.456l-96.713,5.943c-8.105,0.498-14.683-5.26-14.68-12.861l0.013-34.715
							c0.003-7.604,6.587-14.129,14.694-14.573l96.739-5.288c7.923-0.433,14.329,5.297,14.322,12.798L2690.123,2732.005z"/>
						
							<linearGradient id="SVGID_00000099646106081565077390000016856423883624511926_" gradientUnits="userSpaceOnUse" x1="2783.4695" y1="2641.1519" x2="2766.4656" y2="3028.8354">
							<stop  offset="0" style="stop-color:#444B8C"/>
							<stop  offset="0.9964" style="stop-color:#26264F"/>
						</linearGradient>
						<path style="fill:url(#SVGID_00000099646106081565077390000016856423883624511926_);" d="M2841.224,2722.947
							c-0.012,7.373-6.22,13.73-13.877,14.201l-93.487,5.744c-7.833,0.481-14.186-5.186-14.178-12.659l0.036-34.129
							c0.008-7.476,6.376-13.885,14.211-14.313l93.512-5.111c7.66-0.419,13.85,5.222,13.838,12.597L2841.224,2722.947z"/>
						
							<linearGradient id="SVGID_00000156566728701069434370000002759828485824214205_" gradientUnits="userSpaceOnUse" x1="2936.6614" y1="2633.582" x2="2919.9873" y2="3013.7444">
							<stop  offset="0" style="stop-color:#444B8C"/>
							<stop  offset="0.9964" style="stop-color:#26264F"/>
						</linearGradient>
						<path style="fill:url(#SVGID_00000156566728701069434370000002759828485824214205_);" d="M2992.401,2713.885
							c-0.017,7.248-6.019,13.491-13.419,13.945l-90.315,5.55c-7.566,0.465-13.698-5.111-13.685-12.456l0.059-33.542
							c0.013-7.348,6.168-13.64,13.735-14.054l90.339-4.938c7.401-0.405,13.378,5.146,13.362,12.396L2992.401,2713.885z"/>
						
							<linearGradient id="SVGID_00000061459244206714601290000013117526711306270083_" gradientUnits="userSpaceOnUse" x1="3084.6982" y1="2626.2617" x2="3068.3416" y2="2999.186">
							<stop  offset="0" style="stop-color:#444B8C"/>
							<stop  offset="0.9964" style="stop-color:#26264F"/>
						</linearGradient>
						<path style="fill:url(#SVGID_00000061459244206714601290000013117526711306270083_);" d="M3138.524,2705.125
							c-0.021,7.127-5.829,13.26-12.982,13.699l-87.303,5.364c-7.312,0.449-13.234-5.039-13.217-12.26l0.08-32.976
							c0.018-7.223,5.97-13.404,13.283-13.804l87.324-4.773c7.156-0.391,12.93,5.072,12.909,12.201L3138.524,2705.125z"/>
					</g>
					<g>
						
							<linearGradient id="SVGID_00000062163118776157164890000004462104492589694856_" gradientUnits="userSpaceOnUse" x1="2630.2959" y1="2755.7571" x2="2612.6899" y2="3157.1667">
							<stop  offset="0" style="stop-color:#444B8C"/>
							<stop  offset="0.9964" style="stop-color:#26264F"/>
						</linearGradient>
						<path style="fill:url(#SVGID_00000062163118776157164890000004462104492589694856_);" d="M2690.023,2839.382
							c-0.007,7.49-6.42,14.032-14.337,14.613l-96.667,7.087c-8.101,0.594-14.676-5.08-14.673-12.674l0.013-34.682
							c0.003-7.597,6.584-14.194,14.687-14.733l96.693-6.433c7.919-0.527,14.323,5.122,14.315,12.615L2690.023,2839.382z"/>
						
							<linearGradient id="SVGID_00000149347216233680209390000004921089772191478663_" gradientUnits="userSpaceOnUse" x1="2783.374" y1="2746.4177" x2="2766.1084" y2="3140.0691">
							<stop  offset="0" style="stop-color:#444B8C"/>
							<stop  offset="0.9964" style="stop-color:#26264F"/>
						</linearGradient>
						<path style="fill:url(#SVGID_00000149347216233680209390000004921089772191478663_);" d="M2841.054,2828.535
							c-0.012,7.365-6.217,13.791-13.871,14.352l-93.444,6.851c-7.829,0.574-14.179-5.012-14.172-12.478l0.036-34.096
							c0.008-7.469,6.373-13.947,14.204-14.468l93.469-6.219c7.656-0.51,13.844,5.052,13.832,12.42L2841.054,2828.535z"/>
						
							<linearGradient id="SVGID_00000114053004721433086720000007190631347804801708_" gradientUnits="userSpaceOnUse" x1="2936.4946" y1="2737.0698" x2="2919.5679" y2="3122.9949">
							<stop  offset="0" style="stop-color:#444B8C"/>
							<stop  offset="0.9964" style="stop-color:#26264F"/>
						</linearGradient>
						<path style="fill:url(#SVGID_00000114053004721433086720000007190631347804801708_);" d="M2992.163,2817.683
							c-0.017,7.241-6.017,13.549-13.413,14.092l-90.275,6.619c-7.562,0.554-13.692-4.944-13.679-12.281l0.059-33.511
							c0.013-7.341,6.165-13.7,13.729-14.204l90.298-6.008c7.398-0.492,13.373,4.982,13.356,12.225L2992.163,2817.683z"/>
						
							<linearGradient id="SVGID_00000024711447361426958780000004473510628654015126_" gradientUnits="userSpaceOnUse" x1="3084.4653" y1="2728.0303" x2="3067.8645" y2="3106.5227">
							<stop  offset="0" style="stop-color:#444B8C"/>
							<stop  offset="0.9964" style="stop-color:#26264F"/>
						</linearGradient>
						<path style="fill:url(#SVGID_00000024711447361426958780000004473510628654015126_);" d="M3138.223,2807.194
							c-0.021,7.12-5.826,13.317-12.977,13.841l-87.265,6.398c-7.309,0.536-13.229-4.877-13.211-12.091l0.08-32.945
							c0.018-7.217,5.967-13.462,13.278-13.948l87.286-5.808c7.153-0.476,12.925,4.913,12.904,12.036L3138.223,2807.194z"/>
					</g>
					
						<linearGradient id="SVGID_00000155849501189823785920000010388137435898534795_" gradientUnits="userSpaceOnUse" x1="2630.2749" y1="2860.1479" x2="2612.4041" y2="3267.5977">
						<stop  offset="0" style="stop-color:#444B8C"/>
						<stop  offset="0.9964" style="stop-color:#26264F"/>
					</linearGradient>
					<path style="fill:url(#SVGID_00000155849501189823785920000010388137435898534795_);" d="M2689.926,2944.102
						c-0.007,7.483-6.417,14.093-14.33,14.765l-96.622,8.202c-8.097,0.687-14.669-4.905-14.666-12.492l0.013-34.648
						c0.003-7.59,6.581-14.257,14.68-14.889l96.648-7.55c7.915-0.618,14.316,4.95,14.309,12.437L2689.926,2944.102z"/>
					
						<linearGradient id="SVGID_00000016035917709696749630000015705649331766621069_" gradientUnits="userSpaceOnUse" x1="2783.2813" y1="2849.0776" x2="2765.7595" y2="3248.5642">
						<stop  offset="0" style="stop-color:#444B8C"/>
						<stop  offset="0.9964" style="stop-color:#26264F"/>
					</linearGradient>
					<path style="fill:url(#SVGID_00000016035917709696749630000015705649331766621069_);" d="M2840.889,2931.513
						c-0.012,7.359-6.214,13.85-13.865,14.5l-93.402,7.929c-7.826,0.664-14.173-4.843-14.165-12.302l0.036-34.064
						c0.008-7.462,6.37-14.008,14.198-14.619l93.427-7.298c7.653-0.598,13.837,4.886,13.825,12.248L2840.889,2931.513z"/>
					
						<linearGradient id="SVGID_00000135681808517004167650000011303959956027066266_" gradientUnits="userSpaceOnUse" x1="2936.3325" y1="2837.9973" x2="2919.1584" y2="3229.5574">
						<stop  offset="0" style="stop-color:#444B8C"/>
						<stop  offset="0.9964" style="stop-color:#26264F"/>
					</linearGradient>
					<path style="fill:url(#SVGID_00000135681808517004167650000011303959956027066266_);" d="M2991.931,2918.917
						c-0.016,7.235-6.014,13.607-13.407,14.234l-90.236,7.66c-7.559,0.642-13.686-4.78-13.673-12.111l0.059-33.48
						c0.013-7.334,6.162-13.759,13.723-14.35l90.259-7.051c7.395-0.578,13.367,4.822,13.35,12.059L2991.931,2918.917z"/>
					
						<linearGradient id="SVGID_00000078032450400365293270000012930330204884362430_" gradientUnits="userSpaceOnUse" x1="2630.2524" y1="2972.064" x2="2612.0967" y2="3386.0068">
						<stop  offset="0" style="stop-color:#444B8C"/>
						<stop  offset="0.9964" style="stop-color:#26264F"/>
					</linearGradient>
					<path style="fill:url(#SVGID_00000078032450400365293270000012930330204884362430_);" d="M2689.821,3056.375
						c-0.007,7.476-6.414,14.159-14.323,14.928l-96.573,9.396c-8.093,0.787-14.662-4.717-14.659-12.296l0.013-34.613
						c0.003-7.582,6.578-14.324,14.673-15.057l96.6-8.745c7.911-0.716,14.309,4.767,14.302,12.246L2689.821,3056.375z"/>
					
						<linearGradient id="SVGID_00000016053673771220957800000015426702037487573653_" gradientUnits="userSpaceOnUse" x1="2783.1816" y1="2959.1396" x2="2765.385" y2="3364.9004">
						<stop  offset="0" style="stop-color:#444B8C"/>
						<stop  offset="0.9964" style="stop-color:#26264F"/>
					</linearGradient>
					<path style="fill:url(#SVGID_00000016053673771220957800000015426702037487573653_);" d="M2840.711,3041.919
						c-0.012,7.352-6.211,13.913-13.858,14.657l-93.357,9.083c-7.822,0.761-14.166-4.661-14.158-12.113l0.036-34.03
						c0.008-7.454,6.367-14.073,14.191-14.781l93.381-8.454c7.649-0.692,13.831,4.709,13.819,12.063L2840.711,3041.919z"/>
					
						<linearGradient id="SVGID_00000018927462607483473020000013630793352393155218_" gradientUnits="userSpaceOnUse" x1="2936.1587" y1="2946.2039" x2="2918.719" y2="3343.8223">
						<stop  offset="0" style="stop-color:#444B8C"/>
						<stop  offset="0.9964" style="stop-color:#26264F"/>
					</linearGradient>
					<path style="fill:url(#SVGID_00000018927462607483473020000013630793352393155218_);" d="M2991.683,3027.456
						c-0.016,7.227-6.011,13.668-13.401,14.387l-90.194,8.776c-7.555,0.735-13.679-4.605-13.666-11.929l0.059-33.447
						c0.013-7.326,6.159-13.822,13.716-14.506l90.217-8.167c7.391-0.669,13.361,4.651,13.344,11.881L2991.683,3027.456z"/>
					
						<linearGradient id="SVGID_00000138553935666717669730000000309738413689030784_" gradientUnits="userSpaceOnUse" x1="3088.6807" y1="2776.1709" x2="3045.793" y2="3753.9976">
						<stop  offset="0" style="stop-color:#444B8C"/>
						<stop  offset="0.9964" style="stop-color:#26264F"/>
					</linearGradient>
					<path style="fill:url(#SVGID_00000138553935666717669730000000309738413689030784_);" d="M3124.865,2862.399l-87.256,6.816
						c-7.308,0.571-12.991,8.844-13.009,16.053l-0.045,18.541l-0.038,15.481l-0.17,69.893l-0.05,20.56l-0.033,13.431
						c-0.018,7.2,5.626,13.646,12.928,12.936l87.195-8.484c7.145-0.695,13.21-8.189,13.231-15.297l0.039-13.256l0.06-20.293
						l0.203-68.987l0.045-15.281l0.054-18.3C3138.041,2869.096,3132.015,2861.841,3124.865,2862.399z"/>
				</g>
			</g>
		</g>
		<g>
			
				<linearGradient id="SVGID_00000086684818938605402470000000696868926600205497_" gradientUnits="userSpaceOnUse" x1="1791.6973" y1="6711.5273" x2="1973.6426" y2="1656.1226">
				<stop  offset="0" style="stop-color:#AA80F9"/>
				<stop  offset="0.9964" style="stop-color:#6165D7"/>
			</linearGradient>
			<path style="fill:url(#SVGID_00000086684818938605402470000000696868926600205497_);" d="M2333.037,1653.671v376.148
				c0,40.453-25.156,77.897-67.965,108.491c-10.259,7.322-21.531,14.282-33.747,20.77c-66.624,35.523-160.471,57.635-264.394,57.635
				s-197.771-22.111-264.394-57.635c-63.036-33.566-101.713-79.094-101.713-129.261v-376.148H2333.037z"/>
			
				<linearGradient id="SVGID_00000129891797524232350360000001109874972867082894_" gradientUnits="userSpaceOnUse" x1="1924.715" y1="2215.6667" x2="1937.9596" y2="1847.662">
				<stop  offset="0" style="stop-color:#AA80F9"/>
				<stop  offset="0.9964" style="stop-color:#6165D7"/>
			</linearGradient>
			<path style="opacity:0.3;fill:url(#SVGID_00000129891797524232350360000001109874972867082894_);" d="M2265.072,2138.31
				c-10.259,7.322-21.531,14.282-33.747,20.77c-66.624,35.523-160.471,57.635-264.394,57.635s-197.771-22.111-264.394-57.635
				c-63.036-33.566-101.713-79.094-101.713-129.261v-194.29c50.928,22.691,124.186,67.132,137.671,138.939
				c21.096,112.37,175.514,150.43,329.061,125.056C2135.194,2088.323,2205.988,2105.904,2265.072,2138.31z"/>
			
				<linearGradient id="SVGID_00000040560430920792326710000015088916083915749296_" gradientUnits="userSpaceOnUse" x1="2030.1257" y1="1290.6466" x2="1954.2457" y2="1856.7332">
				<stop  offset="0" style="stop-color:#AA80F9"/>
				<stop  offset="0.9964" style="stop-color:#6165D7"/>
			</linearGradient>
			<polygon style="fill:url(#SVGID_00000040560430920792326710000015088916083915749296_);" points="2524.662,1689.919 
				1975.469,1418.698 1426.277,1689.919 1405.083,1689.919 1405.083,1699.073 1405.083,1699.073 1975.993,1981.169 
				2546.902,1699.073 2546.902,1699.073 2546.902,1689.919 			"/>
			
				<linearGradient id="SVGID_00000116200148636940521420000002135126492314109327_" gradientUnits="userSpaceOnUse" x1="2019.3672" y1="1130.3756" x2="1920.2889" y2="2389.3965">
				<stop  offset="0" style="stop-color:#AA80F9"/>
				<stop  offset="0.9964" style="stop-color:#6165D7"/>
			</linearGradient>
			<polygon style="fill:url(#SVGID_00000116200148636940521420000002135126492314109327_);" points="1975.469,1406.103 
				1404.258,1688.199 1975.469,1970.294 2546.681,1688.199 			"/>
			<g>
				
					<linearGradient id="SVGID_00000054964126311828884010000007468024830801314473_" gradientUnits="userSpaceOnUse" x1="2588.5703" y1="1302.9034" x2="1921.9386" y2="2462.3848">
					<stop  offset="0" style="stop-color:#FFC444"/>
					<stop  offset="0.9964" style="stop-color:#F36F56"/>
				</linearGradient>
				<path style="fill:url(#SVGID_00000054964126311828884010000007468024830801314473_);" d="M2543.277,2079.847
					c-4.189,0-7.25-3.396-7.25-7.585v-369.774c0-8.365-6.065-16.193-14.43-16.193h-546.128c-4.189,0-7.585-3.061-7.585-7.25
					s3.396-7.25,7.585-7.25h546.128c16.73,0,28.929,13.963,28.929,30.692v369.774
					C2550.527,2076.451,2547.466,2079.847,2543.277,2079.847z"/>
			</g>
			
				<linearGradient id="SVGID_00000164477374205486276910000016247120096516769184_" gradientUnits="userSpaceOnUse" x1="2515.8577" y1="2344.8105" x2="2559.4377" y2="1937.4318">
				<stop  offset="0" style="stop-color:#FFC444"/>
				<stop  offset="0.9964" style="stop-color:#F36F56"/>
			</linearGradient>
			<path style="fill:url(#SVGID_00000164477374205486276910000016247120096516769184_);" d="M2562.5,2012.647l-6.46-11.483
				c-2.468-4.355-7.095-7.015-12.1-6.934c-5.005,0.081-9.555,2.89-11.881,7.323l-5.434,11.951c-1.515,2.888-1.471,6.101-1.471,9.362
				v100.594c0,2.16,8.416,3.911,19.937,3.911s19.937-1.751,19.937-3.911v-100.878
				C2565.026,2019.1,2564.216,2015.677,2562.5,2012.647z"/>
		</g>
	</g>
</g>
</svg>
